<?xml version="1.0" encoding="UTF-8"?>
<svg width="78px" height="78px" viewBox="0 0 78 78" version="1.1" xmlns="http://www.w3.org/2000/svg" xmlns:xlink="http://www.w3.org/1999/xlink">
    <title>Group 17</title>
    <defs>
        <linearGradient x1="88.5359616%" y1="-14.6833853%" x2="11.891064%" y2="100%" id="linearGradient-1">
            <stop stop-color="#7C71D2" offset="0%"></stop>
            <stop stop-color="#170D69" offset="100%"></stop>
        </linearGradient>
        <circle id="path-2" cx="35" cy="35" r="35"></circle>
        <filter x="-10.0%" y="-7.1%" width="120.0%" height="120.0%" filterUnits="objectBoundingBox" id="filter-3">
            <feOffset dx="0" dy="2" in="SourceAlpha" result="shadowOffsetOuter1"></feOffset>
            <feGaussianBlur stdDeviation="2" in="shadowOffsetOuter1" result="shadowBlurOuter1"></feGaussianBlur>
            <feColorMatrix values="0 0 0 0 0   0 0 0 0 0   0 0 0 0 0  0 0 0 0.2 0" type="matrix" in="shadowBlurOuter1"></feColorMatrix>
        </filter>
        <linearGradient x1="50%" y1="-36.4663068%" x2="50%" y2="148.964055%" id="linearGradient-4">
            <stop stop-color="#EFFFF9" offset="0%"></stop>
            <stop stop-color="#F5BEFF" offset="100%"></stop>
        </linearGradient>
        <linearGradient x1="50%" y1="-36.4663068%" x2="50%" y2="148.964055%" id="linearGradient-5">
            <stop stop-color="#EFFFF9" offset="0%"></stop>
            <stop stop-color="#F5BEFF" offset="100%"></stop>
        </linearGradient>
        <linearGradient x1="50%" y1="-36.4663068%" x2="50%" y2="148.964055%" id="linearGradient-6">
            <stop stop-color="#EFFFF9" offset="0%"></stop>
            <stop stop-color="#F5BEFF" offset="100%"></stop>
        </linearGradient>
        <linearGradient x1="50%" y1="-36.4663068%" x2="50%" y2="148.964055%" id="linearGradient-7">
            <stop stop-color="#EFFFF9" offset="0%"></stop>
            <stop stop-color="#F5BEFF" offset="100%"></stop>
        </linearGradient>
        <linearGradient x1="50%" y1="-36.4663068%" x2="50%" y2="148.964055%" id="linearGradient-8">
            <stop stop-color="#EFFFF9" offset="0%"></stop>
            <stop stop-color="#F5BEFF" offset="100%"></stop>
        </linearGradient>
    </defs>
    <g id="Platform" stroke="none" stroke-width="1" fill="none" fill-rule="evenodd">
        <g id="Homepage-Solanium" transform="translate(-425.000000, -5067.000000)">
            <g id="Group-10" transform="translate(20.000000, 4554.000000)">
                <g id="Group-6" transform="translate(379.000000, 485.000000)">
                    <g id="Group-17" transform="translate(30.000000, 30.000000)">
                        <g id="Oval-Copy-21">
                            <use fill="black" fill-opacity="1" filter="url(#filter-3)" xlink:href="#path-2"></use>
                            <use fill="url(#linearGradient-1)" fill-rule="evenodd" xlink:href="#path-2"></use>
                        </g>
                        <g id="download" transform="translate(11.000000, 5.000000)" fill-rule="nonzero">
                            <path d="M37.9208125,14.1346847 L37.9208125,14.0020188 C37.9208125,6.2814412 31.9450796,0 24.2475743,0 C17.744783,0 12.4734771,4.45872731 10.9802649,10.7545887 C4.81923243,11.3840307 0,16.5205076 0,22.8783759 C0,29.7012958 5.49842408,34.999279 12.2571741,34.999279 L18.3417795,34.999279 C19.1377748,34.999279 19.7837999,34.3532538 19.7837999,33.5572585 C19.7837999,32.7612632 19.1377748,32.115238 18.3417795,32.115238 L12.2571741,32.115238 C7.08897266,32.115238 2.88404095,28.1071421 2.88404095,22.8740498 C2.88404095,17.672682 7.08897266,13.6912634 12.2571741,13.6912634 C15.4418763,13.6912634 18.2884247,15.3575181 20.0664359,18.2761675 C20.4802958,18.9553592 21.3678594,19.1558 22.0484931,18.7412191 C22.7284057,18.3266382 22.9432668,17.4080712 22.5294069,16.7281585 C20.5437447,13.4684713 17.3734627,11.3061615 13.8448386,10.8028964 C15.2371094,6.13579713 19.3324475,2.88476196 24.2670416,2.88476196 C30.4771028,2.88476196 35.0374925,7.76816431 35.0374925,14.0027398 L35.0374925,15.4072678 C35.0374925,16.1686546 35.6287209,16.7988175 36.3893867,16.8464042 C40.3859465,17.0994788 42.9686052,20.067157 42.9686052,24.4076386 L42.9686052,24.6614342 C42.9686052,28.6168964 41.3297489,32.115959 37.0303648,32.115959 L28.4366438,32.115959 C27.6399275,32.115959 26.9946233,32.7619842 26.9946233,33.5579795 C26.9946233,34.3539748 27.6399275,35 28.4366438,35 L37.0296438,35 C42.4949014,35 45.8519251,30.9457594 45.8519251,24.6614342 L45.8519251,24.4076386 C45.8519251,19.0058299 42.9678841,15.0309004 37.9208125,14.1346847 Z" id="Path" fill="url(#linearGradient-4)"></path>
                            <path d="M33.2118946,13.6415137 C33.2118946,14.0402324 33.5341862,14.3625239 33.9329048,14.3625239 C34.3316235,14.3625239 34.6539151,14.0402324 34.6539151,13.6415137 C34.6539151,8.84895866 31.2456997,4.78101889 26.552644,3.96916136 C26.1625775,3.90354943 25.7862102,4.16455514 25.7191562,4.55678471 C25.6521023,4.94901428 25.91455,5.32249758 26.3075006,5.38955153 C30.3076654,6.08172136 33.2118946,9.55194364 33.2118946,13.6415137 Z" id="Path" fill="url(#linearGradient-5)"></path>
                            <path d="M22.9302886,4.02251612 C22.1602497,4.17753332 21.408957,4.42628185 20.6980409,4.7608306 C20.3382568,4.93026801 20.1839606,5.35999011 20.353398,5.72049523 C20.4759698,5.98077993 20.7355334,6.1336341 21.0059123,6.1336341 C21.1090167,6.1336341 21.2135632,6.11200379 21.3130626,6.06441711 C21.9179902,5.77889706 22.5582473,5.56836207 23.2143666,5.43569619 C23.6051542,5.35710607 23.8575078,4.97641267 23.7789177,4.58634613 C23.7003275,4.1970006 23.3181921,3.94320499 22.9302886,4.02251612 Z" id="Path" fill="url(#linearGradient-6)"></path>
                        </g>
                        <g id="magic" transform="translate(35.601398, 48.628000) rotate(-225.000000) translate(-35.601398, -48.628000) translate(23.438636, 37.128000)" fill-rule="nonzero">
                            <path d="M15.5556057,7.56727659 L16.7414713,8.13238018 L17.646205,9.08595698 C18.0750022,9.53803985 18.6713426,9.79418229 19.2938085,9.79418229 L19.2943764,9.79418229 C19.9174102,9.79418229 20.5131828,9.53803985 20.94198,9.08595698 L21.8461457,8.13238018 L23.0314434,7.56727659 C23.5937072,7.29920735 24.0213686,6.81134405 24.2144693,6.21897918 C24.4070021,5.62604637 24.347368,4.97972689 24.0497657,4.43222955 L23.4233243,3.27816875 L23.2518054,1.97587476 C23.1700215,1.35795244 22.8389106,0.800800059 22.3351449,0.433908685 C21.9443999,0.149937032 21.4758467,0 20.9993422,0 C20.861332,0 20.7233218,0.0124947527 20.5853116,0.0380522014 L19.2938085,0.277724276 L18.0017375,0.0386201447 C17.8642952,0.013062696 17.726285,0.000567943304 17.5877068,0.000567943304 C17.1112024,0.000567943304 16.6432171,0.150504976 16.2519041,0.434476628 C15.7475705,0.801368003 15.4158916,1.35852038 15.3352437,1.9764427 L15.1642927,3.27816875 L14.5372833,4.43222955 C14.239681,4.97972689 14.180047,5.62604637 14.3725798,6.21897918 C14.5656805,6.81134405 14.9933418,7.29920735 15.5556057,7.56727659 Z M17.3616654,3.99264143 L17.5877068,2.27234116 L19.2938085,2.58868558 L20.9993422,2.27234116 L21.2253837,3.99264143 L22.053445,5.51700126 L20.4876253,6.26327876 L19.2932405,7.52240907 L18.0982878,6.26327876 L16.5324681,5.51700126 L17.3616654,3.99264143 Z" id="Shape" fill="url(#linearGradient-7)"></path>
                            <path d="M1.29398134,7.17142011 L2.01470139,7.51445786 L2.56390257,8.09376003 C2.99269976,8.54527496 3.58847229,8.80141739 4.21093815,8.80141739 C4.21150609,8.80141739 4.21150609,8.80141739 4.21150609,8.80141739 C4.8345399,8.80141739 5.43031243,8.5458429 5.85854168,8.09432797 L6.4083108,7.5150258 L7.12959879,7.17142011 C7.69186266,6.90335087 8.12009192,6.41548757 8.3126247,5.82255476 C8.50515748,5.22962195 8.44495549,4.58387041 8.14792114,4.03580512 L7.76683118,3.33553103 L7.66289756,2.544386 C7.58168166,1.92646369 7.25000277,1.36931131 6.74623706,1.00241993 C6.35549207,0.717880337 5.88693884,0.567943304 5.41043441,0.567943304 C5.27242419,0.567943304 5.13384602,0.580438057 4.99640374,0.605995506 L4.21150609,0.751388992 L3.42717639,0.605995506 C3.28973411,0.580438057 3.15115595,0.567943304 3.01314572,0.567943304 C2.53720923,0.567943304 2.06922395,0.717880337 1.67791101,1.00185199 C1.17357736,1.36817542 0.841898469,1.9253278 0.760682577,2.54325012 L0.656181009,3.33553103 L0.275091051,4.03694101 C-0.0219432968,4.58443835 -0.0815773437,5.23018989 0.11152338,5.8231227 C0.30405616,6.41605551 0.731717468,6.90335087 1.29398134,7.17142011 Z M2.85355365,4.04943576 L3.01257778,2.84028447 L4.21093815,3.06291824 L5.40986647,2.84028447 L5.56832265,4.04943576 L6.15046454,5.12114478 L5.04979041,5.64592439 L4.20980226,6.53021211 L3.37038206,5.64592439 L2.26970794,5.12114478 L2.85355365,4.04943576 Z" id="Shape" fill="url(#linearGradient-8)"></path>
                            <path d="M23.6686758,17.5341136 L23.5647421,16.7429686 C23.4835262,16.1250463 23.1518474,15.5678939 22.6480816,15.2010025 C22.2573366,14.9164629 21.7887834,14.7665259 21.312279,14.7665259 C21.1742688,14.7665259 21.0356906,14.7790207 20.8982483,14.8045781 L20.1133507,14.9499716 L19.329021,14.8045781 C19.1915787,14.7790207 19.0530005,14.7665259 18.9149903,14.7665259 C18.4390538,14.7665259 17.9710685,14.9164629 17.5797556,15.2004346 C17.0754219,15.566758 16.7437431,16.1239104 16.6625272,16.7418327 L16.5580256,17.5341136 L16.1769356,18.2355236 C15.8799013,18.783021 15.8202672,19.4287725 16.013368,20.0217053 C16.2059007,20.6146381 16.633562,21.1019335 17.1958259,21.3700027 L17.916546,21.7130405 L18.4657471,22.2923426 C18.8945443,22.7438576 19.4903169,23 20.1127827,23 C20.1133507,23 20.1133507,23 20.1133507,23 C20.7363845,23 21.332157,22.7444255 21.7603863,22.2929106 L22.3101554,21.7136084 L23.0314434,21.3700027 C23.5937072,21.1019335 24.0219365,20.6140702 24.2144693,20.0211374 C24.4070021,19.4282046 24.3468001,18.782453 24.0497657,18.2343877 L23.6686758,17.5341136 Z M20.9533388,19.8439391 L20.1133507,20.7282268 L19.2739305,19.8439391 L18.1732563,19.3191594 L18.7548303,18.2474504 L18.9138544,17.0382991 L20.1122148,17.2609329 L21.3111431,17.0382991 L21.4695993,18.2474504 L22.0517412,19.3191594 L20.9533388,19.8439391 Z" id="Shape" fill="url(#linearGradient-8)"></path>
                        </g>
                    </g>
                </g>
            </g>
        </g>
    </g>
</svg>