<?xml version="1.0" encoding="UTF-8"?>
<svg width="218px" height="347px" viewBox="0 0 218 347" version="1.1" xmlns="http://www.w3.org/2000/svg" xmlns:xlink="http://www.w3.org/1999/xlink">
    <title>God GEB</title>
    <defs>
        <filter x="-61.9%" y="-26.5%" width="223.7%" height="153.1%" filterUnits="objectBoundingBox" id="filter-1">
            <feGaussianBlur stdDeviation="20" in="SourceGraphic"></feGaussianBlur>
        </filter>
        <linearGradient x1="55.994987%" y1="-149.13378%" x2="55.994987%" y2="100%" id="linearGradient-2">
            <stop stop-color="#7C71D2" offset="0%"></stop>
            <stop stop-color="#170D69" offset="100%"></stop>
        </linearGradient>
        <path d="M50.0415734,105.803776 C50.0415734,105.803776 56.4010346,104.556996 62.3455565,105.313304 L68.1831555,104.142057 C68.1831555,104.142057 69.2013756,101.312033 70.3167091,100.696 C71.4281189,100.081929 74.7515579,98.585989 75.2822487,97.8061383 C75.2822487,97.8061383 75.4647043,99.2030029 75.1488403,99.6836655 C74.8339572,100.165309 73.92266,100.696 73.8559558,101.179605 L75.6971881,101.312033 C75.6971881,101.312033 76.4299534,100.147652 76.7615126,99.8494451 C76.7615126,99.8494451 77.3579266,100.380136 77.4609258,100.579268 L77.8425131,100.214356 C77.8425131,100.214356 77.809161,97.7737672 78.9048757,97.1596961 C78.9048757,97.1596961 79.0373031,98.8351488 79.3021581,99.3187543 L79.6866882,99.2030029 C79.6866882,99.2030029 79.882877,96.5260061 81.0472578,96.1444188 C81.0472578,96.1444188 81.0639339,97.8394904 81.2964176,98.5192848 C81.2964176,98.5192848 82.4764935,97.3087996 84.1391939,97.2754475 C84.1391939,97.2754475 82.4264654,99.7837218 81.3454648,100.910827 L81.2130374,103.488748 C81.2130374,103.488748 79.8004777,104.30097 79.3355102,104.417702 C79.3355102,104.417702 78.8548475,105.896966 78.5723356,106.295229 C78.5723356,106.295229 77.1264238,106.692512 76.6290851,106.775892 C76.6290851,106.775892 73.3488077,109.310652 69.7124475,108.879037 C69.7124475,108.879037 63.7944111,110.696726 61.9875119,111.734565 C56.6727562,114.79413 52.0358329,115.40722 52.0358329,115.40722 L51.5473227,115.715237 L52.2241742,116.939455 L53.3689361,117.098368 C53.3689361,117.098368 54.2311861,118.900363 54.2586525,119.742994 C54.2586525,119.742994 53.7671995,120.396302 53.3689361,120.542463 C53.3689361,120.542463 61.8668558,139.42662 62.3887181,144.354884 C62.9056757,149.289033 64.1397035,151.01059 64.1397035,151.981725 C64.1397035,152.956783 63.058703,162.165888 63.4461759,167.200093 C63.8346298,172.236261 67.4464664,193.957308 67.4464664,193.957308 C67.4464664,193.957308 71.2780345,197.037473 72.9995915,199.635994 C74.7182058,202.229611 80.4930243,202.133478 80.9481824,203.400858 C80.9481824,203.400858 79.9387909,205.570707 76.8144836,205.712944 C71.9087816,205.935618 70.2460812,204.531887 66.2163624,204.59761 C63.7512496,204.640772 61.4362212,204.979197 59.1643545,204.668238 C59.1643545,204.668238 58.2648286,202.216859 59.0741076,199.495719 C59.8833866,196.776542 59.5685035,195.134441 58.7729577,192.477064 C57.9734882,189.820667 51.8465107,174.554232 51.8268918,171.669275 C51.8072729,168.783337 53.3856122,164.1317 53.0942717,162.115859 C52.8048932,160.101981 44.7680173,150.382786 44.7680173,150.382786 C44.7680173,150.382786 41.8585368,153.994622 41.6495957,154.661664 C41.4435974,155.325764 39.8014968,160.536539 37.354041,163.260621 C34.9026614,165.979799 31.4458141,171.824264 30.4079751,174.55227 C29.3701361,177.275371 26.0290402,182.628384 25.0235723,185.063087 C24.0161426,187.498772 21.7138666,194.991224 22.3603088,196.842265 C22.3603088,196.842265 25.2962748,201.23101 26.2683905,202.824063 C27.2405062,204.412212 31.1044455,205.484384 32.5640905,205.871857 C32.5640905,205.871857 32.27275,207.494338 31.5890319,208.207485 C30.9082566,208.923574 23.219616,208.727385 22.1484249,208.436045 C22.1484249,208.436045 15.9184482,205.029226 14.8472572,204.736904 C13.7760661,204.445564 11.632703,203.470505 11.9583765,201.914728 C12.283069,200.355026 15.1395785,195.101089 15.6898882,191.660918 C16.2441217,188.221728 16.3402542,172.780685 18.9044424,169.400351 C22.5692499,164.567239 23.7709066,165.313738 25.3924074,156.748133 C25.3924074,156.748133 24.8146312,155.829969 24.7724506,155.39443 C24.7724506,155.39443 25.5817296,154.06525 25.6248911,152.694871 C25.6641289,151.325473 25.6641289,145.095497 26.5803308,143.931116 C26.5803308,143.931116 22.9439706,139.19806 24.6694515,133.611583 C24.6694515,133.611583 23.219616,129.20322 19.9756335,123.285183 C16.731651,117.368128 12.2399075,106.98189 16.3932252,102.18213 C16.3932252,102.18213 15.1091693,98.4300188 15.4211095,96.300389 C15.4211095,96.300389 7.82173476,92.6512765 11.5130278,64.4628638 C13.6966096,59.6366183 16.0508757,48.1419141 16.0253711,44.0160628 C16.0253711,44.0160628 19.3556767,39.3389208 24.9078209,36.6884096 C30.4638889,34.0408412 43.1053169,25.0877634 44.5590762,21.8673236 C44.5590762,21.8673236 44.84355,28.0737576 39.5238896,33.0294877 C39.5238896,33.0294877 45.2849749,30.458433 46.6887061,28.1237857 C46.6887061,28.1237857 47.0006463,30.5114039 46.7907243,31.6296803 C46.7907243,31.6296803 50.6056163,28.6937143 57.9803548,28.4347451 C65.3501886,28.1767567 79.444395,23.8674688 81.9389361,20.7 C81.9389361,20.7 83.1827733,25.4762173 75.2155445,29.9149899 C75.2155445,29.9149899 81.6544623,28.1502712 82.7953004,27.3704206 C82.7953004,27.3704206 82.5863593,32.7175475 71.2976533,36.3529267 C71.2976533,36.3529267 77.5511727,35.8859972 79.3188341,35.2120886 C79.3188341,35.2120886 78.7714672,40.8682129 67.6093031,42.0649648 C67.6093031,42.0649648 72.95643,42.1915066 75.0860599,41.8825092 C75.0860599,41.8825092 73.4243404,45.8004003 66.6734824,45.6709157 C66.6734824,45.6709157 68.9100352,46.4242808 71.0887122,46.7891921 C71.0887122,46.7891921 68.8835497,50.1096882 62.7036012,49.2268384 C62.7036012,49.2268384 65.7150999,51.1740127 67.506304,51.6684086 C67.506304,51.6684086 64.833231,54.3424625 61.5617821,54.1600068 C61.5617821,54.1600068 62.1523105,54.9555526 62.3318233,55.317521 C62.3318233,55.317521 60.2257361,57.0449638 56.7522127,56.2660941 C56.7522127,56.2660941 58.5708832,58.0445459 58.3217234,60.5518393 C58.3217234,60.5518393 57.5457965,61.5661356 56.5501382,62.0311031 C56.5501382,62.0311031 56.1685509,64.4726733 55.7173165,65.4349795 C55.7173165,65.4349795 55.6682693,66.7484638 55.568213,67.1457462 C55.568213,67.1457462 54.8619332,67.9020542 53.9133601,67.9991677 C53.9133601,67.9991677 53.5513917,70.9547526 53.5219634,71.421682 C53.5219634,71.421682 52.754865,71.7836504 51.6405124,71.6777085 L51.3423054,72.530149 C51.3423054,72.530149 50.8184812,72.8685747 50.0553066,72.8587653 L49.81988,73.5483691 C49.81988,73.5483691 48.9478206,73.9956796 48.9272207,73.9525181 C48.9076019,73.9132803 46.6818395,76.1753376 54.3037759,83.781579 C54.3037759,83.781579 51.5473227,84.046434 49.7041286,83.5863711 C49.7041286,83.5863711 53.8034944,89.0757349 53.7004952,94.4434616 C53.7004952,94.4434616 53.0569958,95.9384206 51.0303651,96.8173466 L50.9675847,97.9022709 C50.9675847,97.9022709 50.4467033,99.4021345 50.2210861,99.6836655 C50.2210861,99.6836655 51.0205557,101.262986 51.0038796,101.84959 C51.0038796,101.84959 50.7655102,104.178352 50.0415734,105.803776 M26.4940077,103.140513 C26.4940077,103.140513 26.0123641,103.903688 24.8980115,104.902289 C24.8980115,104.902289 27.3395816,108.786828 26.8922711,117.69282 L28.669742,115.317954 C28.669742,115.317954 28.3048307,113.241295 29.6320482,111.960182 C29.6320482,111.960182 29.7007143,108.954569 29.8341227,107.707789 C29.8341227,107.707789 28.2714786,104.686481 26.4940077,103.140513" id="path-3"></path>
        <filter x="-9.5%" y="-2.7%" width="119.0%" height="107.4%" filterUnits="objectBoundingBox" id="filter-4">
            <feOffset dx="0" dy="2" in="SourceAlpha" result="shadowOffsetOuter1"></feOffset>
            <feGaussianBlur stdDeviation="2" in="shadowOffsetOuter1" result="shadowBlurOuter1"></feGaussianBlur>
            <feColorMatrix values="0 0 0 0 0   0 0 0 0 0   0 0 0 0 0  0 0 0 0.5 0" type="matrix" in="shadowBlurOuter1"></feColorMatrix>
        </filter>
        <path d="M47.4803548,7.73474506 C40.1095401,7.99371433 36.2907243,10.9296803 36.2907243,10.9296803 C36.5006463,9.81140394 36.1887061,7.42378575 36.1887061,7.42378575 C34.7849749,9.76235673 29.0238896,12.3294877 29.0238896,12.3294877 C34.34355,7.37375759 34.0590762,1.1673236 34.0590762,1.1673236 C32.6053169,4.38776343 19.9638889,13.3408412 14.4078209,15.9884096 C8.85175295,18.6389208 5.52537115,23.3160628 5.52537115,23.3160628 C5.5508757,27.4419141 3.19660961,38.9366183 1.01008497,43.7628638 C-2.67826524,71.9512765 4.92110952,75.600389 4.92110952,75.600389 C4.60916926,77.7300188 5.89322523,81.4821304 5.89322523,81.4821304 C1.73990746,86.2848332 6.23165098,96.6681277 9.47563346,102.585183 C12.719616,108.50322 14.1694515,112.911583 14.1694515,112.911583 C12.4439706,118.49806 16.0803308,123.231116 16.0803308,123.231116 C15.1680527,124.395497 15.1680527,130.625473 15.1248911,131.994871 C15.0817296,133.36525 14.8924074,136.048133 14.8924074,136.048133 C13.2709066,144.613738 12.0692499,143.867239 8.40444239,148.700351 C5.84025424,152.080685 5.74412171,167.521728 5.18988823,170.960918 C4.63957853,174.401089 1.78306901,179.655026 1.45837647,181.214728 C1.132703,182.770505 3.27606609,183.745564 4.34725716,184.036904 C5.41844823,184.329226 11.6484249,187.736045 11.6484249,187.736045 C12.7166731,188.027385 20.4082566,188.223574 21.0890319,187.510428 C21.77275,186.794338 22.0640905,185.171857 22.0640905,185.171857 C20.6044455,184.784384 16.7405062,183.712212 15.7683905,182.124063 C14.7962748,180.534933 11.8603088,176.142265 11.8603088,176.142265 C11.2138666,174.291224 13.5161426,166.798772 14.5206295,164.363087 C15.5290402,161.928384 18.8701361,156.575371 19.9079751,153.85227 C20.9458141,151.124264 24.4026614,145.279799 26.854041,142.560621 C29.3014968,139.839482 30.9435974,134.625764 31.1495957,133.961664 C31.3585368,133.294622 34.2680173,129.682786 34.2680173,129.682786 C34.2680173,129.682786 42.3019504,139.401981 42.5942717,141.415859 C42.8856122,143.429738 41.3072729,148.083337 41.3268918,150.969275 C41.3465107,153.854232 47.4734882,169.116743 48.2729577,171.777064 C49.0685035,174.434441 49.3833866,176.076542 48.5741076,178.795719 C47.7618858,181.516859 48.6643545,183.968238 48.6643545,183.968238 C50.9391641,184.279197 53.2512496,183.940772 55.7163624,183.89761 C57.6301845,183.868182 59.0133158,184.166389 60.4592276,184.465577 C62.0581666,184.796155 63.740486,185.128695 66.3144836,185.012944 C69.4387909,184.870707 70.4481824,182.700858 70.4481824,182.700858 C69.9930243,181.433478 64.2182058,181.529611 62.4995915,178.935994 C60.7780345,176.337473 56.9503902,173.257308 56.9503902,173.257308 C56.9503902,173.257308 53.3346298,151.536261 52.9461759,146.500093 C52.5547792,141.465888 53.6397035,132.256783 53.6397035,131.281725 C53.6397035,130.31059 52.4086185,128.591976 51.8887181,123.658807 C51.3668558,118.72662 42.8689361,99.8424631 42.8689361,99.8424631 C43.2671995,99.6963024 43.7586525,99.0429936 43.7586525,99.0429936 C43.7311861,98.2003625 42.8689361,96.398368 42.8689361,96.398368 L41.7241742,96.239455 L41.0473227,95.0152367 L41.5358329,94.7072202 C41.5358329,94.7072202 46.1698134,94.0941301 51.4875119,91.0345651 C53.2914683,89.9967261 59.2124475,88.1790365 59.2124475,88.1790365 C62.8488077,88.610652 66.1290851,86.0758921 66.1290851,86.0758921 C66.6264238,85.9925119 68.0723356,85.5952295 68.0723356,85.5952295 C68.3548475,85.1969661 68.8355102,83.7177023 68.8355102,83.7177023 C69.3034206,83.6009699 70.7130374,82.7887481 70.7130374,82.7887481 L70.8454648,80.2147505 C71.9264654,79.0837218 73.6352702,76.5754475 73.6352702,76.5754475 C71.9764935,76.6087996 70.7964176,77.8192848 70.7964176,77.8192848 C70.5639339,77.1394904 70.5472578,75.4444188 70.5472578,75.4444188 C69.382877,75.8260061 69.1837454,78.5030029 69.1837454,78.5030029 L68.8021581,78.6187543 C68.5373031,78.1351488 68.4048757,76.4596961 68.4048757,76.4596961 C67.309161,77.0737672 67.3425131,79.5143563 67.3425131,79.5143563 L66.9609258,79.8792676 C66.8618504,79.6801359 66.2615126,79.1494451 66.2615126,79.1494451 C65.9260297,79.4476521 65.1971881,80.6120329 65.1971881,80.6120329 L63.3559558,80.4796054 C63.42266,79.9959999 64.3339572,79.4653091 64.6488403,78.9836655 C64.9647043,78.5030029 64.7822487,77.1061383 64.7822487,77.1061383 C64.2515579,77.885989 60.9281189,79.3819289 59.8167091,79.9959999 C58.7013756,80.6120329 57.6870793,83.4420569 57.6870793,83.4420569 L51.8455565,84.6133043 C45.9010346,83.8599392 39.5415734,85.1037764 39.5415734,85.1037764 C40.2615864,83.4783519 40.5038796,81.1495903 40.5038796,81.1495903 C40.5166319,80.5629857 39.7210861,78.9836655 39.7210861,78.9836655 C39.9467033,78.7021345 40.4675847,77.2022709 40.4675847,77.2022709 L40.5303651,76.1173466 C42.5569958,75.2384206 43.2004952,73.7434616 43.2004952,73.7434616 C43.3034944,68.3786777 39.2041286,62.8824473 39.2041286,62.8824473 C41.0473227,63.346434 43.8076997,63.081579 43.8076997,63.081579 C36.1818395,55.4753376 38.404659,53.2132803 38.4272207,53.2525181 C38.4478206,53.2956796 39.31988,52.8483691 39.31988,52.8483691 L39.5553066,52.1587653 C40.3184812,52.1685747 40.8423054,51.830149 40.8423054,51.830149 L41.1375696,50.9777085 C42.254865,51.0836504 43.0219634,50.721682 43.0219634,50.721682 C43.0513917,50.2547526 43.4133601,47.2991677 43.4133601,47.2991677 C44.3580094,47.2020542 45.068213,46.4457462 45.068213,46.4457462 C45.1682693,46.0484638 45.2173165,44.7349795 45.2173165,44.7349795 C45.6685509,43.7726733 46.0501382,41.3311031 46.0501382,41.3311031 C47.0457965,40.8661356 47.8217234,39.8518393 47.8217234,39.8518393 C48.0708832,37.3445459 46.2522127,35.5660941 46.2522127,35.5660941 C49.7257361,36.3449638 51.8318233,34.617521 51.8318233,34.617521 C51.6523105,34.2526098 51.0617821,33.4600068 51.0617821,33.4600068 C54.333231,33.6385387 57.006304,30.9684086 57.006304,30.9684086 C55.212157,30.4740127 52.2036012,28.5268384 52.2036012,28.5268384 C58.3835497,29.4096882 60.5887122,26.0891921 60.5887122,26.0891921 C58.4100352,25.7242808 56.1734824,24.9709157 56.1734824,24.9709157 C62.9243404,25.1004003 64.5860599,21.1825092 64.5860599,21.1825092 C62.45643,21.4915066 57.1093031,21.362022 57.1093031,21.362022 C68.2714672,20.1682129 68.8158913,14.5120886 68.8158913,14.5120886 C67.0511727,15.1859972 60.7976533,15.6529267 60.7976533,15.6529267 C72.0863593,12.0175475 72.2953004,6.6704206 72.2953004,6.6704206 C71.1544623,7.45027124 64.7155445,9.21498987 64.7155445,9.21498987 C72.6827733,4.77621734 71.4389361,0 71.4389361,0 M14.3980115,84.2022887 C15.5123641,83.2036875 15.9940077,82.4405129 15.9940077,82.4405129 C17.7714786,83.9825572 19.3341227,87.0077891 19.3341227,87.0077891 C19.1977715,88.2545692 19.1320482,91.2601823 19.1320482,91.2601823 C17.8048307,92.5412954 18.169742,94.6179543 18.169742,94.6179543 L16.3922711,96.9928202 C16.8395816,88.0868278 14.3980115,84.2022887 14.3980115,84.2022887" id="path-5"></path>
        <linearGradient x1="55.994987%" y1="-149.13378%" x2="55.994987%" y2="100%" id="linearGradient-7">
            <stop stop-color="#7C71D2" offset="0%"></stop>
            <stop stop-color="#170D69" offset="100%"></stop>
        </linearGradient>
        <linearGradient x1="55.994987%" y1="-149.13378%" x2="55.994987%" y2="100%" id="linearGradient-8">
            <stop stop-color="#7C71D2" offset="0%"></stop>
            <stop stop-color="#170D69" offset="100%"></stop>
        </linearGradient>
        <linearGradient x1="55.994987%" y1="-149.13378%" x2="55.994987%" y2="100%" id="linearGradient-9">
            <stop stop-color="#7C71D2" offset="0%"></stop>
            <stop stop-color="#170D69" offset="100%"></stop>
        </linearGradient>
        <linearGradient x1="55.994987%" y1="-149.13378%" x2="55.994987%" y2="100%" id="linearGradient-10">
            <stop stop-color="#7C71D2" offset="0%"></stop>
            <stop stop-color="#170D69" offset="100%"></stop>
        </linearGradient>
        <path d="M0,13.0396913 C0,20.236879 5.84446558,26.0793826 13.0396913,26.0793826 C20.2378599,26.0793826 26.0793826,20.236879 26.0793826,13.0396913 C26.0793826,5.84446558 20.2378599,0 13.0396913,0 C5.84446558,0 0,5.84446558 0,13.0396913" id="path-11"></path>
        <linearGradient x1="55.994987%" y1="-149.13378%" x2="55.994987%" y2="100%" id="linearGradient-13">
            <stop stop-color="#7C71D2" offset="0%"></stop>
            <stop stop-color="#170D69" offset="100%"></stop>
        </linearGradient>
        <path d="M0,2.57792137 C0,3.99734764 1.15457133,5.15191897 2.57399759,5.15191897 C3.99734764,5.15191897 5.15191897,3.99734764 5.15191897,2.57792137 C5.15191897,1.15457133 3.99734764,0 2.57399759,0 C1.15457133,0 0,1.15457133 0,2.57792137" id="path-14"></path>
        <linearGradient x1="55.994987%" y1="-149.13378%" x2="55.994987%" y2="100%" id="linearGradient-16">
            <stop stop-color="#7C71D2" offset="0%"></stop>
            <stop stop-color="#170D69" offset="100%"></stop>
        </linearGradient>
    </defs>
    <g id="Platform" stroke="none" stroke-width="1" fill="none" fill-rule="evenodd">
        <g id="Calculator" transform="translate(-1087.000000, -254.000000)">
            <g id="Calculator-empty" transform="translate(810.000000, 240.000000)">
                <g id="God-GEB" transform="translate(337.500000, 74.300000)">
                    <ellipse id="Oval-Copy" fill-opacity="0.8" fill="#46BAD4" filter="url(#filter-1)" cx="48.5" cy="113" rx="48.5" ry="113"></ellipse>
                    <g id="Fill-234">
                        <use fill="black" fill-opacity="1" filter="url(#filter-4)" xlink:href="#path-3"></use>
                        <use fill="url(#linearGradient-2)" fill-rule="evenodd" xlink:href="#path-3"></use>
                    </g>
                    <g id="Group-282" transform="translate(10.500000, 20.700000)">
                        <mask id="mask-6" fill="white">
                            <use xlink:href="#path-5"></use>
                        </mask>
                        <g id="Clip-236"></g>
                        <path d="M16.0165694,82.526836 C16.0165694,82.526836 17.009285,81.6312339 17.377139,81.1064288 C17.377139,81.1064288 20.1002402,86.1425963 22.1406041,87.7582114 C22.1406041,87.7582114 21.2911064,87.7278022 20.9232523,87.5885081 C20.9232523,87.5885081 21.7982546,88.8195931 22.651676,89.4856542 C22.651676,89.4856542 20.9791662,88.7058035 20.1434017,87.9259529 C20.1434017,87.9259529 19.94427,90.3655611 20.0835641,91.1012693 C20.0835641,91.1012693 20.8634147,92.0959467 21.5863706,92.3912109 C21.5863706,92.3912109 20.1434017,92.4647817 19.6892245,91.7977397 C19.6892245,91.7977397 18.2992266,94.6611158 22.5221914,98.1464106 C22.5221914,98.1464106 20.2395342,97.2684655 18.6543284,95.4958993 C18.6543284,95.4958993 18.0432002,96.9996868 17.7881547,97.8648796 C17.7881547,97.8648796 20.2993718,101.513992 22.2328129,103.109007 C22.2328129,103.109007 19.5764159,102.065283 18.3159026,100.469286 C18.3159026,100.469286 17.9970958,104.207665 18.1560087,105.819356 L16.0999497,101.693505 L16.0832736,97.7589376 L17.0946271,94.9759989 L17.0583322,87.4629472 L16.0165694,82.526836" id="Fill-235" fill="#DC1FFF" mask="url(#mask-6)"></path>
                        <path d="M15.953789,135.535099 C16.3451857,141.558096 12.3252764,146.693339 9.48936668,149.191804 C6.30129802,156.737227 7.40584119,169.455169 5.22618317,174.527631 C4.51990334,176.165808 2.63550952,180.079775 2.7483181,181.297127 C2.85818386,182.514479 6.78882729,184.591138 7.62164892,185.947784 L0.863924286,184.703946 L-0.575120864,176.232512 L4.297229,167.232349 L5.7372551,149.399764 L11.1108675,142.782315 L14.1557183,136.691632 L15.5918206,123.449866 L15.953789,135.535099" id="Fill-237" fill="#DC1FFF" mask="url(#mask-6)"></path>
                        <path d="M5.85006368,178.78591 C5.85006368,178.78591 3.3918175,178.763348 6.7358563,173.293603 C6.7358563,173.293603 5.29583021,177.924641 5.85006368,178.78591" id="Fill-238" fill="#A48F5E" mask="url(#mask-6)"></path>
                        <path d="M45.0221086,97.171352 L43.8008331,98.8536714 C43.8008331,98.8536714 42.5569958,98.2062482 42.325493,97.6225864 C42.325493,97.6225864 27.2817327,98.1012871 23.4374123,93.3172223 C23.4374123,93.3172223 38.3909258,96.9496587 43.6585962,96.1501891 L45.0221086,97.171352" id="Fill-239" fill="#F2F2F2" mask="url(#mask-6)"></path>
                        <path d="M44.7464633,100.68117 L42.9483926,99.9356528 C42.9483926,99.9356528 32.8682099,99.546218 28.7148922,98.4917029 C28.7148922,98.4917029 34.3072551,100.791036 35.6678247,102.757829 C35.6678247,102.757829 32.7279349,101.788656 30.9602735,101.899503 C30.9602735,101.899503 28.6050264,99.738483 26.1144091,99.4343903 C26.1144091,99.4343903 29.9351868,101.872037 31.5674779,104.668709 C31.5674779,104.668709 29.5741993,103.503347 28.4392468,103.062903 C28.4392468,103.062903 32.7024304,108.460058 34.3641498,109.680353 C34.3641498,109.680353 30.5728005,109.29288 28.6050264,109.014291 C28.6050264,109.014291 31.5115641,112.00519 32.5660791,112.585909 C32.5660791,112.585909 29.0199658,117.322889 27.7457193,118.762915 C27.7457193,118.762915 35.2793708,113.720862 37.9632341,109.680353 C37.9632341,109.680353 34.6692235,117.54262 32.8976383,120.311826 C32.8976383,120.311826 36.8851765,116.795141 38.4605728,114.358475 C37.6973983,118.64324 36.347619,121.651796 31.2820232,126.816467 C31.2820232,126.816467 42.5167771,121.260399 43.8008331,107.00728 C43.8008331,107.00728 48.8105152,121.044591 49.3372822,125.529468 C49.3372822,125.529468 44.9357855,123.731397 43.4133601,122.431646 C43.4133601,122.431646 49.0851795,130.515607 52.1339541,131.623093 C52.1339541,131.623093 52.312486,132.449048 52.1869251,132.80415 C52.1869251,132.80415 53.4474384,132.362725 54.1870703,131.145374 L51.9181464,114.845024 L47.9315891,106.160725 L44.7464633,100.68117" id="Fill-240" fill="#F2F2F2" mask="url(#mask-6)"></path>
                        <path d="M34.2748839,129.809328 L36.330943,127.818011 C36.330943,127.818011 43.1249625,137.361617 44.0068314,141.425669 C44.5473316,143.89961 43.4594645,144.815812 42.6001574,150.112911 C42.3980829,152.63688 50.2525031,177.38316 49.8218686,175.541927 C49.8218686,175.541927 48.3720331,180.74976 48.4416801,183.142283 L46.3120503,179.264611 L40.9482474,158.664782 L40.6000122,145.512282 L35.1332101,135.543927 L34.2748839,129.809328" id="Fill-241" fill="#DC1FFF" mask="url(#mask-6)"></path>
                        <path d="M47.4038412,147.585999 C47.4038412,147.585999 44.9387284,142.892181 48.040474,139.630541 C48.040474,139.630541 51.0725725,143.3699 50.4153399,149.482164 C50.4153399,149.482164 49.3343394,143.512137 48.0767689,142.181977 C48.0767689,142.181977 46.6406666,143.246301 47.4038412,147.585999" id="Fill-242" fill="#F2F2F2" mask="url(#mask-6)"></path>
                        <path d="M53.3807342,143.346358 C53.3807342,143.346358 53.4140863,156.465505 54.5225533,164.496496 C55.6300393,172.523562 54.8001605,172.384268 54.8001605,172.384268 C54.8001605,172.384268 53.278716,167.713012 53.1021461,165.846275 C53.1021461,165.846275 52.6479689,169.538549 53.0060135,171.034489 C53.0060135,171.034489 54.1674515,173.389736 56.355938,174.745401 C58.5454055,176.103028 61.5608279,180.282831 62.1150614,181.443288 C62.1150614,181.443288 58.9534782,181.271623 57.5742707,180.84295 C57.5742707,180.84295 65.3521773,184.723565 70.596305,182.793067 L68.6667878,178.912452 L56.2666721,165.842351 L56.953333,150.358147 L53.3807342,143.346358" id="Fill-243" fill="#F2F2F2" mask="url(#mask-6)"></path>
                        <path d="M22.9498831,183.234492 L22.5545626,186.272476 C22.5545626,186.272476 18.1599325,184.836374 16.9523902,183.950581 C16.9523902,183.950581 18.6209763,185.529901 19.2576091,185.938955 C19.2576091,185.938955 11.1932668,182.196653 10.0063243,179.433333 C10.0063243,179.433333 12.560703,181.045024 13.9928815,181.167642 C13.9928815,181.167642 11.3727796,178.723129 10.9813828,176.845602 C10.9813828,176.845602 11.4061317,177.376293 11.7239576,177.448883 C11.7239576,177.448883 10.4310731,175.516423 11.5621018,170.593064 C13.9438343,160.213693 24.1005306,146.719825 24.1005306,146.719825 L16.3353763,171.989928 L18.5307294,177.343922 L22.9498831,183.234492" id="Fill-244" fill="#F2F2F2" mask="url(#mask-6)"></path>
                        <path d="M17.7852118,186.137106 C17.7852118,186.137106 14.9620544,184.886402 14.2685269,184.435168 C14.2685269,184.435168 15.3603178,185.795737 16.0734642,186.249914 C16.0734642,186.249914 17.0151706,186.372532 17.7852118,186.137106" id="Fill-245" fill="#F2F2F2" mask="url(#mask-6)"></path>
                        <path d="M13.9173488,185.978193 C13.9173488,185.978193 12.2291438,184.628414 11.9338796,184.253693 C11.9338796,184.253693 12.1624396,186.488284 13.9173488,185.978193" id="Fill-246" fill="#F2F2F2" mask="url(#mask-6)"></path>
                        <path d="M71.6125632,1.79807073 C71.6125632,1.79807073 67.5220259,8.83928823 56.1008925,10.6206829 C56.1008925,10.6206829 63.1234721,8.24287416 65.0971318,6.03378781 C65.0971318,6.03378781 59.6175775,8.31938781 56.372614,8.47535793 C53.1286315,8.63132806 42.7728036,8.73334626 37.7601787,13.6665147 C37.7601787,13.6665147 42.8630504,14.0049404 44.2550103,17.7001572 C44.2550103,17.7001572 46.2924314,20.3173164 47.2047095,20.9205971 C48.1169876,21.5209349 49.2185879,22.310595 48.5544887,22.997256 C47.1046532,22.7353438 44.7435205,20.6292566 44.3521237,19.6532172 C44.3521237,19.6532172 44.3217145,21.0235962 45.7813595,21.8829033 C45.7813595,21.8829033 42.7600513,21.0235962 41.1807311,20.3800968 C41.1807311,20.3800968 42.3451119,21.4816972 47.1644908,22.9746942 C47.1644908,22.9746942 44.6934923,22.4763746 43.2603328,22.4567557 C41.8271734,22.433213 37.7974546,22.7255344 34.9742971,19.9425957 C34.9742971,19.9425957 34.2474175,19.6100556 33.8726968,20.1113181 C33.4979761,20.605714 29.2818779,25.176914 22.4084019,26.9180899 C22.4084019,26.9180899 27.0002017,26.5463121 30.4030971,24.9679729 C30.4030971,24.9679729 25.9819816,30.2846905 14.3116884,29.5352491 C14.3116884,29.5352491 19.4400647,36.2655073 31.2986992,35.602389 C31.2986992,35.602389 28.7443205,39.2348254 20.7908249,37.8850462 C20.7908249,37.8850462 30.2608602,41.7686043 33.7696977,34.5606262 C33.7696977,34.5606262 21.9110632,34.9353469 17.0318467,30.5338503 C20.594636,30.7859529 31.2790803,30.7761435 35.1371339,21.6406101 C37.9965862,22.8442287 38.967721,29.3233651 34.8781646,30.1826723 C34.8781646,30.1826723 38.1358803,30.8987615 39.0314824,28.7230273 C39.0314824,28.7230273 39.4120887,29.9698074 38.4340874,30.8987615 C38.4340874,30.8987615 47.5029165,34.0005071 46.8594171,39.2779869 C46.8594171,39.2779869 44.7827582,34.2918475 39.5916015,35.4336666 C39.5916015,35.4336666 43.9303177,35.5396086 44.9916994,38.4059275 C44.9916994,38.4059275 42.4971583,36.3685064 39.5092022,37.3867265 C36.5163414,38.4059275 37.6414844,40.1471035 34.2748839,40.2530455 C34.2748839,40.2530455 36.4574848,41.2487038 39.0108825,39.1122074 C41.5652613,36.972768 43.7645382,38.9464278 44.6375785,39.9646479 C44.6375785,39.9646479 42.9150405,38.9032662 41.5260235,38.9464278 C41.5260235,38.9464278 41.8536589,41.5400443 41.6280417,42.3493232 C41.6280417,42.3493232 40.1193495,43.039908 39.6641914,43.6402458 C39.6641914,43.6402458 40.6363071,43.5038946 41.6849364,43.6402458 C41.6849364,43.6402458 42.8954216,44.4230393 43.944051,45.8022468 C43.944051,45.8022468 43.8243758,46.204434 43.7184338,46.4290702 C43.7184338,46.4290702 44.3550666,46.5359931 45.1682693,46.4526128 L49.1283411,41.1947519 L49.6992506,37.3543553 L57.305492,33.0450674 L68.258715,20.5596096 L72.8524767,10.9296803 L73.2409306,4.82918832 L71.6125632,1.79807073" id="Fill-247" fill="#F2F2F2" mask="url(#mask-6)"></path>
                        <path d="M71.0848152,5.9337315 L64.8048104,9.14141905 C64.8048104,9.14141905 56.56586,12.8307502 48.6074597,11.8184158 C48.6074597,11.8184158 50.8999263,11.586913 52.1467064,10.3224759 C52.1467064,10.3224759 49.2715589,10.8865188 47.3596987,11.0856505 C45.4498003,11.2847821 42.1626563,12.4324869 41.7310408,13.1122812 C41.7310408,13.1122812 43.9901553,13.0789291 47.0654154,13.3810599 C50.1367517,13.6763241 62.9773114,11.9675193 66.7156897,9.77216617 C66.7156897,9.77216617 61.0870319,13.6763241 54.3724688,14.6749274 C54.3724688,14.6749274 64.7557632,14.7072965 72.3649474,6.66747776 L71.0848152,5.9337315" id="Fill-248" fill="url(#linearGradient-7)" mask="url(#mask-6)"></path>
                        <path d="M66.8451744,14.1569868 L60.8476815,15.5872034 C60.8476815,15.5872034 55.9488461,16.5485287 51.046087,15.7863351 C51.046087,15.7863351 54.1703943,17.4980827 64.3212049,16.2503217 C64.3212049,16.2503217 59.5842254,19.1264501 51.0961152,17.7962898 C51.0961152,17.7962898 63.1401481,21.3316127 68.9051572,14.521898 L66.8451744,14.1569868" id="Fill-249" fill="url(#linearGradient-8)" mask="url(#mask-6)"></path>
                        <path d="M64.9676472,20.4036395 L64.5860599,21.1658331 C63.0969866,22.2743001 52.9893375,22.9403612 51.0127349,20.6851705 C51.0127349,20.6851705 53.5033522,21.431669 57.2917588,21.3316127 L60.8977097,21.0667578 L64.9676472,20.4036395" id="Fill-250" fill="url(#linearGradient-9)" mask="url(#mask-6)"></path>
                        <path d="M36.3044575,7.3207866 C36.7919868,13.0661768 35.5147974,23.8300776 19.5862254,25.8037373 C19.5862254,25.8037373 30.2569365,23.5711083 34.5132534,13.2152803 C34.5132534,13.2152803 31.6842103,18.1474678 25.8956585,20.2476693 C25.8956585,20.2476693 31.1358625,16.8241741 32.4895655,13.2417658 C32.4895655,13.2417658 28.9571854,16.5652048 24.9333523,17.862013 C24.9333523,17.862013 34.3043122,11.6859883 36.3044575,7.3207866" id="Fill-251" fill="#F2F2F2" mask="url(#mask-6)"></path>
                        <path d="M35.9699555,-0.26583588 L34.0718285,1.23991348 C34.0718285,1.23991348 32.3335953,9.15515227 20.859491,14.4257655 C20.859491,14.4257655 25.5336901,13.1554427 29.6870079,9.5730345 C29.6870079,9.5730345 25.2747208,14.6082211 17.5125093,17.5412443 C17.5125093,17.5412443 22.3662213,17.669748 29.245583,12.3755921 L33.8923157,7.49637562 L35.9699555,-0.26583588" id="Fill-252" fill="#F2F2F2" mask="url(#mask-6)"></path>
                        <path d="M27.3611892,7.57975587 C27.3611892,7.57975587 10.2280177,19.3255818 6.75547518,22.9943131 C6.75547518,22.9943131 7.84334231,30.0698637 5.7706072,37.131681 C5.7706072,37.131681 6.2875648,32.666423 5.92265355,30.6927632 C5.92265355,30.6927632 5.12024119,38.116549 1.72028858,43.7491306 C1.72028858,43.7491306 -0.342637087,63.2012542 2.50896772,69.1055574 C5.36547724,75.0098606 4.74846334,75.4640377 4.74846334,75.4640377 L1.92628686,75.9191958 L-2.32316344,63.5230039 L-1.86898627,52.1352226 L0.151758792,38.0773112 L4.36687604,23.4347571 L8.82919123,17.106686 L19.5793588,10.9424326 L27.3611892,7.57975587" id="Fill-253" fill="#DC1FFF" mask="url(#mask-6)"></path>
                        <path d="M39.9133512,17.4676735 C39.9133512,17.4676735 41.269997,17.1292477 41.9635246,17.9983643 C41.4092911,18.4397892 39.8829419,18.6418637 39.9133512,17.4676735" id="Fill-254" fill="#F2F2F2" mask="url(#mask-6)"></path>
                        <path d="M37.0009279,16.525967 C37.0009279,16.525967 38.5831909,17.1890853 38.7852654,18.9135852 C38.9314261,20.1446702 39.1344815,20.5723619 39.6347631,20.9304065 C39.6347631,20.9304065 37.6012657,20.4458201 37.402134,18.6683492 C37.402134,18.6683492 36.6262072,19.3255818 35.4618264,18.6752158 C35.4618264,18.6752158 36.6860448,17.3156271 37.0009279,16.525967" id="Fill-255" fill="#F2F2F2" mask="url(#mask-6)"></path>
                        <path d="M33.255687,42.51216 C33.255687,42.51216 33.2694161,39.7890589 31.7097148,39.6026795 C30.1480516,39.4241476 30.2638031,42.4454558 30.2638031,42.4454558 C30.2638031,42.4454558 30.9936256,40.5522335 31.6734199,40.6179567 C32.357138,40.6846609 33.1036365,41.6960144 33.255687,42.51216" id="Fill-256" fill="#F2F2F2" mask="url(#mask-6)"></path>
                        <path d="M37.0705749,43.7530544 C37.0705749,43.7530544 37.2030024,45.4775543 38.8558934,46.44967 C38.8558934,46.44967 39.1070151,47.2324635 39.3296894,47.6307268 C39.3296894,47.6307268 40.2753196,47.8955818 40.9286285,48.2173315 C40.9286285,48.2173315 40.7657917,49.3189318 39.7838666,49.8535464 C39.7838666,49.8535464 37.684646,50.0487543 36.9381474,49.9153459 C36.9381474,49.9153459 36.6458261,51.4054001 36.80572,52.550162 C36.80572,52.550162 35.7570906,49.3316841 36.7125303,46.7282582 C36.7125303,46.7282582 35.1037818,48.4027299 35.5147974,52.0155474 C35.5147974,52.0155474 34.3209883,48.8539643 34.5593577,47.1127883 C34.5593577,47.1127883 33.1105031,52.3343543 37.8837777,58.5937593 C37.8837777,58.5937593 33.2821684,55.2065589 32.6190501,50.0781826 C32.6190501,50.0781826 30.7581989,57.3734647 43.838109,63.0482269 L44.4747418,61.904446 L41.0581131,56.3915395 L38.2418223,53.9058269 C38.2418223,53.9058269 37.9367486,52.7885315 38.0162051,51.9763097 C38.0162051,51.9763097 39.1707764,52.656104 39.3993364,52.9209589 L39.8633231,52.2813833 L39.5621732,52.1587653 C39.5621732,52.1587653 38.3075455,51.2455062 37.8965299,50.8217383 C37.8965299,50.8217383 40.1821299,51.3789146 40.955114,51.9262815 L41.446567,51.2729727 L41.1611122,51.0140034 L40.6500403,50.8344906 C40.6500403,50.8344906 40.812877,50.1478297 41.1071603,49.9261363 C41.1071603,49.9261363 41.569185,50.2979141 43.0445251,50.7354152 L44.9554044,49.1992566 L43.4192458,47.3521387 L43.4133601,46.7047155 C43.4133601,46.7047155 42.8522601,47.2157874 42.6796139,47.5806987 C42.6796139,47.5806987 39.8338947,47.0902266 39.8034855,45.9817596 C39.8034855,45.9817596 40.902143,45.7963612 41.5417186,45.8983794 C41.5417186,45.8983794 40.8589814,45.0361294 40.2056726,44.7241892 C40.2056726,44.7241892 38.8186175,44.8007028 38.282041,45.0125868 C38.282041,45.0125868 37.3589725,44.3828206 37.0705749,43.7530544" id="Fill-257" fill="#F2F2F2" mask="url(#mask-6)"></path>
                        <path d="M37.0901938,54.8347811 C37.0901938,54.8347811 37.0244705,57.0144391 38.9078834,58.7163773 C38.9078834,58.7163773 37.525733,55.7637352 37.0901938,54.8347811" id="Fill-258" fill="#212638" mask="url(#mask-6)"></path>
                        <path d="M26.3959401,45.4608783 C26.3959401,45.4608783 25.4767953,43.9051007 24.2927957,43.5343038 C23.108796,43.1586022 15.7379813,38.819886 13.9732626,35.5788463 C13.9732626,35.5788463 18.5974336,45.395155 26.3959401,45.4608783" id="Fill-259" fill="#F2F2F2" mask="url(#mask-6)"></path>
                        <path d="M21.5333996,49.6573576 C21.5333996,49.6573576 20.2660197,45.3814218 17.7950213,43.5343038 C17.7950213,43.5343038 19.4763596,48.5557572 19.3507988,50.2174767 C19.3507988,50.2174767 20.5975789,50.1586201 21.5333996,49.6573576" id="Fill-260" fill="#F2F2F2" mask="url(#mask-6)"></path>
                        <path d="M30.422716,45.5413157 C30.422716,45.5413157 30.6316571,51.004194 24.9823995,50.774653 C24.9823995,50.774653 29.6134371,47.5139945 30.422716,45.5413157" id="Fill-261" fill="#F2F2F2" mask="url(#mask-6)"></path>
                        <path d="M17.2113595,54.4499618 C17.2113595,54.4499618 20.3886377,54.3678516 21.1155174,56.9850108 C21.1155174,56.9850108 21.9875768,59.5590084 23.0460156,60.39183 C23.0460156,60.39183 25.2050738,61.201109 27.7398336,60.6802276 C30.2736125,60.1593462 32.848591,60.9293874 33.305711,61.4492879 C33.7598882,61.9672264 36.2750292,68.425763 35.5481495,70.7937624 C35.5481495,70.7937624 32.516051,72.1445225 30.2314319,70.8143622 C30.2314319,70.8143622 31.4978309,72.8900401 34.1581516,73.2019804 C34.1581516,73.2019804 32.4336516,74.0112594 31.3948317,73.8690224 C30.3569928,73.7228618 26.7206326,69.9844834 29.2357735,65.6653861 C29.2357735,65.6653861 27.7398336,66.3491042 27.3445131,67.636103 C27.3445131,67.636103 26.9501735,63.7947255 27.9880125,61.9270077 C27.9880125,61.9270077 25.1854549,64.3156068 26.2438937,69.0918242 C26.2438937,69.0918242 24.0838546,67.3045438 24.4154137,63.5259467 C24.4154137,63.5259467 21.5726374,62.1761675 21.3009159,60.4712865 C21.3009159,60.4712865 20.8869574,65.2475038 18.186418,68.7573222 C18.186418,68.7573222 19.5361972,68.6974846 20.2424771,67.7822636 C20.2424771,67.7822636 19.0388585,77.7692566 15.197481,81.4458355 C15.197481,81.4458355 15.4466408,78.7256772 15.2170999,77.604458 C15.2170999,77.604458 14.530439,79.431957 13.7839404,79.9724573 C13.7839404,79.9724573 13.4533622,82.1118966 13.6387607,83.1497356 C13.6387607,83.1497356 14.2822601,83.7510544 14.5108201,84.2513359 L16.2990814,86.1190537 L16.6865543,92.301945 L16.4609372,96.8535261 L16.6237739,101.377641 C16.6237739,101.377641 19.2713423,109.265413 19.7382717,111.707964 C19.7382717,111.707964 23.8915895,115.574846 24.621412,116.715684 C24.621412,116.715684 24.9892661,119.687945 24.8234865,121.264323 C24.8234865,121.264323 23.5963253,123.75494 18.1461993,123.211497 C18.1461993,123.211497 22.9734257,122.249191 23.390327,121.184866 C23.8052664,120.123485 23.0528822,117.810418 23.0528822,117.810418 C23.0528822,117.810418 21.2911064,118.743296 19.3145038,118.842371 C19.3145038,118.842371 21.3244585,117.247356 21.8551493,117.030567 C21.8551493,117.030567 17.7185076,118.325414 15.8910086,118.47746 C15.8910086,118.47746 15.6418487,115.021594 16.1234923,113.574701 C16.1234923,113.574701 17.7351837,115.502256 18.6504046,116.166356 C18.6504046,116.166356 18.5513293,112.220998 16.7836678,110.974218 C16.7836678,110.974218 15.4034793,105.199399 12.5440269,102.11433 C10.9087929,100.349611 12.2585722,96.9467158 12.2585722,96.9467158 C12.2585722,96.9467158 14.4578491,101.305051 15.0817296,103.401329 C15.0817296,103.401329 13.4827905,95.0515316 11.9868506,92.8100741 C11.9868506,92.8100741 12.3184098,87.9298767 9.70419346,86.0395972 C9.70419346,86.0395972 9.39225321,88.8853163 9.97297218,90.8354334 C9.97297218,90.8354334 7.62753458,87.5561369 8.87137183,82.9878798 C8.87137183,82.9878798 12.3184098,85.0213771 13.08747,87.5747749 C13.08747,87.5747749 11.9868506,82.2815999 11.1775717,80.6826609 C10.3682927,79.0837218 9.62179415,76.0947848 10.4938535,74.4723031 C10.4938535,74.4723031 11.0539727,77.6505624 11.8632517,78.3342805 C11.8632517,78.3342805 13.2336307,74.3899038 12.9020716,72.4388058 C12.9020716,72.4388058 12.7765107,72.9763632 12.1124115,73.8915842 C12.1124115,73.8915842 12.0927926,72.3132449 11.6346917,71.3578053 C11.1775717,70.4023656 10.4310731,69.2379848 10.679252,68.2236885 C10.679252,68.2236885 11.8436328,69.6558671 12.7765107,70.2993665 C13.7113505,70.9428659 13.9801293,71.7727447 13.9801293,71.7727447 C13.9801293,71.7727447 18.1766086,68.7838077 19.048668,62.783372 C19.048668,62.783372 16.0803308,66.1666485 14.0635095,67.4340285 C14.0635095,67.4340285 13.9173488,63.9869905 17.5723469,60.497772 C17.5723469,60.497772 15.0611298,61.2874321 13.5259521,62.9883893 C13.5259521,62.9883893 16.1195686,58.1091728 19.4439885,56.0952944 C19.4439885,56.0952944 18.0539905,54.6130877 17.2113595,54.4499618" id="Fill-262" fill="#F2F2F2" mask="url(#mask-6)"></path>
                        <path d="M39.8074092,63.2601109 L39.2433663,62.9118757 C39.2433663,62.9118757 37.4158673,61.9966547 35.3725605,62.3115378 C35.3725605,62.3115378 35.9532795,65.8841366 36.8518243,67.6792645 C36.8518243,67.6792645 36.6193406,64.2057411 37.7807785,64.0899897 C37.7807785,64.0899897 36.9518807,73.8091848 43.4790834,73.7434616 L43.5291116,67.4634568 L39.8074092,63.2601109" id="Fill-263" fill="#F2F2F2" mask="url(#mask-6)"></path>
                        <path d="M43.2770089,74.0612875 C43.2770089,74.0612875 41.6349083,74.9441373 40.8717337,74.9735656 C40.8717337,74.9735656 38.3507071,74.316333 37.4394099,73.3579505 C37.4394099,73.3579505 37.9701007,75.0696981 40.6363071,76.1879745 L42.6374333,75.7828446 L43.2770089,74.0612875" id="Fill-264" fill="#DC1FFF" mask="url(#mask-6)"></path>
                        <path d="M32.5798123,74.7705102 C32.5798123,74.7705102 26.3959401,75.4542283 25.165836,72.2632168 C25.165836,72.2632168 25.9182202,72.9439921 27.0600393,73.1195811 C27.0600393,73.1195811 25.026542,71.151807 24.4948702,69.4508497 C24.4948702,69.4508497 24.3094717,70.6044401 24.6017931,71.3117009 C24.6017931,71.3117009 23.2186618,69.9275886 23.2716328,67.987281 C23.2716328,67.987281 23.8984561,68.1069562 24.4026614,67.9078245 C24.4026614,67.9078245 22.1435469,67.389886 21.4902381,66.3353709 C21.4902381,66.3353709 21.7423408,67.2741345 22.4025162,67.7724542 C22.1337375,68.6709991 22.9959874,77.3719742 32.5798123,74.7705102" id="Fill-265" fill="#DC1FFF" mask="url(#mask-6)"></path>
                        <path d="M35.9160036,74.79111 C35.9160036,74.79111 38.6391047,76.7186654 39.8535136,77.1198715 C39.8535136,77.1198715 38.7097327,77.550506 38.2447651,78.4137369 C38.2447651,78.4137369 39.389527,78.6462207 39.8535136,79.1965304 L41.0473227,80.539443 L40.5539078,81.2565133 C40.5539078,81.2565133 38.7097327,81.8470417 37.737617,82.8054242 C37.737617,82.8054242 35.0076492,82.5072171 34.3543404,81.348722 C34.3543404,81.348722 32.4895655,81.5841486 31.7666096,82.1913531 C31.7666096,82.1913531 28.8443768,80.2873404 28.260715,79.0533126 C28.260715,79.0533126 28.8443768,81.8833366 30.0548619,83.7736161 C30.0548619,83.7736161 26.8040129,81.2663227 27.0031445,77.9889881 C27.0031445,77.9889881 25.4640431,76.9903869 25.0363514,76.0545661 C25.0363514,76.0545661 26.8040129,76.9472254 27.7064815,77.1492999 C27.7064815,77.1492999 26.6411761,76.5430763 26.3037313,75.9486242 C26.3037313,75.9486242 27.3876747,76.7981218 30.2039655,77.0335484 C30.2039655,77.0335484 34.5466055,76.1340226 35.9160036,74.79111" id="Fill-266" fill="#F2F2F2" mask="url(#mask-6)"></path>
                        <path d="M36.0955164,76.320402 C36.0955164,76.320402 33.8099164,78.1910626 31.3752128,78.7884576 C31.3752128,78.7884576 35.0969152,79.5016041 36.8812527,79.4348999 C36.8812527,79.4348999 37.1902501,78.0753112 36.0955164,76.320402" id="Fill-267" fill="url(#linearGradient-10)" mask="url(#mask-6)"></path>
                        <path d="M38.0220908,84.7722173 C38.0220908,84.7722173 40.304748,88.4674341 40.4509086,90.315533 C40.4509086,90.315533 40.3685093,93.3701932 38.5400293,95.0083701 C38.5400293,95.0083701 39.1236911,92.2891927 38.7264087,90.2125338 C38.7264087,90.2125338 38.2084702,92.8699117 35.3225323,94.0539114 C35.3225323,94.0539114 33.3488726,88.4880339 31.2722137,87.3893764 C31.2722137,87.3893764 35.8630326,87.4295951 37.6051895,88.3016545 C37.6051895,88.3016545 34.6162525,85.9964357 32.0187122,85.9768168 C32.0187122,85.9768168 35.4255315,85.040996 38.0220908,84.7722173" id="Fill-268" fill="#F2F2F2" mask="url(#mask-6)"></path>
                        <path d="M42.3814068,83.0271175 L39.6612486,85.0606149 C39.6612486,85.0606149 39.846647,86.5565548 40.6794686,87.2235969 C40.6794686,87.2235969 43.7743476,88.258493 45.9971672,88.2820357 C45.9971672,88.2820357 44.2922861,87.8033349 42.8591267,86.7027155 C42.8591267,86.7027155 44.8524053,87.2834345 47.284166,87.3462149 C47.284166,87.3462149 50.5654243,84.7290557 52.0378216,84.2111172 L42.3814068,83.0271175" id="Fill-269" fill="#F2F2F2" mask="url(#mask-6)"></path>
                        <path d="M15.8811991,52.7718554 C15.8811991,52.7718554 14.4813917,47.1765497 12.9050144,45.9150554 C12.9050144,45.9150554 14.2685269,50.5755213 13.737836,52.1018705 C13.737836,52.1018705 14.6403047,52.5962664 15.8811991,52.7718554" id="Fill-270" fill="#F2F2F2" mask="url(#mask-6)"></path>
                        <path d="M11.1138103,50.4529033 C11.1138103,50.4529033 14.1262899,53.8734558 12.4773227,57.4352642 C12.4773227,57.4352642 11.910337,57.754071 10.7057375,57.3989692 C10.7057375,57.3989692 10.9715734,60.7665507 10.6194144,62.3586231 C10.6194144,62.3586231 9.99945767,62.9089328 8.93513321,62.9658276 C8.93513321,62.9658276 9.35988205,65.3210746 9.16369321,66.7365771 C9.16369321,66.7365771 8.59670746,67.3408388 7.90612274,67.4801328 C7.90612274,67.4801328 7.81685681,69.0055011 7.65794385,70.2101006 C7.65794385,70.2101006 7.03798711,70.8143622 6.41704943,70.9899512 C6.41704943,70.9899512 6.68582814,73.8091848 6.55928634,74.3035807 C6.55928634,74.3035807 5.74412171,74.4458176 5.23304978,74.2869047 C5.23304978,74.2869047 5.5508757,74.1044491 5.86968257,73.8915842 C5.86968257,73.8915842 5.70782677,71.0958932 5.17713596,70.1041586 C5.17713596,70.1041586 5.99230059,70.2924999 6.50042969,70.289557 C6.50042969,70.289557 6.81236995,67.3575148 5.80003553,65.3740456 C5.80003553,65.3740456 6.80550334,66.7709102 7.76094299,66.7866053 C8.18176806,64.5245479 6.85455055,62.1359488 5.83338763,59.75814 C5.83338763,59.75814 7.24594729,62.0996539 9.07442728,62.2752429 C10.2083988,60.2319361 8.19550128,54.7955433 7.89337046,52.2117363 C7.89337046,52.2117363 9.80719261,56.858469 11.4787215,56.7888219 C11.9927363,56.2345885 12.2487627,52.1548415 11.1138103,50.4529033" id="Fill-271" fill="#F2F2F2" mask="url(#mask-6)"></path>
                        <path d="M4.34333338,50.9835941 C4.34333338,50.9835941 5.29975398,53.359441 4.51990334,55.645041 C4.51990334,55.645041 1.47112875,51.7801208 2.83758403,46.4261274 C2.83758403,46.4261274 2.65905218,50.6991203 3.98921252,53.1799282 C3.98921252,53.1799282 4.3237145,51.8536916 4.34333338,50.9835941" id="Fill-272" fill="#DC1FFF" mask="url(#mask-6)"></path>
                        <path d="M2.1980084,55.4488522 C2.1980084,55.4488522 1.59767055,65.9577074 4.51990334,68.6513802 C4.51990334,68.6513802 4.92797613,64.8060789 4.39728531,62.484184 C4.39728531,62.484184 4.32763827,63.8839914 3.93526059,64.839431 C3.93526059,64.839431 2.21762729,58.5672738 2.1980084,55.4488522" id="Fill-273" fill="#DC1FFF" mask="url(#mask-6)"></path>
                        <path d="M5.66466523,81.6606623 C5.66466523,81.6606623 4.72590162,85.4686877 5.70096016,87.9328195 C5.70096016,87.9328195 5.64798918,84.8487309 7.08409149,83.2203636 C7.08409149,83.2203636 6.1521945,90.4342272 6.64953321,93.1484999 C6.64953321,93.1484999 9.27944462,102.174167 12.4076757,106.025354 C12.4076757,106.025354 14.6805234,107.905824 14.9855971,108.957397 C15.2867469,110.011912 15.2867469,111.839411 14.8198175,112.918449 C14.3479833,114.000431 14.0036719,119.840973 17.4605193,121.744985 C17.4605193,121.744985 17.148579,122.962337 16.1097591,123.250735 L13.5387044,122.076544 L11.7013959,114.503655 L11.9436891,110.91438 L6.80550334,101.101995 L3.83618523,91.4200762 L1.86644926,85.2205088 L3.59389201,82.5592072 L5.66466523,81.6606623" id="Fill-274" fill="#DC1FFF" mask="url(#mask-6)"></path>
                        <path d="M9.20391192,94.5747927 C9.20391192,94.5747927 8.29751947,91.7182832 7.74426694,90.6107972 C7.74426694,90.6107972 7.89925613,93.6890001 9.20391192,94.5747927 Z" id="Fill-275" fill="#DC1FFF" mask="url(#mask-6)"></path>
                        <path d="M56.4461849,80.5531763 L57.6929649,83.4028192 C57.6929649,83.4028192 58.8141842,83.3027629 59.6774151,83.2890296 C59.6774151,83.2890296 59.6067871,80.7218987 60.7113303,80.1843412 C61.8168544,79.643841 63.8601612,78.4529747 64.0720451,77.7172666 L61.279297,77.7466949 L57.762612,79.4613854 L56.4461849,80.5531763" id="Fill-276" fill="#DC1FFF" mask="url(#mask-6)"></path>
                        <path d="M65.0245419,83.1634688 C65.0245419,83.1634688 65.0510274,81.2231611 65.2501591,80.575738 L66.2477794,78.7452961 L66.2909409,79.1798544 C66.2909409,79.1798544 66.3213502,80.1313702 66.1585134,80.4138822 C65.9966576,80.6954132 65.1971881,82.0128212 65.0245419,83.1634688" id="Fill-277" fill="#DC1FFF" mask="url(#mask-6)"></path>
                        <path d="M67.3729224,79.4613854 C67.3729224,79.4613854 67.3395703,80.0950753 67.3660557,80.6689277 C67.3660557,80.6689277 67.9997457,79.1170739 67.9536413,78.4362987 C67.9104798,77.7565043 68.1449254,76.7117987 68.3077622,76.5391526 L67.5985395,76.5126671 L67.25619,77.2562228 L67.3729224,79.4613854" id="Fill-278" fill="#DC1FFF" mask="url(#mask-6)"></path>
                        <path d="M69.3897436,79.4780614 C69.3897436,79.4780614 69.207288,78.6354303 69.207288,78.4637651 C69.207288,78.2911189 69.2965539,77.1394904 69.2965539,77.1394904 L69.788007,75.6406077 L70.6698758,75.3247436 C70.6698758,75.3247436 69.594761,77.1031955 69.3897436,79.4780614" id="Fill-279" fill="#DC1FFF" mask="url(#mask-6)"></path>
                        <path d="M70.8130937,77.8300751 L70.8817598,78.2106815 C70.8817598,78.2106815 72.4120327,76.9168161 73.6519462,76.601933 L72.7465347,75.8789771 L71.757743,76.5587715 L70.8130937,77.8300751" id="Fill-280" fill="#DC1FFF" mask="url(#mask-6)"></path>
                        <path d="M70.8650837,78.8443715 C70.8650837,78.8443715 70.8690075,79.8959436 70.8758741,80.1912078 L71.5684207,82.3473232 L70.8856836,83.7971587 L69.7242456,85.0704243 L64.864648,88.9019924 C64.864648,88.9019924 55.5339067,92.003738 54.5951431,92.196003 C53.6534367,92.3882681 42.5471864,95.1584545 42.5471864,95.1584545 L41.1071603,95.0485888 L40.2713958,93.5094873 C40.2713958,93.5094873 52.2202772,88.7293462 54.7010851,87.2540061 C54.7010851,87.2540061 47.1811668,91.9036817 44.2226391,93.005282 C44.2226391,93.005282 55.7997426,89.5454918 59.1928286,86.6428779 C59.1928286,86.6428779 59.2987706,87.1873019 59.2261807,87.4089953 C59.2261807,87.4089953 60.7486061,86.9548181 62.5633529,86.9420659 C64.3771188,86.9283326 66.5636434,85.1842139 66.9010882,82.6622063 C66.9010882,82.6622063 67.1374957,84.2944975 66.7922034,85.3097747 L67.7545097,85.2930987 C67.7545097,85.2930987 68.8786717,82.0883539 68.8718051,80.6493088 C68.8718051,80.6493088 69.1337172,82.2178386 68.9983469,83.2694108 C68.9983469,83.2694108 70.1489945,82.7985575 70.3942305,82.5435121 C70.3942305,82.5435121 70.4609347,80.0519138 70.8650837,78.8443715" id="Fill-281" fill="#DC1FFF" mask="url(#mask-6)"></path>
                    </g>
                    <path d="M75.7432925,68.5661534 C82.9414611,68.5661534 88.7829838,74.4076762 88.7829838,81.6058448 C88.7829838,88.8030324 82.9414611,94.6455361 75.7432925,94.6455361 C68.5480667,94.6455361 62.7036012,88.8030324 62.7036012,81.6058448 C62.7036012,74.4076762 68.5480667,68.5661534 75.7432925,68.5661534" id="Fill-283" fill="#F2F2F2"></path>
                    <g id="Group-287" transform="translate(62.703601, 68.566153)">
                        <mask id="mask-12" fill="white">
                            <use xlink:href="#path-11"></use>
                        </mask>
                        <g id="Clip-285"></g>
                        <path d="M12.5021339,0.720013047 C19.8925675,0.720013047 25.8930032,6.74006764 25.8930032,14.1540439 C25.8930032,21.5709631 19.8925675,27.5919986 12.5021339,27.5919986 C5.10875742,27.5919986 -0.892659227,21.5709631 -0.892659227,14.1540439 C-0.892659227,6.74006764 5.10875742,0.720013047 12.5021339,0.720013047" id="Fill-284" fill="url(#linearGradient-13)" mask="url(#mask-12)"></path>
                        <path d="M3.0978218,2.62010197 L-3.04190798,12.9602348 L0.199131674,23.0404175 L5.86800824,27.409543 L20.1446702,27.1937353 L29.1870139,18.6722729 L25.3397507,17.8924223 C25.3397507,17.8924223 20.4497438,27.8009397 8.94326832,23.7771066 C8.94326832,23.7771066 16.2532645,25.896927 21.9191983,19.9259196 C21.9191983,19.9259196 14.0873397,24.0792374 7.81518248,20.5331241 C1.54204429,16.984068 2.66718729,9.58676772 2.66718729,7.94466712 C2.66718729,7.94466712 0.835764463,13.7822661 4.05326146,19.4580093 C4.05326146,19.4580093 -1.72842369,12.7444271 3.25771571,4.02383313 L3.0978218,2.62010197" id="Fill-286" fill="#DC1FFF" mask="url(#mask-12)"></path>
                    </g>
                    <path d="M93.3796884,42.5858462 C94.8030384,42.5858462 95.9576097,43.7404175 95.9576097,45.1637675 C95.9576097,46.5831938 94.8030384,47.7377651 93.3796884,47.7377651 C91.9602621,47.7377651 90.8056908,46.5831938 90.8056908,45.1637675 C90.8056908,43.7404175 91.9602621,42.5858462 93.3796884,42.5858462" id="Fill-288" fill="#F2F2F2"></path>
                    <g id="Group-291" transform="translate(90.805691, 42.585846)">
                        <mask id="mask-15" fill="white">
                            <use xlink:href="#path-14"></use>
                        </mask>
                        <g id="Clip-290"></g>
                        <path d="M2.87318558,-0.0823993133 C4.06699468,-0.0823993133 5.03911038,0.885792617 5.03911038,2.08058266 C5.03911038,3.27439176 4.06699468,4.24650747 2.87318558,4.24650747 C1.67839554,4.24650747 0.707260772,3.27439176 0.707260772,2.08058266 C0.707260772,0.885792617 1.67839554,-0.0823993133 2.87318558,-0.0823993133" id="Fill-289" fill="url(#linearGradient-16)" mask="url(#mask-15)"></path>
                    </g>
                    <path d="M86.0696921,54.3620814 C88.9781917,54.3620814 91.3432482,56.7232141 91.3432482,59.6326946 C91.3432482,62.5421751 88.9781917,64.9072316 86.0696921,64.9072316 C83.1602116,64.9072316 80.798098,62.5421751 80.798098,59.6326946 C80.798098,56.7232141 83.1602116,54.3620814 86.0696921,54.3620814" id="Fill-292" fill="#F2F2F2"></path>
                    <path d="M98.9426229,112.34275 C99.8156633,112.34275 100.525867,113.051973 100.525867,113.925014 C100.525867,114.79413 99.8156633,115.503353 98.9426229,115.503353 C98.0705635,115.503353 97.3642837,114.79413 97.3642837,113.925014 C97.3642837,113.051973 98.0705635,112.34275 98.9426229,112.34275" id="Fill-293" fill="#F2F2F2"></path>
                    <path d="M102.893866,58.5615035 C103.480471,58.5615035 103.958191,59.0392233 103.958191,59.6297517 C103.958191,60.2163564 103.480471,60.6940762 102.893866,60.6940762 C102.303338,60.6940762 101.825618,60.2163564 101.825618,59.6297517 C101.825618,59.0392233 102.303338,58.5615035 102.893866,58.5615035" id="Fill-294" fill="#F2F2F2"></path>
                    <path d="M74.1208108,48.6137483 C74.7083963,48.6137483 75.1861162,49.0914681 75.1861162,49.6780728 C75.1861162,50.2656584 74.7083963,50.7433782 74.1208108,50.7433782 C73.5342061,50.7433782 73.0564863,50.2656584 73.0564863,49.6780728 C73.0564863,49.0914681 73.5342061,48.6137483 74.1208108,48.6137483" id="Fill-295" fill="#F2F2F2"></path>
                    <path d="M68.3361828,62.34991 C68.9227874,62.34991 69.4005073,62.8276298 69.4005073,63.4142345 C69.4005073,64.0018201 68.9227874,64.4795399 68.3361828,64.4795399 C67.7456544,64.4795399 67.2679346,64.0018201 67.2679346,63.4142345 C67.2679346,62.8276298 67.7456544,62.34991 68.3361828,62.34991" id="Fill-296" fill="#F2F2F2"></path>
                    <path d="M116.411277,43.4186678 C116.997882,43.4186678 117.475602,43.8963876 117.475602,44.4829923 C117.475602,45.0735207 116.997882,45.5522214 116.411277,45.5522214 C115.823692,45.5522214 115.346953,45.0735207 115.346953,44.4829923 C115.346953,43.8963876 115.823692,43.4186678 116.411277,43.4186678" id="Fill-297" fill="#F2F2F2"></path>
                    <path d="M100.402268,30.8733724 C100.989853,30.8733724 101.467573,31.3510922 101.467573,31.9376968 C101.467573,32.5282252 100.989853,33.0059451 100.402268,33.0059451 C99.8156633,33.0059451 99.3379435,32.5282252 99.3379435,31.9376968 C99.3379435,31.3510922 99.8156633,30.8733724 100.402268,30.8733724" id="Fill-298" fill="#F2F2F2"></path>
                    <path d="M96.2528739,101.166853 C96.4019775,101.166853 96.5216526,101.289471 96.5216526,101.434651 C96.5216526,101.584735 96.4019775,101.70343 96.2528739,101.70343 C96.1037704,101.70343 95.9840952,101.584735 95.9840952,101.434651 C95.9840952,101.289471 96.1037704,101.166853 96.2528739,101.166853" id="Fill-299" fill="#F2F2F2"></path>
                    <path d="M85.2731654,112.631148 C85.422269,112.631148 85.5419442,112.753766 85.5419442,112.898946 C85.5419442,113.048049 85.422269,113.167725 85.2731654,113.167725 C85.1270048,113.167725 85.0043867,113.048049 85.0043867,112.898946 C85.0043867,112.753766 85.1270048,112.631148 85.2731654,112.631148" id="Fill-300" fill="#F2F2F2"></path>
                    <path d="M91.4393807,130.85513 C91.5855414,130.85513 91.7081594,130.977748 91.7081594,131.123908 C91.7081594,131.273012 91.5855414,131.392687 91.4393807,131.392687 C91.2902772,131.392687 91.170602,131.273012 91.170602,131.123908 C91.170602,130.977748 91.2902772,130.85513 91.4393807,130.85513" id="Fill-301" fill="#F2F2F2"></path>
                    <path d="M83.2730202,124.581991 C83.4221237,124.581991 83.5417989,124.704609 83.5417989,124.851751 C83.5417989,124.999874 83.4221237,125.119549 83.2730202,125.119549 C83.1239167,125.119549 83.0042415,124.999874 83.0042415,124.851751 C83.0042415,124.704609 83.1239167,124.581991 83.2730202,124.581991" id="Fill-302" fill="#F2F2F2"></path>
                    <path d="M72.1873697,120.203056 C72.3364733,120.203056 72.4551675,120.322732 72.4551675,120.472816 C72.4551675,120.62192 72.3364733,120.740614 72.1873697,120.740614 C72.0382662,120.740614 71.918591,120.62192 71.918591,120.472816 C71.918591,120.322732 72.0382662,120.203056 72.1873697,120.203056" id="Fill-303" fill="#F2F2F2"></path>
                    <path d="M75.2155445,112.793985 C75.364648,112.793985 75.4843232,112.916603 75.4843232,113.061783 C75.4843232,113.210886 75.364648,113.330561 75.2155445,113.330561 C75.066441,113.330561 74.9467658,113.210886 74.9467658,113.061783 C74.9467658,112.916603 75.066441,112.793985 75.2155445,112.793985" id="Fill-304" fill="#F2F2F2"></path>
                    <path d="M62.0198831,117.065997 C62.1660437,117.065997 62.2886618,117.188615 62.2886618,117.333795 C62.2886618,117.483879 62.1660437,117.603554 62.0198831,117.603554 C61.8707795,117.603554 61.7511043,117.483879 61.7511043,117.333795 C61.7511043,117.188615 61.8707795,117.065997 62.0198831,117.065997" id="Fill-305" fill="#F2F2F2"></path>
                    <path d="M67.805492,95.9227254 C67.9545955,95.9227254 68.0742707,96.0414197 68.0742707,96.1905232 C68.0742707,96.3406077 67.9545955,96.4593019 67.805492,96.4593019 C67.6593313,96.4593019 67.5396561,96.3406077 67.5396561,96.1905232 C67.5396561,96.0414197 67.6593313,95.9227254 67.805492,95.9227254" id="Fill-306" fill="#F2F2F2"></path>
                    <path d="M58.6660348,97.9228707 C58.8161193,97.9228707 58.9348135,98.0415649 58.9348135,98.1916494 C58.9348135,98.3407529 58.8161193,98.4604281 58.6660348,98.4604281 C58.5169313,98.4604281 58.3972561,98.3407529 58.3972561,98.1916494 C58.3972561,98.0415649 58.5169313,97.9228707 58.6660348,97.9228707" id="Fill-307" fill="#F2F2F2"></path>
                    <path d="M81.9193172,50.0096319 C82.0684207,50.0096319 82.1920197,50.1293071 82.1920197,50.2784106 C82.1920197,50.4245713 82.0684207,50.5471893 81.9193172,50.5471893 C81.7731565,50.5471893 81.6505385,50.4245713 81.6505385,50.2784106 C81.6505385,50.1293071 81.7731565,50.0096319 81.9193172,50.0096319" id="Fill-308" fill="#F2F2F2"></path>
                    <path d="M87.5450322,38.2736154 C87.6951167,38.2736154 87.8138109,38.3932906 87.8138109,38.5423942 C87.8138109,38.6924786 87.6951167,38.8111729 87.5450322,38.8111729 C87.3959287,38.8111729 87.2772345,38.6924786 87.2772345,38.5423942 C87.2772345,38.3932906 87.3959287,38.2736154 87.5450322,38.2736154" id="Fill-309" fill="#F2F2F2"></path>
                    <path d="M113.880441,28.8634177 C114.029545,28.8634177 114.14922,28.9860357 114.14922,29.1321964 C114.14922,29.2812999 114.029545,29.4009751 113.880441,29.4009751 C113.731338,29.4009751 113.611663,29.2812999 113.611663,29.1321964 C113.611663,28.9860357 113.731338,28.8634177 113.880441,28.8634177" id="Fill-310" fill="#F2F2F2"></path>
                    <path d="M107.175688,42.3837717 C107.325772,42.3837717 107.444466,42.5034469 107.444466,42.6525504 C107.444466,42.8016539 107.325772,42.9213291 107.175688,42.9213291 C107.026584,42.9213291 106.906909,42.8016539 106.906909,42.6525504 C106.906909,42.5034469 107.026584,42.3837717 107.175688,42.3837717" id="Fill-311" fill="#F2F2F2"></path>
                    <path d="M112.096104,57.1479629 C112.244226,57.1479629 112.367825,57.2676381 112.367825,57.4167416 C112.367825,57.5629023 112.244226,57.6825775 112.096104,57.6825775 C111.949943,57.6825775 111.827325,57.5629023 111.827325,57.4167416 C111.827325,57.2676381 111.949943,57.1479629 112.096104,57.1479629" id="Fill-312" fill="#F2F2F2"></path>
                    <path d="M118.31529,65.0426019 C118.464394,65.0426019 118.584069,65.1622771 118.584069,65.3113806 C118.584069,65.461465 118.464394,65.5801593 118.31529,65.5801593 C118.169129,65.5801593 118.049454,65.461465 118.049454,65.3113806 C118.049454,65.1622771 118.169129,65.0426019 118.31529,65.0426019" id="Fill-313" fill="#F2F2F2"></path>
                    <path d="M96.4686817,70.1278166 C96.6177852,70.1278166 96.7374604,70.2474918 96.7374604,70.3965953 C96.7374604,70.542756 96.6177852,70.6624312 96.4686817,70.6624312 C96.3195781,70.6624312 96.1999029,70.542756 96.1999029,70.3965953 C96.1999029,70.2474918 96.3195781,70.1278166 96.4686817,70.1278166" id="Fill-314" fill="#F2F2F2"></path>
                    <path d="M96.2528739,79.6979083 C96.4019775,79.6979083 96.5216526,79.8175835 96.5216526,79.966687 C96.5216526,80.1167715 96.4019775,80.2354657 96.2528739,80.2354657 C96.1037704,80.2354657 95.9840952,80.1167715 95.9840952,79.966687 C95.9840952,79.8175835 96.1037704,79.6979083 96.2528739,79.6979083" id="Fill-315" fill="#F2F2F2"></path>
                    <path d="M94.4116417,92.3000985 C94.5617261,92.3000985 94.6843441,92.4197737 94.6843441,92.5688772 C94.6843441,92.7140569 94.5617261,92.8376559 94.4116417,92.8376559 C94.265481,92.8376559 94.1428629,92.7140569 94.1428629,92.5688772 C94.1428629,92.4197737 94.265481,92.3000985 94.4116417,92.3000985" id="Fill-316" fill="#F2F2F2"></path>
                    <path d="M108.094832,85.1617675 C108.243936,85.1617675 108.363611,85.2814427 108.363611,85.4305462 C108.363611,85.575726 108.243936,85.698344 108.094832,85.698344 C107.945729,85.698344 107.826054,85.575726 107.826054,85.4305462 C107.826054,85.2814427 107.945729,85.1617675 108.094832,85.1617675" id="Fill-317" fill="#F2F2F2"></path>
                    <path d="M107.931996,69.4254606 C108.08208,69.4254606 108.200774,69.5441548 108.200774,69.6942393 C108.200774,69.839419 108.08208,69.9590942 107.931996,69.9590942 C107.783873,69.9590942 107.663217,69.839419 107.663217,69.6942393 C107.663217,69.5441548 107.783873,69.4254606 107.931996,69.4254606" id="Fill-318" fill="#F2F2F2"></path>
                    <path d="M117.611953,76.7227045 C117.761057,76.7227045 117.880732,76.8423797 117.880732,76.9914832 C117.880732,77.1405867 117.761057,77.2602619 117.611953,77.2602619 C117.465792,77.2602619 117.343174,77.1405867 117.343174,76.9914832 C117.343174,76.8423797 117.465792,76.7227045 117.611953,76.7227045" id="Fill-319" fill="#F2F2F2"></path>
                    <path d="M113.558692,98.5722557 C113.704852,98.5722557 113.82747,98.6919309 113.82747,98.8410345 C113.82747,98.9871951 113.704852,99.1098132 113.558692,99.1098132 C113.408607,99.1098132 113.289913,98.9871951 113.289913,98.8410345 C113.289913,98.6919309 113.408607,98.5722557 113.558692,98.5722557" id="Fill-320" fill="#F2F2F2"></path>
                    <path d="M110.635478,92.3530695 C110.785562,92.3530695 110.904257,92.4727447 110.904257,92.6218482 C110.904257,92.7709517 110.785562,92.8906269 110.635478,92.8906269 C110.490298,92.8906269 110.366699,92.7709517 110.366699,92.6218482 C110.366699,92.4727447 110.490298,92.3530695 110.635478,92.3530695" id="Fill-321" fill="#F2F2F2"></path>
                    <path d="M56.9915631,73.8603093 C57.1406666,73.8603093 57.2603418,73.9790036 57.2603418,74.1251643 C57.2603418,74.2742678 57.1406666,74.393943 56.9915631,74.393943 C56.8414786,74.393943 56.7227843,74.2742678 56.7227843,74.1251643 C56.7227843,73.9790036 56.8414786,73.8603093 56.9915631,73.8603093" id="Fill-322" fill="#F2F2F2"></path>
                    <path d="M76.4064108,52.3884216 C76.5555143,52.3884216 76.6751895,52.5080968 76.6751895,52.6572003 C76.6751895,52.8063038 76.5555143,52.925979 76.4064108,52.925979 C76.2573072,52.925979 76.1376321,52.8063038 76.1376321,52.6572003 C76.1376321,52.5080968 76.2573072,52.3884216 76.4064108,52.3884216" id="Fill-323" fill="#F2F2F2"></path>
                    <path d="M88.9487634,104.108705 C89.0978669,104.108705 89.2175421,104.22838 89.2175421,104.377484 C89.2175421,104.526587 89.0978669,104.646262 88.9487634,104.646262 C88.7996599,104.646262 88.6799847,104.526587 88.6799847,104.377484 C88.6799847,104.22838 88.7996599,104.108705 88.9487634,104.108705" id="Fill-324" fill="#F2F2F2"></path>
                </g>
            </g>
        </g>
    </g>
</svg>