<?xml version="1.0" encoding="UTF-8"?>
<svg width="218px" height="347px" viewBox="0 0 218 347" version="1.1" xmlns="http://www.w3.org/2000/svg" xmlns:xlink="http://www.w3.org/1999/xlink">
    <title>God Horus</title>
    <defs>
        <filter x="-61.9%" y="-26.5%" width="223.7%" height="153.1%" filterUnits="objectBoundingBox" id="filter-1">
            <feGaussianBlur stdDeviation="20" in="SourceGraphic"></feGaussianBlur>
        </filter>
        <linearGradient x1="55.994987%" y1="-149.13378%" x2="55.994987%" y2="100%" id="linearGradient-2">
            <stop stop-color="#7C71D2" offset="0%"></stop>
            <stop stop-color="#170D69" offset="100%"></stop>
        </linearGradient>
        <path d="M57.1943808,51.5194368 C57.1943808,51.5194368 55.9280149,44.2832788 60.4172174,35.3875595 C60.4172174,35.3875595 59.7271126,30.8019915 61.0322089,28.2632159 C61.0322089,28.2632159 61.8936663,27.4993469 63.4651806,27.2957269 C63.4651806,27.2957269 63.4417076,26.7507788 63.540294,26.1104942 C63.540294,26.1104942 65.7948713,24.2555519 69.0529174,23.4469571 C69.0529174,23.4469571 69.3029044,22.6795572 70.2077868,21.7038293 C72.5210464,20.1996312 85.682332,19.1921245 90.9132799,27.853622 C90.9132799,27.853622 90.4766829,31.2763201 90.1304569,32.2720568 C90.1304569,32.2720568 92.2864477,37.7756799 89.1551556,41.0230059 C89.1551556,41.0230059 88.4803082,39.1645327 87.8688377,38.5795667 C87.8688377,38.5795667 87.3970313,38.8785232 87.1423498,38.910302 C87.1423498,38.910302 86.2492038,53.0789536 92.7347812,57.4220609 C92.7347812,57.4220609 106.216473,57.9470001 104.065176,70.8221355 C104.065176,70.8221355 108.399457,80.063891 108.276224,87.4271644 C112.134004,89.2773987 113.030671,97.2056291 112.697355,115.028847 L113.308826,116.740196 C113.308826,116.740196 115.903761,117.747702 116,124.783771 C116,124.783771 115.963617,129.222215 109.709248,129.302251 C109.709248,129.302251 107.99807,130.463944 106.56622,129.930765 C105.129675,129.397587 105.403135,126.658723 105.443039,126.065518 C105.443039,126.065518 103.911428,122.400359 104.423139,120.764337 C104.934849,119.128316 106.998122,117.413436 107.07793,116.367089 C107.153043,115.324272 105.721193,109.102683 103.815189,105.548161 C101.910359,101.994817 101.818815,97.7152674 102.433806,95.8332543 C102.433806,95.8332543 100.250821,93.8947455 99.9773613,90.3814189 C99.9773613,90.3814189 97.0561521,87.9815285 95.9529232,81.7281603 C95.9529232,81.7281603 94.5081629,83.1440839 93.6467055,84.0362452 C93.6467055,84.0362452 93.5880231,86.9940307 92.3298727,88.5970963 C92.3298727,88.5970963 92.6948771,90.8745793 90.393354,93.6793556 C90.393354,93.6793556 90.8182144,95.5272359 92.8497986,97.1903282 C95.9611388,99.7420508 97.5878145,108.813142 97.5878145,133.070985 C97.5878145,133.070985 96.7427881,134.209138 96.0362522,134.488085 C96.0362522,134.488085 94.4013609,152.067665 93.2863956,157.612483 C93.2863956,157.612483 92.9965046,160.62441 91.0599859,162.101538 C91.0599859,162.101538 85.4241295,179.987136 87.7655567,198.460054 C87.7655567,198.460054 91.0834588,200.791679 91.9449163,202.332363 C92.8063737,203.871871 96.3061912,205.257193 97.9340406,205.412556 C97.9340406,205.412556 98.2427099,206.396523 98.0889621,207.167454 C98.0889621,207.167454 93.0798336,208.922352 90.6550774,208.67636 C88.2256266,208.429191 85.432345,207.844226 84.109644,206.49186 C82.7928113,205.134786 79.3516762,204.672227 77.8752273,204.54982 C77.8752273,204.54982 78.7965408,199.036781 80.0265236,196.203757 C80.0265236,196.203757 78.8599178,193.214192 80.9478371,188.593315 C83.0345827,183.972437 75.7955236,180.187225 77.5383904,167.120239 C78.3669857,160.899827 83.0662712,156.24717 83.0662712,156.24717 C83.0662712,156.24717 78.3669857,143.769859 77.9984603,133.17456 C77.9984603,133.17456 69.7160284,159.060186 63.7738499,159.925276 C63.7738499,159.925276 57.5511697,174.627106 54.1499386,175.52986 C54.1499386,175.52986 47.5575593,184.855182 46.5341385,187.236241 C46.5341385,187.236241 44.9790553,192.617456 44.0330952,194.220522 C44.0330952,194.220522 43.5014328,201.735628 44.3241599,203.172737 C44.3241599,203.172737 46.2489421,205.882177 46.8592389,206.418886 C46.8592389,206.418886 46.2043435,207.773606 45.3475807,208.1832 C45.3475807,208.1832 37.0721906,208.227926 35.5171073,208.1832 C35.5171073,208.1832 33.9608505,206.829657 34,205.596167 C34.0406585,204.366209 35.4337783,199.845375 35.7635734,198.368248 C36.0886738,196.88759 34.9408463,193.727362 34.6157459,192.987032 C34.6157459,192.987032 36.5405281,190.113991 38.013456,188.795757 C38.013456,188.795757 37.2036391,187.665843 42.0296786,182.022158 C44.7325893,178.857222 43.3394694,169.902653 43.5425105,168.629145 C43.7478988,167.355638 47.1890339,159.801692 48.5821538,158.730627 C49.9752736,157.664271 53.4950432,156.800357 54.5630626,155.160805 L56.6498083,149.03926 C56.6498083,149.03926 55.7895245,120.513638 59.7106815,114.902908 C59.7106815,114.902908 59.0640016,102.086622 60.2939844,99.6620152 C61.5204463,97.2385849 64.5519784,94.1972329 64.7984444,93.0072921 C64.7984444,93.0072921 60.7423179,88.6135742 60.6625098,87.0528804 C60.5791808,85.4921866 60.6625098,83.2323584 60.6625098,83.2323584 C60.6625098,83.2323584 56.2378579,80.2345551 55.4996335,76.1668645 C55.4996335,76.1668645 51.2416395,82.0424177 48.1291258,83.6419523 C48.1291258,83.6419523 52.3882934,94.6515525 48.4154958,101.182691 L50.9552695,109.150939 C50.9552695,109.150939 55.0513001,113.011479 55.8681589,114.487429 C56.6861913,115.969265 55.8294285,118.802289 56.0312959,119.868645 C56.0312959,119.868645 54.308381,119.746238 54.2567405,116.908506 L53.6546593,119.140086 C53.6546593,119.140086 54.5712781,121.977818 53.8647422,123.033582 C53.1535117,124.08346 51.0350775,123.583238 51.0350775,123.583238 C51.0350775,123.583238 47.9906353,123.977531 46.812293,123.558521 C45.6327771,123.137157 43.3793734,119.98046 43.3793734,118.929404 C43.3793734,117.879526 44.2161843,111.542591 44.1927113,109.782985 C44.1645438,108.019848 38.1519465,92.836628 38.2470119,87.9403337 C38.346772,83.0452164 40.2163928,80.83953 40.5414932,79.6578282 C40.8712883,78.4761264 45.1609707,67.4347473 45.9508356,66.5155151 C46.7371796,65.596283 48.6021058,64.8394759 48.9635893,64.6087851 C48.9635893,64.6087851 45.6010886,56.1756244 57.1943808,51.5194368" id="path-3"></path>
        <filter x="-12.2%" y="-4.3%" width="124.4%" height="110.6%" filterUnits="objectBoundingBox" id="filter-4">
            <feOffset dx="0" dy="2" in="SourceAlpha" result="shadowOffsetOuter1"></feOffset>
            <feGaussianBlur stdDeviation="3" in="shadowOffsetOuter1" result="shadowBlurOuter1"></feGaussianBlur>
            <feColorMatrix values="0 0 0 0 0   0 0 0 0 0   0 0 0 0 0  0 0 0 0.5 0" type="matrix" in="shadowBlurOuter1"></feColorMatrix>
        </filter>
        <path d="M36.654097,1.00280423 C35.7334276,1.97853746 35.480392,2.74594164 35.480392,2.74594164 C32.1826136,3.55454083 29.9005415,5.40949327 29.9005415,5.40949327 C29.8007528,6.04978142 29.8245121,6.59473254 29.8245121,6.59473254 C28.2338329,6.79835359 27.3618699,7.56222677 27.3618699,7.56222677 C26.0408579,10.1010164 26.7393786,14.6866094 26.7393786,14.6866094 C22.1954297,23.5823775 23.4772391,30.8185752 23.4772391,30.8185752 C11.7425653,35.4747883 15.1460721,43.9079953 15.1460721,43.9079953 C14.7801803,44.1386873 12.892511,44.8954985 12.0965775,45.8147357 C11.2970801,46.7339729 6.95508445,57.7754125 6.62126755,58.9571208 C6.29220249,60.1388291 4.39978141,62.3398196 4.29880477,67.2396717 C4.20257997,72.1359929 10.2885016,87.3192965 10.3170127,89.0824429 C10.3407719,90.8420583 9.49375604,97.1790278 9.49375604,98.228912 C9.49375604,99.2799733 11.7746402,102.436688 12.9685405,102.858054 C14.1648167,103.277066 17.2428224,102.882771 17.2428224,102.882771 C17.2428224,102.882771 19.3918429,103.382996 20.1069952,102.328404 C20.8221474,101.277343 19.8943502,98.4395951 19.8943502,98.4395951 L20.503774,96.2080025 C20.5560442,99.0457502 22.2999702,99.1681582 22.2999702,99.1681582 C22.095641,98.101796 22.9628522,95.2687563 22.1348437,93.786913 C21.3080232,92.3109546 17.1620411,88.4503937 17.1620411,88.4503937 L14.5912945,80.4821019 C18.6125408,73.9509273 14.3014322,62.9412667 14.3014322,62.9412667 C17.4519034,61.3417234 21.7618241,55.466138 21.7618241,55.466138 C22.5090513,59.5338509 26.9876624,62.5316706 26.9876624,62.5316706 C26.9876624,62.5316706 26.9033172,64.7915112 26.9876624,66.3522135 C27.0684437,67.9129159 31.1740352,72.3066579 31.1740352,72.3066579 C30.9245635,73.4966052 27.8560615,76.5379739 26.6146428,78.9614175 C25.3696602,81.3860381 26.0242264,94.2023941 26.0242264,94.2023941 C22.0588143,99.8131544 22.9260254,128.338933 22.9260254,128.338933 L20.8138317,134.460511 C19.7327876,136.100073 16.1700941,136.963991 14.7599849,138.030353 C13.3498758,139.101424 9.86677564,146.658942 9.66125847,147.928926 C9.45336538,149.20244 10.8634745,158.157058 8.12760146,161.322012 C3.24270788,166.965728 4.06240063,168.095648 4.06240063,168.095648 C2.5715102,169.413889 0.623254978,172.286946 0.623254978,172.286946 C0.952320037,173.02728 2.11414541,176.187525 1.78508035,177.668192 C1.45126345,179.145327 0.0411543323,183.661477 0,184.89615 C-0.0396269817,186.129647 1.53560864,187.483197 1.53560864,187.483197 C3.10965631,187.527923 11.4859658,187.483197 11.4859658,187.483197 C12.353177,187.073601 13.0208108,185.718874 13.0208108,185.718874 C12.3983195,185.185692 10.4500642,182.472707 10.4500642,182.472707 C9.61730393,181.035589 10.15545,173.520443 10.15545,173.520443 C11.1129462,171.917368 12.6869939,166.536123 12.6869939,166.536123 C13.7228954,164.155051 20.3956696,154.829678 20.3956696,154.829678 C23.8383791,153.926919 30.1416975,139.225009 30.1416975,139.225009 C36.1515897,138.359913 44.5350269,112.474146 44.5350269,112.474146 C44.9080465,123.069503 49.6646404,135.546883 49.6646404,135.546883 C49.6646404,135.546883 44.9080465,140.199565 44.0693464,146.420011 C42.3052251,159.487068 49.6325654,163.272301 47.5203717,167.893204 C45.4069899,172.514107 46.5878227,175.503688 46.5878227,175.503688 C45.3428401,178.336728 44.4102911,183.849797 44.4102911,183.849797 C45.9011815,183.972205 49.3878456,184.434766 50.7207373,185.791848 C52.0595688,187.144221 54.8869147,187.72919 57.345993,187.97636 C59.8003194,188.222353 64.8705348,186.467446 64.8705348,186.467446 C65.0261576,185.69651 64.713724,184.712538 64.713724,184.712538 C63.0660228,184.557174 59.5235246,183.171845 58.6515616,181.632329 C57.7795986,180.091635 54.4212342,177.759998 54.4212342,177.759998 C52.051253,159.286978 57.7558394,141.401282 57.7558394,141.401282 C59.7159742,139.924147 60.0094004,136.912203 60.0094004,136.912203 C61.1379629,131.367355 62.7927919,113.787679 62.7927919,113.787679 C63.5079441,113.50873 64.3632757,112.37057 64.3632757,112.37057 C64.3632757,88.1125946 62.7167624,79.0379225 59.5674791,76.4897169 C57.5111195,74.8266155 57.0810778,72.9787251 57.0810778,72.9787251 C59.4106683,70.1739334 59.0412126,67.8964379 59.0412126,67.8964379 C60.3147063,66.2933635 60.3741043,63.3355618 60.3741043,63.3355618 C61.2460673,62.4433956 62.7084467,61.0274643 62.7084467,61.0274643 C63.8251296,67.2808668 66.7819632,69.6843013 66.7819632,69.6843013 C67.058758,73.1941161 69.2683646,75.1326356 69.2683646,75.1326356 C68.6458733,77.014659 68.7385342,81.294232 70.6665941,84.8475959 C72.5958419,88.4021367 74.0499056,94.6237602 73.9643724,95.6665824 C73.888343,96.7129357 71.7999084,98.4278251 71.2819576,100.063855 C70.7640068,101.699886 72.3142953,105.365065 72.3142953,105.365065 C72.2774685,105.958273 71.9971098,108.700683 73.4511735,109.230334 C74.9004853,109.763515 76.6325317,108.601815 76.6325317,108.601815 C82.9631732,108.521779 83,104.083311 83,104.083311 C82.9025872,97.0472037 80.2760066,96.0396915 80.2760066,96.0396915 L79.6570792,94.3283331 C79.9944599,76.5050179 79.0868581,68.5767441 75.1820319,66.7264996 C75.3067678,59.3631859 70.9196297,50.1213797 70.9196297,50.1213797 C73.0971613,37.2461737 59.4474951,36.7212316 59.4474951,36.7212316 C52.8863893,32.3781006 53.7904272,18.2093713 53.7904272,18.2093713 C54.0482146,18.1775923 54.5257748,17.8786342 54.5257748,17.8786342 C55.1447022,18.4636033 55.8313433,20.3220868 55.8313433,20.3220868 C58.9972581,17.074743 56.8149746,11.5710897 56.8149746,11.5710897 C57.165423,10.5753475 57.6073443,7.15263068 57.6073443,7.15263068 C54.1919579,1.56070237 47.4277108,0 42.4335248,0 C39.690524,0 37.4809175,0.46962311 36.654097,1.00280423" id="path-5"></path>
        <linearGradient x1="88.5359616%" y1="-14.0452954%" x2="11.891064%" y2="99.5067591%" id="linearGradient-7">
            <stop stop-color="#7C71D2" offset="0%"></stop>
            <stop stop-color="#170D69" offset="100%"></stop>
        </linearGradient>
        <linearGradient x1="55.4731108%" y1="-14.6833853%" x2="44.5875379%" y2="100%" id="linearGradient-8">
            <stop stop-color="#7C71D2" offset="0%"></stop>
            <stop stop-color="#170D69" offset="100%"></stop>
        </linearGradient>
    </defs>
    <g id="Platform" stroke="none" stroke-width="1" fill="none" fill-rule="evenodd">
        <g id="Calculator" transform="translate(-1087.000000, -254.000000)">
            <g id="Calculator-empty" transform="translate(810.000000, 240.000000)">
                <g id="God-Horus" transform="translate(314.000000, 74.300000)">
                    <ellipse id="Oval-Copy" fill-opacity="0.8" fill="#46BAD4" filter="url(#filter-1)" cx="72" cy="113" rx="48.5" ry="113"></ellipse>
                    <path d="M112.207342,121.355035 L161.45455,107.7 C161.63833,108.409257 161.820932,109.123422 162,109.832679 L112,123.7 C112.135479,123.196894 112.215588,122.517087 112.215588,121.766109 C112.215588,121.624994 112.215588,121.488787 112.207342,121.355035" id="Fill-219" fill="#DC1FFF"></path>
                    <g id="Fill-220">
                        <use fill="black" fill-opacity="1" filter="url(#filter-4)" xlink:href="#path-3"></use>
                        <use fill="url(#linearGradient-2)" fill-rule="evenodd" xlink:href="#path-3"></use>
                    </g>
                    <g id="Group-275" transform="translate(33.000000, 20.700000)">
                        <mask id="mask-6" fill="white">
                            <use xlink:href="#path-5"></use>
                        </mask>
                        <g id="Clip-222"></g>
                        <path d="M58.8214026,5.9446547 L57.6161348,6.88833602 C57.6161348,6.88833602 56.7142497,8.73194401 54.9813083,9.05241724 C54.9813083,9.05241724 56.378994,10.0717823 56.8535461,11.3631357 L58.0918673,12.4617321 L58.9736842,16.269569 L56.2550439,20.6473988 L55.8194476,20.0927791 C55.8194476,20.0927791 56.3423992,16.4374922 53.5718179,14.7180528 C53.5718179,14.7180528 55.3614222,15.2218225 55.9717292,15.7456958 C55.9717292,15.7456958 54.5339073,13.6182738 52.8304778,13.0944006 C52.8304778,13.0944006 53.5883446,10.7588485 53.3888438,9.54317883 C53.3888438,9.54317883 50.8578994,12.4510891 49.6762412,13.4822797 C49.6762412,13.4822797 50.9263672,9.98309042 51.0621221,9.20378467 C51.0621221,9.20378467 50.2027343,9.23571373 49.7081141,9.13992653 C47.8040034,8.77096842 47.2409155,6.76416743 42.9782102,3.69661186 C40.0801373,1.61412715 39.4934398,1.20141439 36.8869449,0.701192343 C36.8869449,0.701192343 35.7891005,-0.361927337 36.0924833,-0.546406392 C36.3958661,-0.734433121 41.3054732,-2.25402021 41.9641798,-2.17005858 C42.6228864,-2.08491441 53.7441676,1.04176906 53.7441676,1.04176906 L58.8214026,5.9446547" id="Fill-221" fill="#F2F2F2" mask="url(#mask-6)"></path>
                        <path d="M43.7012621,9.2749323 C43.0977834,9.2749323 42.805623,10.8769834 44.4340577,10.9120905 C45.5476197,10.9331547 45.7655426,10.3702719 45.8589381,10.1373952 C45.8589381,10.1373952 46.6935109,10.5575094 46.9605263,10.9120905 C46.9605263,10.9120905 46.1630723,12.1911569 44.2233191,12.1396666 C42.2871582,12.0881762 41.7890487,10.6441068 41.8261674,10.1678213 C41.8261674,10.1678213 40.8179748,13.3379868 46.89946,13.8692733 C46.89946,13.8692733 45.757161,14.8616322 44.2508588,15.2138728 C44.2508588,15.2138728 40.0360866,13.7815057 40.7569085,10.0660109 C40.3809316,9.97122188 39.5379772,10.9167714 39.6361622,12.3690325 C38.2950983,9.85185795 41.4573749,7.59213496 43.7012621,9.2749323" id="Fill-223" fill="#F2F2F2" mask="url(#mask-6)"></path>
                        <path d="M45.8684211,8.69364162 C45.8684211,8.69364162 44.0535666,5.95327885 40.4078947,6.62674774 C40.4078947,6.62674774 44.6478762,7.89143886 45.8684211,8.69364162" id="Fill-224" fill="#DC1FFF" mask="url(#mask-6)"></path>
                        <path d="M39.3157895,8.55049294 C39.3157895,8.55049294 36.1143795,8.38406809 34.9473684,7.60693642 C34.9473684,7.60693642 37.6016402,11.7892652 39.3157895,8.55049294" id="Fill-225" fill="#DC1FFF" mask="url(#mask-6)"></path>
                        <path d="M39.3157895,5.05199959 C39.3157895,5.05199959 37.1936291,3.34674238 35.1741166,2.89001655 L32.2446126,2.1734104 L28.7776484,3.49603533 L28.3947368,5.43352601 L29.7683744,5.42246727 C29.7683744,5.42246727 36.9675729,4.70033176 39.3157895,5.05199959" id="Fill-226" fill="#F2F2F2" mask="url(#mask-6)"></path>
                        <path d="M26.2658228,6.52023121 L29.4868421,7.02671795 C29.4868421,7.02671795 33.1628006,7.76948137 33.8552632,9.78034682 C33.8514929,9.58554423 26.9796499,7.61238251 26.2105263,8.02963709 L26.2658228,6.52023121" id="Fill-227" fill="#F2F2F2" mask="url(#mask-6)"></path>
                        <path d="M36.1371994,9.78034682 C36.1371994,9.78034682 38.3133357,13.5102852 40.9761514,14.0373546 L42.5921053,15.7791823 C39.7110077,17.1628883 34.186027,15.9445608 33.8552632,10.2836208 C33.8552632,10.2836208 34.7361863,9.90646276 36.1371994,9.78034682" id="Fill-228" fill="#F2F2F2" mask="url(#mask-6)"></path>
                        <path d="M54.6052632,17.3872832 C54.6052632,17.3872832 53.003869,14.6028311 46.9605263,15.3372382 C46.9605263,15.3372382 53.1081832,16.4262591 54.6052632,17.3872832" id="Fill-229" fill="#DC1FFF" mask="url(#mask-6)"></path>
                        <path d="M52.4210526,17.4194347 C52.4210526,17.4194347 46.2198761,16.9544975 43.6842105,19.5606936 C43.6842105,19.5606936 50.5906559,17.3888635 52.4210526,17.4194347" id="Fill-230" fill="#DC1FFF" mask="url(#mask-6)"></path>
                        <path d="M41.5,19.5606936 C41.5,19.5606936 42.3435506,22.1577557 43.6842105,22.7288719 C43.6842105,22.7288719 41.5451045,23.6653443 41.5,19.5606936" id="Fill-231" fill="#DC1FFF" mask="url(#mask-6)"></path>
                        <path d="M38.2236842,19.5606936 C38.2236842,19.5606936 38.9795148,23.6229697 41.5,22.6783497 C41.5,22.6783497 38.4861254,20.8587778 38.2236842,19.5606936" id="Fill-232" fill="#DC1FFF" mask="url(#mask-6)"></path>
                        <path d="M39.3157895,18.0377285 C39.3157895,18.0377285 32.027772,17.785617 31.7151688,15.2138728 C31.7151688,15.2138728 30.6222691,19.8965343 39.3157895,18.0377285" id="Fill-233" fill="#DC1FFF" mask="url(#mask-6)"></path>
                        <path d="M31.8895696,10.867052 C31.8895696,10.867052 23.9495667,20.5972407 46.8626227,37.3355661 C46.8626227,37.3355661 49.6965527,36.7459646 50.7463328,35.5126267 C50.7463328,35.5126267 51.398577,35.7632956 54.5181615,37.1084342 C54.5181615,37.1084342 50.6332612,28.1102456 52.2198335,22.05418 C52.2198335,22.05418 49.8405702,24.5761677 50.1797848,26.0378143 C50.1797848,26.0378143 48.3920641,20.6254851 53.7528456,19.0802822 L55.8785907,28.9787603 L63.1354035,33.8850444 L74.904366,41.6251812 L79.6688439,66.9909876 L87.3684211,105.410405 L82.8491299,104.439504 C82.8491299,104.439504 81.4315698,104.495993 80.8364564,104.244147 C80.8364564,104.244147 79.4641249,104.681935 78.6107323,104.359478 C78.6107323,104.359478 77.4466905,104.969086 76.4326172,104.896122 C75.4149733,104.825511 74.2080834,101.160802 76.021989,99.7921268 C76.021989,99.7921268 74.8436645,99.6556123 74.1390502,100.126352 C74.1390502,100.126352 75.8660693,97.1442163 77.2015038,96.4957724 C76.7908755,85.5487217 73.2011515,82.5124509 72.8869316,76.2633819 C72.8869316,76.2633819 74.521113,80.2081803 75.8613084,81.9581549 C75.8613084,81.9581549 75.9743799,70.2343838 72.6334133,68.9775089 C72.6334133,68.9775089 71.6395739,58.6177059 65.0623807,53.7067145 C65.0623807,53.7067145 68.2629005,55.0047791 69.3293437,56.2616539 C69.3293437,56.2616539 68.2831344,49.3100061 64.0209322,48.8169063 C64.0209322,48.8169063 58.9374736,56.9348117 51.8615753,52.875859 C51.8615753,52.875859 57.2390199,53.3254153 58.8684404,50.543344 C58.8684404,50.543344 51.4307132,49.9631573 50.5451844,43.2763005 C50.5451844,43.2763005 50.1833555,47.0457483 51.0248458,49.2664626 C51.0248458,49.2664626 47.5755686,44.5343523 48.8907692,41.3274383 C48.8907692,41.3274383 50.7022944,41.0803 52.1305665,41.2156377 C52.1305665,41.2156377 49.7727272,39.083187 46.0782633,38.8360487 C46.0782633,38.8360487 45.1677398,46.8856968 46.8269159,48.1437486 C47.2887239,51.2365081 38.3739252,54.1962837 36.1850981,50.1185014 C36.1850981,50.1185014 39.0666372,47.8295298 41.3566336,47.4953047 C41.3566336,47.4953047 38.0239985,46.4608543 35.8018451,46.5291115 C35.8018451,46.5291115 40.4270664,44.442558 42.5159145,44.419021 C42.5159145,44.419021 38.4786652,42.2901009 33.1012205,42.5807827 C33.1012205,42.5807827 38.8857227,39.3962289 43.0146195,39.3526855 C43.0146195,39.3526855 36.116065,37.2437718 31.0135627,39.2844282 C31.0135627,39.2844282 35.8470737,35.8986333 43.7144728,36.5282475 C43.7144728,36.5282475 40.4949094,34.418157 34.6425642,34.9995205 C34.6425642,34.9995205 31.0611718,31.1877061 30.0625715,26.3873385 C30.0625715,26.3873385 31.8300583,28.3373775 34.3497684,28.6998471 C34.3497684,28.6998471 25.3016643,16.8124939 31.8895696,10.867052" id="Fill-234" fill="#F2F2F2" mask="url(#mask-6)"></path>
                        <path d="M57.8815789,39.3317952 C59.0836352,38.5111909 67.8778061,39.9121326 64.9228461,46.7283237 C64.9228461,46.7283237 61.9234077,40.786951 57.8815789,39.3317952" id="Fill-235" fill="url(#linearGradient-7)" mask="url(#mask-6)"></path>
                        <path d="M69.8947368,53.2485549 C69.8947368,53.2485549 72.383969,59.4551153 72.8068911,61.9421965 C73.2533743,61.9154537 74.0226448,56.983634 69.8947368,53.2485549" id="Fill-236" fill="url(#linearGradient-8)" mask="url(#mask-6)"></path>
                        <path d="M66.6184211,57.5958866 C67.2727012,57.5123068 70.4572722,67.7113874 70.6676202,68.4624277 C71.9040262,66.0068319 69.3358238,58.610615 66.6184211,57.5958866" id="Fill-237" fill="#F2F2F2" mask="url(#mask-6)"></path>
                        <path d="M27.6781371,14.0127956 C27.6781371,14.0127956 28.8094833,11.9255629 29.4868421,11.5093125 C29.4868421,11.5093125 21.9260205,25.7706736 27.7481671,31.4689982 C27.7481671,31.4689982 25.8368319,30.8302692 23.5101466,31.5144509 L20.75,25.657042 L22.0153691,17.9277025 L25.0532207,15.3751784 L27.4463138,8.69364162 C27.4463138,8.69364162 27.1601568,12.0798626 27.6781371,14.0127956" id="Fill-238" fill="#DC1FFF" mask="url(#mask-6)"></path>
                        <path d="M21.8421053,31.5144509 C20.2541929,31.5794577 12.1765518,38.7986342 17.0288898,44.3378981 C17.0288898,44.3378981 16.3902728,45.3666022 15.7482039,46.7283237 C15.7482039,46.7283237 15.5456876,45.395114 15.6239325,44.7279389 C15.6239325,44.7279389 15.0244381,44.2489414 14.7839499,43.7893319 L12.3756162,42.8108085 L12.0131579,35.5756653 L21.8421053,31.5144509" id="Fill-239" fill="#DC1FFF" mask="url(#mask-6)"></path>
                        <path d="M27.4497778,44.5549133 C27.4497778,44.5549133 26.2594756,46.0903559 26.2105263,47.0962948 C26.2105263,47.0962948 26.9137239,56.4233419 34.9473684,53.9031877 C34.9473684,53.9031877 31.0875419,53.7593137 30.1909351,51.0988233 C30.1909351,51.0988233 31.0385927,51.7450772 33.8084032,51.6023825 C33.8084032,51.6023825 28.3225069,50.2379377 28.8072237,45.1775813 L27.4497778,44.5549133" id="Fill-240" fill="#DC1FFF" mask="url(#mask-6)"></path>
                        <path d="M30.5789474,37.0812912 C30.5789474,37.0812912 25.6774999,36.4844456 21.8421053,37.816471 C21.8421053,37.816471 24.1263331,37.9592677 25.192386,38.3553054 C25.192386,38.3553054 23.0902256,38.7814643 21.996623,39.4619798 C21.996623,39.4619798 25.0989566,39.2042764 25.9817442,39.4340898 C25.9817442,39.4340898 24.1550806,41.4455152 23.4543605,42.3815029 C23.4543605,42.3815029 27.8694962,41.3886196 30.5789474,37.0812912" id="Fill-241" fill="#F2F2F2" mask="url(#mask-6)"></path>
                        <path d="M43.6842105,55.1012674 C43.6842105,55.1012674 45.974693,54.0561777 46.6165315,53.2485549 C46.6165315,53.2485549 47.0706428,56.026448 46.9353533,58.6820809 C46.9353533,58.6820809 45.9222552,58.564523 45.5814096,58.4316826 C45.5814096,58.4316826 45.6348962,55.9077145 45.4964604,55.4316051 C45.4964604,55.4316051 44.6522121,55.3986889 43.6842105,55.1012674" id="Fill-242" fill="#F2F2F2" mask="url(#mask-6)"></path>
                        <path d="M48.0526316,53.2485549 C48.0526316,53.2485549 48.9571662,56.6610231 48.9374219,58.4219627 C48.9374219,58.4219627 53.6526018,59.7498654 55.6973684,60.8554913 C55.6973684,60.8554913 55.5172019,58.0672411 55.0174249,57.0744811 C55.0174249,57.0744811 51.0438894,54.3369054 48.0526316,53.2485549" id="Fill-243" fill="#F2F2F2" mask="url(#mask-6)"></path>
                        <path d="M55.7451669,62.2840391 C55.7451669,62.2840391 57.7708558,64.6664726 56.9649366,66.5384676 C56.9649366,66.5384676 58.3432279,68.7674207 58.4013121,70.3568724 L57.7333431,73.4032246 L58.9736842,76.0693642 C58.9736842,76.0693642 55.7451669,74.4020096 55.1558536,72.0044606 C55.1558536,72.0044606 53.7400496,69.601098 52.6558099,68.9755494 C52.6558099,68.9755494 55.0166934,69.0150822 55.9823444,69.7510902 C55.9823444,69.7510902 54.8981047,65.3269031 48.1300773,64.6664726 L48.0526316,61.9421965 C48.0526316,61.9421965 53.8380668,62.3038055 55.3325266,64.9106458 C55.3325266,64.9106458 55.7088643,63.2677086 55.7451669,62.2840391" id="Fill-244" fill="#F2F2F2" mask="url(#mask-6)"></path>
                        <path d="M42.5921053,62.6943582 C42.5921053,62.6943582 44.344983,61.9421965 45.430782,61.9421965 C45.430782,61.9421965 45.9141575,64.4097358 45.8648963,65.1046434 C45.8648963,65.1046434 45.1947387,65.9241628 44.7298361,66.2890173 C44.7298361,66.2890173 44.344983,63.8439306 44.1438331,63.2029093 C44.1438331,63.2029093 43.1442412,62.7134429 42.5921053,62.6943582" id="Fill-245" fill="#F2F2F2" mask="url(#mask-6)"></path>
                        <path d="M49.5018082,70.8778555 C49.5018082,70.8778555 48.9050884,69.3011838 48.1702946,67.3757225 C48.1702946,67.3757225 52.9896774,69.0923846 54.4544623,72.91958 C54.7630277,75.058586 56.4031066,75.8676831 57.3372072,76.9591337 C55.4738086,78.7564682 54.9215126,80.3817805 54.2395472,82.027261 C54.2395472,82.027261 58.8476167,77.593836 61.3209421,76.7515208 L64.0536066,78.673423 L64.4342105,83.1934523 C64.4342105,83.1934523 63.2984018,94.3025216 59.3722978,100.329227 C59.3722978,100.329227 60.5933522,91.4374637 58.4946275,86.275614 C58.4946275,86.275614 56.1689812,97.4273923 42.5921053,104.323699 C42.5921053,104.323699 54.7186039,96.0346064 55.6358955,85.1438271 C55.6358955,85.1438271 52.7867686,89.8607921 51.5356982,90.768357 C51.5356982,90.768357 49.7575452,89.5203069 49.1896409,88.4407199 L49.1896409,83.1851478 C49.1896409,83.1851478 50.0709132,80.7139612 51.1046672,79.6913194 C51.1046672,79.6913194 48.977127,80.7139612 47.9589814,81.7781256 L47.9589814,77.1489512 C47.9589814,77.1489512 48.7994318,75.9886917 49.5018082,75.7407426 L49.5018082,70.8778555" id="Fill-246" fill="#F2F2F2" mask="url(#mask-6)"></path>
                        <path d="M38.2236842,70.6358382 C38.2236842,70.6358382 38.3020145,73.5727877 42.5921053,76.0693642 C42.5921053,76.0693642 42.0823557,72.2708643 38.2236842,70.6358382" id="Fill-247" fill="#DC1FFF" mask="url(#mask-6)"></path>
                        <path d="M38.2311637,65.2023121 C38.2311637,65.2023121 37.9086042,67.5537396 41.5,67.3649318 C41.5,67.3649318 38.6308569,65.9257542 38.2311637,65.2023121" id="Fill-248" fill="#DC1FFF" mask="url(#mask-6)"></path>
                        <path d="M39.3157895,61.741101 C39.3157895,61.741101 37.8179111,63.3012744 35.9853465,62.9871098 C34.1565709,62.67827 31.961535,60.6867858 31.6710526,59.7687861 C31.6710526,59.7687861 35.2894519,62.0882795 39.3157895,61.741101" id="Fill-249" fill="#DC1FFF" mask="url(#mask-6)"></path>
                        <path d="M26.2105263,53.2485549 C26.2105263,53.2485549 28.3947368,54.5151332 28.3947368,54.9804277 C28.3947368,54.9804277 27.9971669,55.9374885 27.9026228,56.5086705 C27.9026228,56.5086705 26.3656756,54.2819769 26.2105263,53.2485549" id="Fill-250" fill="#DC1FFF" mask="url(#mask-6)"></path>
                        <path d="M21.8421053,55.4219653 C21.8421053,55.4219653 25.1690146,58.989799 27.1646492,59.5095276 C27.1646492,59.5095276 27.3026316,61.2879927 27.3026316,62.1529955 L24.2823498,63.0289017 L22.4374738,59.5846399 L21.8421053,55.4219653" id="Fill-251" fill="#DC1FFF" mask="url(#mask-6)"></path>
                        <path d="M26.2105263,68.2198179 L27.4368944,64.1156069 C27.4368944,64.1156069 28.33639,67.2643402 31.0074387,68.680413 C31.0074387,68.680413 31.0229473,67.1031891 31.3462408,66.152283 C31.3462408,66.152283 35.5049169,74.2406987 38.2236842,76.0693642 C38.2236842,76.0693642 34.2344091,74.522999 31.6731132,72.0108699 L28.30418,71.369694 L26.2105263,68.2198179" id="Fill-252" fill="#DC1FFF" mask="url(#mask-6)"></path>
                        <path d="M29.4868421,73.8959538 C29.4868421,73.8959538 27.1831631,77.9899983 26.8542441,79.0004787 C26.8542441,79.0004787 26.4493248,88.4028027 26.605063,89.6028221 C26.605063,89.6028221 27.5868364,92.043138 28.7579875,93.1566802 C28.7579875,93.1566802 27.0822448,93.1566802 26.4493248,92.7361404 L26.500407,94.0546217 C26.500407,94.0546217 24.1282032,97.763665 23.5339063,114.9596 L23.3744304,127.979751 L20.0503549,133.66474 L19.6578947,114.861276 L21.2501618,103.659516 L23.7830874,93.7857131 L24.1618426,82.5578907 L27.0099823,76.0874996 L29.4868421,73.8959538" id="Fill-253" fill="#DC1FFF" mask="url(#mask-6)"></path>
                        <path d="M20.75,135.506974 C20.75,135.506974 18.4320871,138.828449 15.4967124,140.093603 C15.4967124,140.093603 11.6703936,147.127385 10.8353616,148.972253 C10.8353616,148.972253 11.0833187,156.576246 9.41325455,159.745665 L5.46052632,152.713071 L11.8223281,136.233992 L20.0061286,134.751445 L20.75,135.506974" id="Fill-254" fill="#DC1FFF" mask="url(#mask-6)"></path>
                        <path d="M7.64473684,161.919075 C7.64473684,161.919075 4.47384154,168.014555 5.57199813,169.510494 C5.57199813,169.510494 3.46995825,169.77981 3.27631579,168.074534 L4.21522693,163.083367 L7.64473684,161.919075" id="Fill-255" fill="#DC1FFF" mask="url(#mask-6)"></path>
                        <path d="M1.34181741,167.352601 L4.36842105,168.182874 C4.36842105,168.182874 1.89673328,171.899222 0.752219292,174.959538 L-2.18421053,173.888369 L0.105973517,169.846928 L1.34181741,167.352601" id="Fill-256" fill="#DC1FFF" mask="url(#mask-6)"></path>
                        <path d="M0.143961248,179.754528 L2.06580116,177.877185 C2.06580116,177.877185 2.99438539,174.829078 3.27503503,173.872832 C3.27503503,173.872832 3.33726604,177.291803 2.5941546,180.062369 C1.84738253,182.83657 2.71861662,184.037634 2.71861662,184.037634 L1.53866792,184.590293 C1.53866792,184.590293 1.3519749,187.053018 2.15731734,188.439513 L-0.165973569,189.086705 L-2.18421053,185.820443 L0.143961248,179.754528" id="Fill-257" fill="#DC1FFF" mask="url(#mask-6)"></path>
                        <path d="M14.1973684,44.5549133 C14.1973684,44.5549133 13.2175054,45.0233631 12.7057453,46.3518029 C11.57672,49.2638829 9.38294263,53.4321541 8.97668755,55.9037513 C8.76446476,57.1879098 8.83843956,58.0945117 9.15738011,58.6655078 C8.53041333,58.8985674 6.1025845,60.1046509 4.36842105,64.1156069 L5.43802396,55.0402655 L10.4949901,45.2878858 L14.1973684,44.5549133" id="Fill-258" fill="#DC1FFF" mask="url(#mask-6)"></path>
                        <path d="M4.64394604,66.2890173 C4.64394604,66.2890173 9.19197298,81.6312842 12.0131579,87.2659158 C12.0131579,87.2659158 10.9510367,90.5401092 10.5273816,92.3699422 L6.70613196,87.4749068 L4.67258751,73.7244553 L3.27631579,68.6204289 L4.64394604,66.2890173" id="Fill-259" fill="#DC1FFF" mask="url(#mask-6)"></path>
                        <path d="M8.76128022,93.4566474 L9.86957038,94.6857436 C9.86957038,94.6857436 10.3482574,97.3847963 10.5876009,98.0754987 C10.5876009,98.0754987 12.6249684,101.795846 15.9533759,101.676597 C15.9533759,101.676597 14.3192375,100.482921 14.1353085,99.807568 C14.1353085,99.807568 17.2338048,101.959962 19.6578947,102.327156 L17.5403531,104.323699 C17.5403531,104.323699 14.227273,103.787667 13.5976698,103.696754 C12.9680667,103.601118 10.4520122,101.188973 10.0534994,100.578557 C9.65380751,99.9634188 7.64473684,94.8179806 7.64473684,94.8179806 L8.76128022,93.4566474" id="Fill-260" fill="#DC1FFF" mask="url(#mask-6)"></path>
                        <path d="M15.385892,81.4761528 L14.5339373,80.8478793 C14.5339373,80.8478793 11.8792465,72.4860007 11.5986694,68.4624277 C11.5986694,68.4624277 9.45969513,71.1197741 12.7823184,81.9232164 C16.1083495,92.7290431 16.9955184,95.1598772 16.7001741,96.4533814 C16.7001741,96.4533814 14.3340119,93.2476369 14.0148129,91.9827448 C12.8856889,92.2939011 17.0886654,102.49649 20.1488867,102.141223 L20.5759999,101.057541 L19.5161683,99.098806 C19.5161683,99.098806 19.1890177,96.4891465 19.4048462,95.3649304 C19.4048462,95.3649304 20.161382,95.9622074 20.1488867,96.8849468 L20.2374899,98.9772047 L21.2064464,100.050158 L22.3810079,99.96909 L22.9342105,94.5947887 L20.8906552,92.2939011 L18.5017743,84.2908656 L15.385892,81.4761528" id="Fill-261" fill="#F2F2F2" mask="url(#mask-6)"></path>
                        <path d="M15.1357212,78.2427746 C15.1357212,78.2427746 16.6816098,71.5691506 13.1052632,62.3135318 C13.1052632,62.3135318 18.5264616,58.7389959 20.75,56.5086705 L20.4510369,69.894093 L15.1357212,78.2427746" id="Fill-262" fill="#DC1FFF" mask="url(#mask-6)"></path>
                        <path d="M12.0131579,59.7687861 C12.0131579,59.7687861 13.5686005,52.478373 15.6513118,48.9017341 C15.6513118,48.9017341 15.6513118,51.2787473 16.3815789,52.2856422 C16.3815789,52.2856422 13.0202411,56.5504289 12.0131579,59.7687861" id="Fill-263" fill="#DC1FFF" mask="url(#mask-6)"></path>
                        <path d="M58.9736842,67.7325338 C58.9736842,67.7325338 59.9414495,64.6084016 59.5835589,63.1149083 C59.5835589,63.1149083 62.9835191,60.2546073 63.8514645,58.6820809 C63.8514645,58.6820809 65.6214402,67.146759 66.6184211,69.5491329 L62.5391992,67.146759 L58.9736842,67.7325338" id="Fill-264" fill="#DC1FFF" mask="url(#mask-6)"></path>
                        <path d="M66.6184211,70.6358382 C66.6184211,70.6358382 68.4347251,73.8382369 69.8947368,73.7961001 C69.8947368,73.7961001 68.8045048,76.4829424 68.4549562,78.2427746 L66.778022,71.9222507 L66.6184211,70.6358382" id="Fill-265" fill="#DC1FFF" mask="url(#mask-6)"></path>
                        <path d="M69.142951,79.3294798 C69.142951,79.3294798 72.6386365,85.1984546 73.332319,87.2372612 C73.332319,87.2372612 75.514158,94.0960156 74.5679039,95.8281299 C73.6216498,97.5602442 72.4263815,99.9998418 73.147337,102.660165 C73.147337,102.660165 72.7785588,106.226624 73.517301,107.011942 C74.2584148,107.798422 75.9030945,108.182949 76.7497428,108.159715 C76.7497428,108.159715 77.4066661,107.559109 77.570304,106.831877 C77.570304,106.831877 80.6142065,106.909712 83,105.401808 L80.3651923,111.930636 L72.3706498,111.773805 L67.7105263,95.831615 L69.0338591,86.1487359 L69.142951,79.3294798" id="Fill-266" fill="#DC1FFF" mask="url(#mask-6)"></path>
                        <path d="M48.0526316,83.7198803 L48.0526316,88.0231214 C48.0526316,88.0231214 42.9279814,83.7734122 38.9108698,83.0081483 C38.9108698,83.0081483 43.1131804,83.1395449 44.8019025,83.8013949 C44.8019025,83.8013949 41.0491867,80.3461489 34.9473684,79.3424243 C34.9473684,79.3424243 41.1844307,78.8642864 48.0526316,83.7198803" id="Fill-267" fill="#F2F2F2" mask="url(#mask-6)"></path>
                        <path d="M48.9101741,90.1965318 C48.9101741,90.1965318 50.5528571,91.917892 51.3289474,92.3110718 C51.3289474,92.3110718 44.9441794,98.2543197 40.4078947,99.9768786 C43.3597651,97.6873257 47.718764,93.6824061 48.9101741,90.1965318" id="Fill-268" fill="#F2F2F2" mask="url(#mask-6)"></path>
                        <path d="M45.1719718,116.277457 C45.1719718,116.277457 49.1625626,132.329669 51.3289474,134.821799 C51.3289474,134.821799 50.6423459,137.114464 51.0641795,139.005823 C51.0641795,139.005823 49.5541049,138.23052 49.3375786,137.512207 C49.3375786,137.512207 41.5751672,146.032228 47.1633405,163.00578 L41.5,157.494362 L43.7796965,141.000476 L44.3518644,125.113297 L45.1719718,116.277457" id="Fill-269" fill="#DC1FFF" mask="url(#mask-6)"></path>
                        <path d="M47.526551,165.179191 C47.526551,165.179191 48.33895,166.81968 47.9446475,168.311143 C47.5492121,169.799029 46.3617725,172.690154 46.9634237,174.205461 C46.9634237,174.205461 47.3815202,173.568817 47.8404067,173.238573 C47.8404067,173.238573 45.1924619,181.543552 46.0479169,184.611125 L42.5921053,184.739884 L42.9240898,174.051665 L47.526551,165.179191" id="Fill-270" fill="#DC1FFF" mask="url(#mask-6)"></path>
                        <path d="M65.5263158,184.497176 C65.5263158,184.497176 62.4178793,185.690815 60.2953629,185.82659 C60.2953629,185.82659 52.3356299,184.46766 50.2368421,178.691914 C50.2368421,178.691914 51.9263129,180.264541 54.2410303,180.616375 C54.2410303,180.616375 51.5169959,177.717876 51.1349667,176.088578 C51.1349667,176.088578 52.3356299,176.739116 52.962063,176.931563 C52.962063,176.931563 50.8229366,167.951529 55.3206781,163.00578 L65.5263158,184.497176" id="Fill-271" fill="#F2F2F2" mask="url(#mask-6)"></path>
                        <path d="M53.9180828,160.83237 C53.9180828,160.83237 52.214242,152.785342 55.796707,142.131956 C55.796707,142.131956 55.0809274,141.096856 56.0701776,139.394175 C56.0701776,139.394175 55.1487005,135.956248 54.2284125,135.421253 C54.2284125,135.421253 56.0012154,135.488709 56.6527889,135.822499 C56.6527889,135.822499 59.8607181,128.673333 61.9069917,122.797688 L65.5263158,135.889955 L59.9938864,151.69209 L53.9180828,160.83237" id="Fill-272" fill="#F2F2F2" mask="url(#mask-6)"></path>
                        <path d="M42.5921053,118.450867 C42.5921053,118.450867 34.9648421,134.982108 30.1237188,137.263782 C30.1237188,137.263782 22.7499544,152.865626 19.9274328,153.372141 L13.1052632,166.265896 L23.5949505,158.613984 L33.3652176,142.804822 L38.8858586,131.854671 L42.5921053,118.450867" id="Fill-273" fill="#F2F2F2" mask="url(#mask-6)"></path>
                        <path d="M15.2894737,166.265896 C15.2894737,166.265896 10.9964941,169.012566 9.20745325,173.775118 C9.20745325,173.775118 8.57518179,181.36488 9.45413493,182.863171 C9.45413493,182.863171 6.595741,182.18213 6.04489843,180.66015 C6.04489843,180.66015 6.26284049,182.642869 7.47349665,183.32391 C7.47349665,183.32391 5.55153509,182.943712 4.36842105,182.806319 C4.36842105,182.806319 5.00069252,185.145548 6.98013331,185.281756 C8.96077158,185.419149 12.7017111,185.502059 13.9123673,185.82659 L12.3736005,175.160889 L15.2894737,166.265896" id="Fill-274" fill="#F2F2F2" mask="url(#mask-6)"></path>
                    </g>
                    <path d="M6.27491789,139.251383 C11.571911,137.882076 17.8361087,138.95728 20.7555893,143.672459 C21.8145114,145.391832 22.2183074,147.496992 21.8871709,149.490227 C21.1784435,153.75413 17.4132545,157.153583 13.6706972,158.694351 C13.2073443,158.888436 12.7523293,159.040845 12.3092258,159.157534 C5.00992875,161.115048 3.12197415,157.145248 3.12197415,157.145248 C8.27364838,158.969403 14.519979,157.25003 17.9325909,153.034946 C19.3536192,151.278661 20.2243415,148.93536 19.7002405,146.671836 C18.8509587,142.992568 14.5771536,140.796914 10.3235978,140.845733 C6.44048615,140.889789 2.51330235,142.505571 0,145.423981 C0,145.423981 0.583657891,140.7219 6.27491789,139.251383" id="Fill-277" fill="#DC1FFF"></path>
                    <path d="M8.59755099,146.818828 C10.4645555,146.321019 12.3838449,147.433192 12.8816402,149.296979 C13.3783462,151.165124 12.266204,153.084466 10.3981102,153.581186 C8.53437347,154.078994 6.61617335,152.966822 6.11837809,151.099766 C5.6216721,149.231622 6.73381424,147.31228 8.59755099,146.818828" id="Fill-278" fill="#DC1FFF"></path>
                    <path d="M107.692465,121.7 C107.692465,122.607466 107.813325,123.409843 108,123.919211 L21.5552377,147.7 L21,145.546315 L107.692465,121.7" id="Fill-279" fill="#DC1FFF"></path>
                    <path d="M163.885807,116.7 L161.279277,116.482021 C161.737968,112.562112 160.669145,109.135133 158,106.006636 L160.127453,104.7 C163.141708,108.239684 164.407113,112.277253 163.885807,116.7" id="Fill-280" fill="#DC1FFF"></path>
                </g>
            </g>
        </g>
    </g>
</svg>