<?xml version="1.0" encoding="UTF-8"?>
<svg width="30px" height="30px" viewBox="0 0 30 30" version="1.1" xmlns="http://www.w3.org/2000/svg" xmlns:xlink="http://www.w3.org/1999/xlink">
  <title>instagram</title>
  <g id="Page-1" stroke="none" stroke-width="1" fill="none" fill-rule="evenodd">
    <g id="instagram">
      <path d="M30,15 C30,23.2843049 23.2842999,30 15.0000112,30 C6.71574493,30 0,23.2843049 0,15 C0,6.71571749 6.71574493,0 15.0000112,0 C23.2842999,0 30,6.71571749 30,15" id="Fill-3" fill="#FFFFFF"></path>
      <path d="M10.8237076,6.96710762 C8.6970917,6.96710762 6.96695588,8.69695067 6.96695588,10.823565 L6.96695588,19.1764574 C6.96695588,21.3026906 8.6970917,23.0329596 10.8237076,23.0329596 L19.1762251,23.0329596 C21.3026841,23.0329596 23.0329544,21.3026906 23.0329544,19.1764574 L23.0329544,10.823565 C23.0329544,8.69695067 21.3026841,6.96710762 19.1762251,6.96710762 L10.8237076,6.96710762 Z M19.1762251,24.694843 L10.8237076,24.694843 C7.78083541,24.694843 5.30511607,22.2192825 5.30511607,19.1764574 L5.30511607,10.823565 C5.30511607,7.78069507 7.78083541,5.30511211 10.8237076,5.30511211 L19.1762251,5.30511211 C22.2190525,5.30511211 24.6948391,7.78069507 24.6948391,10.823565 L24.6948391,19.1764574 C24.6948391,22.2192825 22.2190525,24.694843 19.1762251,24.694843 L19.1762251,24.694843 Z" id="Fill-4" fill="#170D69"></path>
      <path d="M15.0000112,11.6973318 C13.1787991,11.6973318 11.6972061,13.1786996 11.6972061,14.9997758 C11.6972061,16.820852 13.1787991,18.3026906 15.0000112,18.3026906 C16.8210664,18.3026906 18.3026818,16.820852 18.3026818,14.9997758 C18.3026818,13.1786996 16.8210664,11.6973318 15.0000112,11.6973318 Z M15.0000112,19.9647982 C12.2623634,19.9647982 10.0352093,17.7376682 10.0352093,14.9997758 C10.0352093,12.2625561 12.2623634,10.0352242 15.0000112,10.0352242 C17.7374348,10.0352242 19.9645665,12.2625561 19.9645665,14.9997758 C19.9645665,17.7376682 17.7374348,19.9647982 15.0000112,19.9647982 L15.0000112,19.9647982 Z" id="Fill-5" fill="#170D69"></path>
      <path d="M21.3708456,9.75143498 C21.3708456,10.4103587 20.8365402,10.9444843 20.1775711,10.9444843 C19.518602,10.9444843 18.9842967,10.4103587 18.9842967,9.75143498 C18.9842967,9.09237668 19.518602,8.55784753 20.1775711,8.55784753 C20.8365402,8.55784753 21.3708456,9.09237668 21.3708456,9.75143498" id="Fill-6" fill="#170D69"></path>
    </g>
  </g>
</svg>
