<?xml version="1.0" encoding="UTF-8"?>
<svg width="218px" height="347px" viewBox="0 0 218 347" version="1.1" xmlns="http://www.w3.org/2000/svg" xmlns:xlink="http://www.w3.org/1999/xlink">
    <title>God KHEPRI</title>
    <defs>
        <filter x="-61.9%" y="-26.5%" width="223.7%" height="153.1%" filterUnits="objectBoundingBox" id="filter-1">
            <feGaussianBlur stdDeviation="20" in="SourceGraphic"></feGaussianBlur>
        </filter>
        <linearGradient x1="55.994987%" y1="-149.13378%" x2="55.994987%" y2="100%" id="linearGradient-2">
            <stop stop-color="#7C71D2" offset="0%"></stop>
            <stop stop-color="#170D69" offset="100%"></stop>
        </linearGradient>
        <path d="M58.3638765,24.9413911 C58.3638765,24.9413911 56.4977383,23.4301464 56.3582026,20.7628175 C55.5464689,20.8316752 54.8730576,25.1165554 54.7505088,25.7543949 C54.7505088,25.7543949 53.7373584,25.5284934 53.4740606,25.0718583 C53.4740606,25.0718583 52.1199577,26.8814863 50.9260176,27.3151689 C50.9260176,27.3151689 51.4344128,28.801045 51.4962939,29.4268042 C51.4962939,29.4268042 50.3059938,30.2845051 48.6776729,29.377275 C48.6776729,29.377275 48.739554,33.6500749 45.8578387,33.7612136 C45.8578387,33.7612136 45.0133444,30.2059832 47.1876744,27.9916653 C49.3668579,25.7785555 49.5840482,23.4253143 48.3488541,22.7681463 C48.3488541,22.7681463 48.2226653,24.8882378 46.9692708,25.3859459 C46.9692708,25.3859459 45.8250781,23.3153836 44.0572216,23.2537741 C44.0572216,23.2537741 45.9536936,26.2279424 44.6359914,27.0892674 C44.6359914,27.0892674 43.3231425,25.9947928 41.4885515,26.4320994 C41.4885515,26.4320994 43.96258,28.4132676 43.4299177,30.2506802 C43.4299177,30.2506802 42.0551878,30.2228956 41.1281854,31.1711986 C41.1281854,31.1711986 43.3231425,32.3719798 43.4626782,33.6826917 C43.4626782,33.6826917 42.6776383,33.5884654 42.1947235,34.1659034 C42.1947235,34.1659034 44.7791671,35.3944693 45.2475217,36.8779294 C45.2475217,36.8779294 46.9547105,37.5967069 48.5502708,37.3599331 C48.5502708,37.3599331 48.8742363,38.0424697 49.2467359,38.302196 C49.2467359,38.302196 48.1522907,38.7286304 47.8404588,39.0052691 C47.8404588,39.0052691 46.2849392,37.7851595 41.2555876,38.6017873 C41.3902699,39.4268714 37.546365,42.8576748 36.4385729,45.0103832 C36.4385729,45.0103832 33.126117,46.3259271 33.1431039,48.8060114 C33.1564508,50.5830227 34.0130786,50.5830227 34.0130786,50.5830227 C34.0130786,50.5830227 33.6927532,47.9724712 36.4507065,47.7393215 C36.4507065,47.7393215 36.7006573,49.7857233 37.903091,50.7340263 C37.903091,50.7340263 38.4527403,48.1887084 38.23919,46.7257849 C39.9536589,45.6361424 41.0335439,42.0120542 42.6946252,40.4077912 C42.6946252,40.4077912 43.9055524,42.0205104 45.8954526,41.8211856 C45.8954526,41.8211856 46.1005094,45.2556131 46.5967711,47.6124784 C46.5967711,47.6124784 43.1872469,46.8453798 41.9484126,48.9038618 C42.4616613,50.6434241 41.5916866,54.2759685 45.6115278,61.3054914 C45.6115278,61.3054914 41.2750013,62.9931084 41.5662062,66.6486053 C41.8586245,70.3101424 42.7358793,70.8078505 42.7358793,70.8078505 C42.7358793,70.8078505 37.9516251,74.1939568 41.3575093,81.5762243 C41.3575093,81.5762243 38.8956144,85.0686372 39.6260534,90.3670541 C39.6260534,90.3670541 35.7287609,96.2296206 34.1611078,107.536776 C34.1611078,107.536776 30.8619987,109.031108 29.4217478,109.590426 C27.9814968,110.154575 25.0354737,113.810072 24.9942197,116.682766 C24.9942197,116.682766 26.020717,119.300566 26.709902,120.236788 L27.5301291,120.514635 C27.5301291,120.514635 28.1465129,121.993263 29.199704,123.173508 C29.199704,123.173508 34.3042835,122.066953 35.5467579,119.296942 C35.5467579,119.296942 34.8660664,118.614405 34.3164171,118.798025 C34.3164171,118.798025 37.8581969,117.467985 37.4432299,113.904298 C37.4432299,113.904298 43.0440711,105.922848 43.7781502,103.778596 C43.7781502,103.778596 41.5467925,111.40851 41.2349606,113.427127 C41.2349606,113.427127 41.4436574,115.089375 41.9035185,116.127072 C41.9035185,116.127072 38.8422268,126.404986 39.658814,132.315874 C40.4754011,138.226762 43.8024173,149.629351 45.3045493,150.993216 C45.3045493,150.993216 44.8459016,153.240151 45.2099077,154.670458 C45.5751272,156.099556 50.7585747,177.214702 49.0841465,191.259251 C49.0841465,191.259251 45.3785639,194.380799 42.0212139,195.945197 C40.2497173,196.773906 39.6394003,198.154683 39.6394003,198.154683 C39.6394003,198.154683 36.7698185,199.058289 34.7313841,198.971311 L34.230269,199.686464 C34.230269,199.686464 34.6294624,201.018921 36.6521232,201.002008 C36.6521232,201.002008 37.467497,201.635016 38.7233182,201.65072 C41.1767196,201.684545 43.7830036,200.753154 44.8531817,200.32068 C44.8531817,200.32068 48.1765578,200.303767 50.1300575,200.638392 C52.0823438,200.969392 56.1616393,200.369001 56.4613377,198.374544 C56.7610361,196.377672 55.7600192,193.518266 55.4603208,191.806489 C55.1569824,190.094711 56.890865,175.274607 57.6140239,172.856132 C57.6140239,172.856132 59.6730853,171.259117 59.5663102,168.435952 C59.459535,165.61762 58.7618566,160.613962 56.6773147,157.689323 C56.6773147,157.689323 56.6773147,151.062074 57.8554813,148.481723 C57.8554813,148.481723 60.0176778,154.976089 61.356007,156.0911 C61.356007,156.0911 61.9177899,161.708437 63.6820063,163.33082 C63.6820063,163.33082 66.8901138,182.271513 64.0071852,194.785489 C64.0071852,194.785489 61.8352818,202.77902 59.480162,203.923023 C59.480162,203.923023 57.264578,205.041659 55.903195,205.761644 C55.903195,205.761644 55.7296854,206.319754 55.7466723,206.847663 C55.7672993,207.377987 56.6215004,208.158374 57.0304007,208.261057 C57.4405143,208.363739 63.4805896,209.115134 65.5165973,208.383068 C65.5165973,208.383068 67.3621085,206.051571 68.83148,205.744732 C70.3044915,205.434268 71.9449459,204.482341 72.0966151,203.633096 C72.0966151,203.633096 70.7510057,198.715209 70.2595974,197.354968 C69.7669758,195.989894 70.1249151,192.905795 71.2933749,190.213098 C72.4618346,187.516776 78.0432622,170.95711 74.4311079,160.744429 C74.4311079,160.744429 73.7297893,153.394779 72.0274539,148.672592 C72.0274539,148.672592 73.7297893,134.171407 72.2616312,126.723906 C72.2616312,126.723906 74.4311079,121.188716 74.1981439,118.31723 C73.96518,115.449368 71.4292705,109.693108 71.4292705,109.693108 C71.4292705,109.693108 78.8756229,98.2881027 79.5114203,95.5265475 C80.1472177,92.7637844 79.7662246,92.0945361 79.7176905,91.2948206 C79.6630895,90.4938972 81.3909054,87.8374406 81.3047573,86.7308857 C81.2222492,85.6243308 80.5706782,80.8163738 80.5706782,80.8163738 C80.5706782,80.8163738 81.6117358,78.7699721 81.5959622,77.9364318 C81.5753352,77.1028915 81.1154741,73.8847013 81.1154741,73.8847013 C81.1154741,73.8847013 80.5003037,72.5401646 80.0744165,72.147555 C80.0744165,72.147555 80.2454994,62.4784879 75.1542667,61.0940863 C75.1542667,61.0940863 73.9566865,60.0720934 73.255368,59.3086188 C73.255368,59.3086188 74.9856105,54.051275 74.0877287,50.7304022 C74.0877287,50.7304022 75.3180695,50.4199387 75.1421332,49.2590225 C74.9613435,48.1029384 72.9095622,47.2162448 70.2256235,47.637847 C70.2256235,47.637847 70.8577808,42.8709631 70.8577808,41.6979666 C70.8577808,41.6979666 73.2505146,41.0722074 74.1411163,40.4609445 C74.1411163,40.4609445 77.3698508,45.6361424 78.6584326,46.7559856 C78.6584326,46.7559856 78.0262752,49.0995626 78.8465024,50.9949607 C78.8465024,50.9949607 80.6107189,49.4257305 80.5985853,47.6414711 C80.5985853,47.6414711 82.950065,48.5970224 82.8432899,50.1747087 C82.8432899,50.1747087 83.7909192,49.2433181 83.6647305,48.2140771 C83.4293398,46.362168 80.9395378,45.5576205 80.8861502,45.5709088 C80.8861502,45.5709088 77.1356735,40.9948935 75.8762123,39.821897 C75.8762123,39.821897 75.9453734,38.9243312 75.5886474,38.6380282 C75.2355614,38.3517252 72.483675,37.7102616 69.1069113,38.9774844 C69.1069113,38.9774844 68.6555437,38.4749442 68.1750555,38.2297143 C68.1750555,38.2297143 69.0280433,37.5556339 69.2161131,37.0241009 C69.2161131,37.0241009 75.2404149,36.4816958 73.6982421,32.6002974 C73.6982421,32.6002974 75.4709521,31.4043483 76.0861225,31.308914 C76.0861225,31.308914 73.8001639,29.9329685 73.6897487,29.2504319 C73.5781201,28.5691034 74.4808554,26.9056469 75.1664003,26.7594753 C75.1664003,26.7594753 74.7975407,25.9005665 72.2118837,26.1868694 C72.2118837,26.1868694 72.1584961,23.8179238 73.197127,23.3685369 C73.197127,23.3685369 70.7352321,23.1353872 69.7633357,25.0670262 C69.7633357,25.0670262 68.2029627,23.7768508 68.461407,22.8611646 C68.461407,22.8611646 67.2723203,23.8022194 67.6824339,25.3944022 C68.0937608,26.9877929 72.1584961,29.4545889 70.9123818,33.3226989 C70.9123818,33.3226989 68.3473518,32.7138521 68.3631254,29.3978115 C68.3631254,29.3978115 65.7786817,30.6070489 64.7194238,28.9194319 C64.7194238,28.9194319 65.5238774,27.9844171 65.7289342,27.4214754 C65.7289342,27.4214754 64.0071852,26.0165373 63.5958582,25.181789 C63.5958582,25.181789 62.9806878,25.8232526 62.418905,25.9996249 C62.418905,25.9996249 61.5804775,21.4236096 60.2433616,20.7 C60.2433616,20.7 60.0431582,24.0136246 58.3638765,24.9413911 M43.4682081,51.1277457 C43.4682081,51.1277457 46.572523,56.6041003 47.3814812,59.8213873 C47.3814812,59.8213873 50.0465765,59.7402984 51.0751445,57.6091456 C48.029144,55.8274744 47.7561827,54.761898 47.1631121,52.085965 C47.1631121,52.085965 45.4769555,52.2173061 43.4682081,51.1277457 M69.7592757,51.5573016 C69.7592757,51.5573016 69.1578726,54.3660275 68.4624277,55.3699067 C68.4624277,55.3699067 69.9937997,56.1471418 70.4651697,56.5612717 C70.4651697,56.5612717 72.3100143,51.9987236 72.8092486,51.1277457 C72.8092486,51.1277457 70.7798034,51.5300093 69.7592757,51.5573016" id="path-3"></path>
        <filter x="-12.2%" y="-2.7%" width="124.4%" height="107.4%" filterUnits="objectBoundingBox" id="filter-4">
            <feOffset dx="0" dy="2" in="SourceAlpha" result="shadowOffsetOuter1"></feOffset>
            <feGaussianBlur stdDeviation="2" in="shadowOffsetOuter1" result="shadowBlurOuter1"></feGaussianBlur>
            <feColorMatrix values="0 0 0 0 0   0 0 0 0 0   0 0 0 0 0  0 0 0 0.5 0" type="matrix" in="shadowBlurOuter1"></feColorMatrix>
        </filter>
        <path d="M33.3696569,4.24139114 C33.3696569,4.24139114 31.5035187,2.73014639 31.363983,0.0628175275 C30.5522493,0.131675202 29.8788379,4.4165554 29.7562892,5.05439491 C29.7562892,5.05439491 28.7431387,4.82849341 28.479841,4.37185831 C28.479841,4.37185831 27.1257381,6.18148631 25.9317979,6.61516886 C25.9317979,6.61516886 26.4401932,8.10104499 26.5020742,8.72680421 C26.5020742,8.72680421 25.3117741,9.58450506 23.6834533,8.677275 C23.6834533,8.677275 23.7453343,12.9500749 20.863619,13.0612136 C20.863619,13.0612136 20.0191247,9.50598315 22.1934548,7.29166531 C24.3726383,5.07855549 24.5898286,2.72169018 23.3546344,2.06814629 C23.3546344,2.06814629 23.2284456,4.18823784 21.9750511,4.68594595 C21.9750511,4.68594595 20.8308584,2.6153836 19.0630019,2.5537741 C19.0630019,2.5537741 20.959474,5.52794242 19.6417717,6.38926737 C19.6417717,6.38926737 18.3289229,5.29479275 16.4943319,5.73209939 C16.4943319,5.73209939 18.9683603,7.71326756 18.435698,9.55068024 C18.435698,9.55068024 17.0609681,9.52289557 16.1339658,10.4711986 C16.1339658,10.4711986 18.3289229,11.6719798 18.4684586,12.9826917 C18.4684586,12.9826917 17.6834186,12.8884654 17.2005038,13.4659034 C17.2005038,13.4659034 19.7849475,14.6944693 20.253302,16.1779294 C20.253302,16.1779294 21.9604909,16.8967069 23.5560511,16.6599331 C23.5560511,16.6599331 23.8800166,17.3424697 24.2525162,17.602196 C24.2525162,17.602196 23.1580711,18.0237983 22.8462391,18.3052691 C22.8462391,18.3052691 21.2907195,17.0851595 16.2613679,17.9017873 C16.3960502,18.7268714 12.5521453,22.1576748 11.4443533,24.3103832 C11.4443533,24.3103832 8.13189733,25.6259271 8.14888428,28.1060114 C8.16223117,29.8830227 9.01885897,29.8830227 9.01885897,29.8830227 C9.01885897,29.8830227 8.69853356,27.2724712 11.4564868,27.0393215 C11.4564868,27.0393215 11.7064377,29.0857233 12.9088713,30.0340263 C12.9088713,30.0340263 13.4585206,27.4887084 13.2401169,26.0257849 C14.9594393,24.9361424 16.0393242,21.3120542 17.7004056,19.7077912 C17.7004056,19.7077912 18.9113327,21.3205104 20.901233,21.1211856 C20.901233,21.1211856 21.1062898,24.5556131 21.6025515,26.9124784 C21.6025515,26.9124784 18.1930272,26.1453798 16.954193,28.2038618 C17.4674416,29.9434241 16.597467,33.5759685 20.6173082,40.6054914 C20.6173082,40.6054914 16.2807816,42.2931084 16.5719865,45.9486053 C16.8644048,49.6101424 17.7416596,50.1078505 17.7416596,50.1078505 C17.7416596,50.1078505 12.9622589,53.4939568 16.3632897,60.8762243 C16.3632897,60.8762243 13.9013948,64.3686372 14.6318338,69.6670541 C14.6318338,69.6670541 10.7345413,75.5296206 9.16688814,86.8367756 C9.16688814,86.8367756 5.86777909,88.3311079 4.4275281,88.8904255 C2.98727711,89.4545752 0.04125403,93.1100721 0,95.982766 C0,95.982766 1.02649733,98.6005656 1.71568231,99.5367884 L2.53590949,99.8146352 C2.53590949,99.8146352 3.15229323,101.293263 4.20548435,102.473508 C4.20548435,102.473508 9.31006389,101.366953 10.5525382,98.5969416 C10.5525382,98.5969416 9.87184671,97.914405 9.32219743,98.0980254 C9.32219743,98.0980254 12.8639772,96.7716092 12.4490102,93.2042984 C12.4490102,93.2042984 18.0498515,85.2228483 18.7839305,83.0785962 C18.7839305,83.0785962 16.5525729,90.7085097 16.2407409,92.7271268 C16.2407409,92.7271268 16.4494378,94.3893752 16.9092989,95.4270725 C16.9092989,95.4270725 13.8480072,105.704986 14.6645943,111.615874 C15.4811814,117.526762 18.8081976,128.929351 20.3103297,130.293216 C20.3103297,130.293216 19.8516819,132.540151 20.2156881,133.970458 C20.5809076,135.399556 25.7595017,156.514702 24.0899268,170.559251 C24.0899268,170.559251 20.3843442,173.680799 17.0269942,175.245197 C15.2554976,176.073906 14.6451807,177.454683 14.6451807,177.454683 C14.6451807,177.454683 11.7755989,178.358289 9.73716444,178.271311 L9.23604931,178.986464 C9.23604931,178.986464 9.63888278,180.318921 11.6579035,180.302008 C11.6579035,180.302008 12.4732773,180.935016 13.7290985,180.95072 C16.1824999,180.984545 18.788784,180.053154 19.858962,179.62068 C19.858962,179.62068 23.1823382,179.603767 25.1358378,179.933559 C27.0881241,180.269392 31.1637796,179.669001 31.4671181,177.674544 C31.7668165,175.677672 30.7657996,172.818266 30.4661012,171.106489 C30.1627627,169.394711 31.8966453,154.574607 32.6198042,152.156132 C32.6198042,152.156132 34.6788656,150.559117 34.5720905,147.735952 C34.4653154,144.91762 33.7676369,139.913962 31.683095,136.989323 C31.683095,136.989323 31.683095,130.362074 32.8612616,127.781723 C32.8612616,127.781723 35.0234581,134.276089 36.3617874,135.3911 C36.3617874,135.3911 36.9235702,141.008437 38.6877867,142.63082 C38.6877867,142.63082 41.8958942,161.571513 39.0153922,174.085489 C39.0153922,174.085489 36.8410622,182.07902 34.4859424,183.223023 C34.4859424,183.223023 32.2703583,184.341659 30.9089753,185.061644 C30.9089753,185.061644 30.7354657,185.619754 30.7524527,186.147663 C30.7694396,186.677987 31.6272808,187.458374 32.036181,187.561057 C32.4462946,187.663739 38.4827299,188.415134 40.5223777,187.683068 C40.5223777,187.683068 42.3678888,185.351571 43.8372603,185.041108 C45.3102718,184.734268 46.9507262,183.782341 47.1023954,182.933096 C47.1023954,182.933096 45.7567861,178.015209 45.2653778,176.654968 C44.7727561,175.289894 45.1306955,172.205795 46.2991552,169.513098 C47.4676149,166.816776 53.0490425,150.25711 49.4368882,140.044429 C49.4368882,140.044429 48.7355697,132.694779 47.0332343,127.972592 C47.0332343,127.972592 48.7355697,113.471407 47.2674116,106.023906 C47.2674116,106.023906 49.4368882,100.488716 49.2039243,97.6172297 C48.9709603,94.749368 46.4350508,88.993108 46.4350508,88.993108 C46.4350508,88.993108 53.8814033,77.5881027 54.5172007,74.8265475 C55.1529981,72.0637844 54.772005,71.3945361 54.7234708,70.5948206 C54.6688699,69.7938972 56.3966857,67.1374406 56.3105376,66.0308857 C56.2280296,64.9243308 55.5764585,60.1163738 55.5764585,60.1163738 C55.5764585,60.1163738 56.6175161,58.0699721 56.6017425,57.2364318 C56.5811155,56.4028915 56.1212544,53.1847013 56.1212544,53.1847013 C56.1212544,53.1847013 55.506084,51.8401646 55.0801968,51.447555 C55.0801968,51.447555 55.2476397,41.7784879 50.1600471,40.3940863 C50.1600471,40.3940863 48.9661069,39.3720934 48.2611483,38.6086188 C48.2611483,38.6086188 49.9913909,33.351275 49.0935091,30.0304022 C49.0935091,30.0304022 50.3238498,29.7199387 50.1479135,28.5590225 C49.9671238,27.4029384 47.9153425,26.5162448 45.2314038,26.937847 C45.2314038,26.937847 45.8635612,22.1709631 45.8635612,21.0015907 C45.8635612,21.0015907 48.2562949,20.3722074 49.1468966,19.7609445 C49.1468966,19.7609445 52.3756312,24.9361424 53.6642129,26.0559856 C53.6642129,26.0559856 53.0320556,28.3995626 53.8522828,30.2949607 C53.8522828,30.2949607 55.6164992,28.7257305 55.6043657,26.9414711 C55.6043657,26.9414711 57.9558454,27.8970224 57.8490703,29.4747087 C57.8490703,29.4747087 58.7966996,28.5469422 58.6705108,27.5140771 C58.4351202,25.662168 55.9453181,24.8576205 55.8919305,24.8709088 C55.8919305,24.8709088 52.1414539,20.2948935 50.8819926,19.121897 C50.8819926,19.121897 50.9511538,18.2243312 50.5944277,17.9380282 C50.2413418,17.6517252 47.4894553,17.0102616 44.1126916,18.2774844 C44.1126916,18.2774844 43.661324,17.7749442 43.1808359,17.5297143 C43.1808359,17.5297143 44.0338236,16.8556339 44.2218935,16.3241009 C44.2218935,16.3241009 50.2413418,15.7816958 48.7040225,11.9002974 C48.7040225,11.9002974 50.4767324,10.7043483 51.0919028,10.608914 C51.0919028,10.608914 48.8059442,9.23296852 48.695529,8.55043192 C48.5839005,7.86910335 49.4866357,6.2056469 50.1721806,6.05947535 C50.1721806,6.05947535 49.8033211,5.20056646 47.2176641,5.48686942 C47.2176641,5.48686942 47.1642765,3.11792382 48.2029074,2.66853689 C48.2029074,2.66853689 45.7410125,2.43538722 44.769116,4.36702619 C44.769116,4.36702619 43.208743,3.07685082 43.4671874,2.16116455 C43.4671874,2.16116455 42.2781006,3.10221944 42.6882142,4.69440215 C43.0995412,6.2877929 47.1642765,8.75458888 45.9181621,12.6226989 C45.9181621,12.6226989 43.3531321,12.0138521 43.3689057,8.6978115 C43.3689057,8.6978115 40.7844621,9.90704891 39.7252042,8.21943187 C39.7252042,8.21943187 40.5296578,7.28441713 40.7347146,6.72147544 C40.7347146,6.72147544 39.0129655,5.31653728 38.6016386,4.48178898 C38.6016386,4.48178898 37.9864682,5.12325258 37.4246853,5.29962487 C37.4246853,5.29962487 36.5862579,0.723609596 35.2491419,0 M18.8749321,30.3565702 C20.8393519,31.5090302 22.4882998,31.3701068 22.4882998,31.3701068 C23.0682829,34.2005196 23.3352207,35.3276111 26.3140044,37.2121369 C25.3081341,39.4699438 22.70185,39.5520898 22.70185,39.5520898 M47.5998705,30.4133476 C47.0781284,31.3000411 45.1501091,35.9449141 45.1501091,35.9449141 C44.6574875,35.5233118 43.0570738,34.7320526 43.0570738,34.7320526 C43.7838727,33.7100597 44.41239,30.8506542 44.41239,30.8506542 C45.478928,30.8228695 47.5998705,30.4133476 47.5998705,30.4133476" id="path-5"></path>
    </defs>
    <g id="Platform" stroke="none" stroke-width="1" fill="none" fill-rule="evenodd">
        <g id="Calculator" transform="translate(-1087.000000, -254.000000)">
            <g id="Calculator-empty" transform="translate(810.000000, 240.000000)">
                <g id="God-KHEPRI" transform="translate(323.000000, 74.300000)">
                    <ellipse id="Oval-Copy" fill-opacity="0.8" fill="#46BAD4" filter="url(#filter-1)" cx="63" cy="113" rx="48.5" ry="113"></ellipse>
                    <polygon id="Fill-146" fill="#DC1FFF" points="48.1580099 193.693431 46.7977688 194.003894 29.9747518 120.403496 31.3639855 120.216252"></polygon>
                    <g id="Fill-150">
                        <use fill="black" fill-opacity="1" filter="url(#filter-4)" xlink:href="#path-3"></use>
                        <use fill="url(#linearGradient-2)" fill-rule="evenodd" xlink:href="#path-3"></use>
                    </g>
                    <g id="Group-207" transform="translate(24.994220, 20.700000)">
                        <mask id="mask-6" fill="white">
                            <use xlink:href="#path-5"></use>
                        </mask>
                        <g id="Clip-152"></g>
                        <path d="M27.1676301,65.4975186 C27.1676301,65.4975186 28.1902466,67.2866939 28.4149307,67.7450106 C28.4149307,67.7450106 27.224712,73.2738176 34.9125534,71.4057422 C34.9125534,71.4057422 34.174132,73.9247433 30.3459999,74.7914838 C30.3459999,74.7914838 38.4273422,76.8788551 41.2947977,67.2588469 C41.2947977,67.2588469 39.4511732,69.23599 35.3692087,68.8832603 C35.3692087,68.8832603 38.9410794,67.5570427 40.3304776,64.1156069 C40.3304776,64.1156069 37.3525018,66.5243799 33.3810576,66.7448361 C33.3810576,66.7448361 31.5653668,65.7678674 27.1676301,65.4975186" id="Fill-151" fill="#F2F2F2" mask="url(#mask-6)"></path>
                        <path d="M38.0346821,79.3450243 C38.0346821,79.3450243 36.4935304,78.3324081 35.3288433,78.2427746 C35.3288433,78.2427746 31.4618467,82.3380563 30.4277457,84.7630058 C30.4277457,84.7630058 35.2453152,80.0766274 38.0346821,79.3450243" id="Fill-153" fill="#F2F2F2" mask="url(#mask-6)"></path>
                        <path d="M47.620746,89.9228498 L45.7102398,89.1098266 L43.4682081,92.4330294 C43.4682081,92.4330294 46.983104,97.326576 47.9317024,103.236994 L51.0751445,102.0222 L50.2608502,93.7592292 L47.620746,89.9228498" id="Fill-154" fill="#F2F2F2" mask="url(#mask-6)"></path>
                        <path d="M49.5736357,106.49711 L47.0894789,106.561251 C47.0894789,106.561251 46.521505,122.09558 44.5178518,128.280993 C44.5178518,128.280993 46.0876523,137.208754 43.4682081,139.500902 C43.4682081,139.500902 44.8875596,140.798254 46.659125,140.544108 C46.659125,140.544108 47.882543,149.761111 47.0649872,154.905738 C47.0649872,154.905738 49.4896642,149.900286 49.6809326,148.402039 C49.6809326,148.402039 49.3007283,159.738129 48.2359231,164.092486 L52.2397307,153.775397 L53.2485549,139.698168 L50.0623031,126.892875 L50.9218447,107.952999 L49.5736357,106.49711" id="Fill-155" fill="#F2F2F2" mask="url(#mask-6)"></path>
                        <path d="M47.3440165,167.352601 C47.3440165,167.352601 42.927197,175.759202 42.6338926,178.136241 C42.3763269,180.235475 41.0515276,182.261031 40.0607009,183.049754 C40.0607009,183.049754 42.960471,181.672811 43.6986616,180.746394 C43.6986616,180.746394 41.8809136,184.495544 38.0346821,185.82659 C38.0346821,185.82659 42.6647019,184.694839 44.9643071,182.75504 C44.9643071,182.75504 46.6230792,182.441 47.6816863,182.779197 L48.9017341,175.035703 L47.3440165,167.352601" id="Fill-156" fill="#F2F2F2" mask="url(#mask-6)"></path>
                        <path d="M57.8196259,29.3410405 C57.8196259,29.3410405 58.435495,26.261054 55.4300062,26.0275532 C55.4300062,26.0275532 51.651405,20.9807243 49.9884393,19.463587 C49.9884393,19.463587 50.4041807,19.409227 50.592396,19.2127898 L51.5310902,18.4739884 L54.3674235,21.9999737 L58.2746782,25.6309726 L58.6820809,27.7102414 L57.8196259,29.3410405" id="Fill-157" fill="#F2F2F2" mask="url(#mask-6)"></path>
                        <path d="M50.9520632,18.3037354 C50.9520632,18.3037354 46.2900176,18.0184465 45.4164823,18.4739884 C45.4164823,18.4739884 44.8780017,17.5721075 44.5549133,17.421794 L46.2373661,16.6901661 L50.7821427,16.300578 L52.1618497,17.835923 L50.9520632,18.3037354" id="Fill-158" fill="#F2F2F2" mask="url(#mask-6)"></path>
                        <path d="M53.2485549,30.4277457 C53.2485549,30.4277457 54.1583546,28.75613 54.1703257,27.2819399 C54.1703257,27.2819399 54.6438471,27.1294375 55.13333,27.1767251 L55.4219653,28.4794977 L54.8553357,30.099097 L53.2485549,30.4277457" id="Fill-159" fill="#F2F2F2" mask="url(#mask-6)"></path>
                        <path d="M45.6416185,16.0790312 C45.6416185,16.0790312 48.7276414,14.6537857 47.9970627,12.3542002 C47.9970627,12.3542002 48.5749284,12.0094401 48.8889062,11.9537572 L49.9884393,12.843499 L49.7770846,13.92043 L48.4063334,15.7792913 L45.8688553,16.300578 L45.6416185,16.0790312" id="Fill-160" fill="#F2F2F2" mask="url(#mask-6)"></path>
                        <path d="M51.0751445,10.867052 C51.0751445,10.867052 48.0746738,10.4055745 47.8150289,8.8533318 C47.8150289,8.8533318 48.8466226,6.8044256 49.7198679,6.52023121 L50.5395541,8.59755685 L51.0751445,10.867052" id="Fill-161" fill="#F2F2F2" mask="url(#mask-6)"></path>
                        <path d="M49.9884393,6.44840209 C49.9884393,6.44840209 47.9182506,6.24218297 46.7298517,6.52023121 C46.7298517,6.52023121 46.628417,3.95407767 48.0784712,3.26011561 L49.847814,4.89712462 L49.9884393,6.44840209" id="Fill-162" fill="#F2F2F2" mask="url(#mask-6)"></path>
                        <path d="M44.5549133,3.27848518 L44.5241499,3.92528747 C44.5241499,3.92528747 44.1865843,4.19696378 44.0119813,4.34682081 C44.0119813,4.34682081 43.1098662,3.24174604 43.6295178,2.1734104 L44.2564254,2.588176 L44.5549133,3.27848518" id="Fill-163" fill="#F2F2F2" mask="url(#mask-6)"></path>
                        <path d="M40.6282181,8.21581844 C40.6282181,8.21581844 42.7040426,10.8832689 42.3382795,13.0630049 C42.3382795,13.0630049 41.9855793,11.5435407 40.9132283,11.0366532 C40.9132283,11.0366532 41.4309969,13.3829551 41.197051,14.2301642 C41.197051,14.2301642 40.4358362,14.0635983 39.8681908,14.1283074 C39.8681908,14.1283074 37.8327428,16.352381 35.8732975,16.2996552 C33.9102896,16.2469293 33.4198345,14.9179973 33.3758954,14.3955317 C33.3758954,14.3955317 34.8211348,16.3775457 37.2627224,15.1336941 C37.2627224,15.1336941 34.8092593,14.9263855 34.5836262,11.2799113 C34.5836262,11.2799113 33.5647147,9.54954365 32.6004301,9.29070749 C32.6004301,9.29070749 32.5731166,14.4937936 30.6849238,14.5213549 C28.7979186,14.5489161 27.6851912,11.9809259 28.4084047,9.73648087 C28.4084047,9.73648087 25.8658759,10.2505582 24.9942197,11.9114236 C24.9942197,11.9114236 25.1961019,6.84734208 37.1938449,7.91144629 C37.1938449,7.91144629 34.2475517,5.70055409 30.0947152,6.91564606 C30.0947152,6.91564606 33.0540713,4.83297363 37.4634171,6.79461619 C37.4634171,6.79461619 36.2022468,5.06305022 35.1073325,4.76347133 C35.1073325,4.76347133 35.6286637,1.26678654 34.7570075,-0.434821541 L36.082305,-1.0867052 L40.4880881,4.47947054 L40.6282181,8.21581844" id="Fill-164" fill="#F2F2F2" mask="url(#mask-6)"></path>
                        <path d="M31.8384183,-1.0867052 L31.5412712,-0.343255909 C31.5412712,-0.343255909 31.1312084,5.36579855 33.5178932,4.18635137 L33.6878613,2.42115626 L31.8384183,-1.0867052" id="Fill-165" fill="#F2F2F2" mask="url(#mask-6)"></path>
                        <path d="M29.1695965,4.8094403 L29.3410405,5.56194798 C29.3410405,5.56194798 28.8784462,6.35350796 28.4148375,6.52023121 C28.4148375,6.52023121 28.1267305,5.05426815 28.3225215,4.34682081 L29.1695965,4.8094403" id="Fill-166" fill="#F2F2F2" mask="url(#mask-6)"></path>
                        <path d="M25.1615457,5.43352601 L25.6580379,6.69283225 C25.6580379,6.69283225 27.6330343,6.6224292 28.2543353,7.61034302 C28.2543353,7.61034302 26.88281,8.50173652 26.1956758,8.69364162 L24.9942197,7.80906131 L25.1615457,5.43352601" id="Fill-167" fill="#DC1FFF" mask="url(#mask-6)"></path>
                        <path d="M21.734104,4.93730968 C21.734104,4.93730968 21.9661659,5.2805474 22.0189072,5.43352601 C22.0189072,5.43352601 23.1370235,4.23797888 22.7326732,2.1734104 L22.248332,2.33795883 L21.9723191,3.85103299 L21.734104,4.93730968" id="Fill-168" fill="#DC1FFF" mask="url(#mask-6)"></path>
                        <path d="M18.4739884,2.1734104 L18.91302,2.25668733 C18.91302,2.25668733 21.7624446,4.65647021 20.1567388,6.52023121 C20.1567388,6.52023121 19.6822423,6.06396751 19.4535546,5.92556361 L19.2138605,3.5726973 L18.4739884,2.1734104" id="Fill-169" fill="#DC1FFF" mask="url(#mask-6)"></path>
                        <path d="M16.300578,5.4569776 L16.800578,5.43352601 C16.800578,5.43352601 19.3637979,6.2032899 19.5606936,9.67826344 C19.5606936,9.67826344 18.886475,9.78034682 18.6812261,9.78034682 L17.9903012,9.03817304 L16.300578,5.4569776" id="Fill-170" fill="#DC1FFF" mask="url(#mask-6)"></path>
                        <path d="M15.2138728,11.1254468 L15.9319959,10.8678638 C15.9319959,10.8678638 18.5719143,10.7625363 19.5606936,12.9514704 C19.5606936,12.9514704 19.1417885,13.0713977 18.5215913,13.0328124 L16.8296498,12.1724643 L15.2138728,11.1254468" id="Fill-171" fill="#DC1FFF" mask="url(#mask-6)"></path>
                        <path d="M17.3872832,13.4197435 L17.8097066,13.3698221 C17.8097066,13.3698221 19.9112334,13.4148731 21.2149801,15.190129 C21.2149801,15.190129 22.4092968,15.4981809 23.4835935,15.51888 C23.4835935,15.51888 22.8117168,13.5548967 23.8813069,11.9537572 C23.8813069,11.9537572 22.9717435,16.9264217 29.3410405,18.2864771 C29.3410405,18.2864771 26.9653504,19.0389518 24.6379036,17.529132 L22.6728702,16.9020698 L20.1183267,16.5721011 L17.5343666,14.9344337 L17.3872832,13.4197435" id="Fill-172" fill="#DC1FFF" mask="url(#mask-6)"></path>
                        <path d="M16.2120787,17.3872832 C16.8522973,18.4687609 13.8662973,21.068322 12.1670609,24.8534937 C12.1670609,24.8534937 8.58133037,25.366631 8.29664816,28.0954174 C8.13343037,29.6273017 8.55729054,29.8769699 8.55729054,29.8769699 L7.97906935,30.4277457 L6.52023121,28.8883338 L7.07694308,24.8585122 L10.4943948,20.1198335 L15.12396,18.0233728 L16.2120787,17.3872832" id="Fill-173" fill="#DC1FFF" mask="url(#mask-6)"></path>
                        <path d="M11.1471808,27.1676301 C11.1471808,27.1676301 12.3377281,27.2671857 12.7197218,28.0530116 C13.100124,28.8428198 13.0364583,30.4277457 13.0364583,30.4277457 L10.867052,29.9458963 L11.1471808,27.1676301" id="Fill-174" fill="#DC1FFF" mask="url(#mask-6)"></path>
                        <path d="M41.2947977,16.300578 C41.2947977,16.300578 40.4089456,19.512626 34.7745665,19.5606936 C34.7745665,19.5606936 40.0626988,17.2661717 41.2947977,16.300578" id="Fill-175" fill="#F2F2F2" mask="url(#mask-6)"></path>
                        <path d="M23.9075145,19.5657172 C23.9075145,19.5657172 25.2227006,20.3845247 25.3181851,24.2389713 C25.4148064,28.097123 25.7569594,32.6369967 27.1676301,33.6435247 C27.1676301,33.6435247 24.6611604,34.8044283 24.2724019,25.2454994 C24.0268701,19.176691 23.9075145,19.5657172 23.9075145,19.5657172" id="Fill-176" fill="#F2F2F2" mask="url(#mask-6)"></path>
                        <path d="M29.7539147,19.5606936 C29.7539147,19.5606936 28.6897014,20.3844042 28.2927974,20.9504836 C28.2927974,20.9504836 27.6614647,32.3926149 31.5144509,33.6878613 C31.5144509,33.6878613 31.074607,23.5161588 31.4958823,20.7673055 C31.4958823,20.7673055 30.2947254,20.2272256 29.7539147,19.5606936" id="Fill-177" fill="#F2F2F2" mask="url(#mask-6)"></path>
                        <path d="M33.8467495,19.1541554 C33.8467495,19.1541554 32.9069333,20.017739 32.6344215,20.2733399 C32.6344215,20.2733399 32.2209955,29.3235965 34.3090879,31.7493234 C34.3090879,31.7493234 35.1231295,29.4240998 35.3595393,28.4550498 C35.3595393,28.4550498 35.5994428,32.533497 36.0967186,34.2284039 C36.0967186,34.2284039 38.4351958,26.6385464 38.6599598,23.0725418 C38.6599598,23.0725418 39.0570817,30.9850023 38.5341851,33.0248463 C38.5341851,33.0248463 41.514346,32.1562996 42.4518331,26.19931 C42.4518331,26.19931 42.9013611,32.6675014 38.9161674,35.8612717 C38.9161674,35.8612717 45.307384,32.8362476 45.6416185,20.680316 C45.6416185,20.680316 44.4292904,18.0994915 42.2631711,17.3872832 C42.2631711,17.3872832 39.8571483,18.8476825 38.7391512,20.4247151 C38.7391512,20.4247151 37.7189789,19.5598908 37.0644848,19.3551619 C37.0644848,19.3551619 36.0757562,20.0847412 35.6797989,20.5252184 C35.6797989,20.5252184 35.3280956,22.7871622 35.3117915,24.4150669 C35.3117915,24.4150669 34.6747661,21.5612706 34.7376534,20.1691143 C34.7376534,20.1691143 34.0214366,19.4556652 33.8467495,19.1541554" id="Fill-178" fill="#F2F2F2" mask="url(#mask-6)"></path>
                        <path d="M45.6416185,26.8292863 C45.6416185,26.8292863 46.3104758,27.6103228 46.378113,27.8843706 C46.378113,27.8843706 50.354933,28.2153361 50.1182026,29.3410405 L51.0751445,29.1818819 L50.33865,27.235088 L48.4535747,26.0809249 L46.7213095,26.5404821 L45.6416185,26.8292863" id="Fill-179" fill="#F2F2F2" mask="url(#mask-6)"></path>
                        <path d="M49.7904151,29.6576317 C49.7904151,29.6576317 49.4554277,29.3410405 48.8355789,29.3410405 C48.8355789,29.3410405 49.2683727,39.6247965 42.9439583,44.3954987 C42.9439583,44.3954987 41.4560766,43.1242818 39.5451816,42.9957045 C39.5451816,42.9957045 36.5889794,45.1208686 35.2037945,46.8603008 C35.2037945,46.8603008 37.0890152,41.6177443 38.8385295,40.2191632 C38.8385295,40.2191632 41.1418731,40.429011 42.2360836,41.671116 C42.2360836,41.671116 44.9037566,37.4717337 45.7143281,35.4739339 L45.0357954,33.5307189 L43.6518331,34.5387162 C43.6518331,34.5387162 33.0875058,42.554175 29.478445,47.8209914 C29.478445,47.8209914 29.4001998,46.6261931 29.7681969,45.7455601 C29.7681969,45.7455601 23.2066017,45.1208686 18.4739884,56.1967092 C18.4739884,56.1967092 19.4655021,58.0380328 20.9582742,58.5050352 C20.9582742,58.5050352 19.8909605,59.1370046 18.6891628,58.9562686 C18.6891628,58.9562686 19.2552181,59.5845991 20.7137579,59.601581 C26.0185392,59.6658696 23.3386405,52.2338605 25.9146198,50.5029193 C24.8937642,55.4543574 26.6995172,61.4550346 37.595164,58.9902324 C37.595164,58.9902324 35.167117,61.5787599 29.5114547,61.2282048 C29.5114547,61.2282048 38.433855,63.502567 40.4718984,56.1469765 C40.4718984,56.1469765 37.79689,58.0428848 34.2489583,57.5904383 C34.2489583,57.5904383 38.7676197,56.4296039 39.9388529,53.21032 C39.9388529,53.21032 39.5366235,51.3192637 38.7847359,50.5890418 C38.7847359,50.5890418 40.3227435,47.2326897 43.1346811,45.6424556 C43.1346811,45.6424556 42.6297549,51.5169815 50.1290701,52.6972239 C50.1290701,52.6972239 51.7502133,50.6703123 52.8713206,49.9413034 C52.8713206,49.9413034 52.9813529,52.848848 52.4849848,54.4863888 C52.4849848,54.4863888 47.2890132,57.7093117 47.8379523,65.9588782 C47.8379523,65.9588782 46.5077836,60.7733324 47.7609297,57.3490527 C47.7609297,57.3490527 45.2216278,56.2500809 44.332811,56.048724 C44.332811,56.048724 41.919435,59.3662603 42.9146164,62.4266421 C42.9146164,62.4266421 43.3241812,59.0217703 44.6641306,58.189657 C44.6641306,58.189657 45.6642023,59.0217703 45.7840153,59.7532051 C45.898938,60.482214 45.898938,64.4984344 46.702174,67.6024839 C46.702174,67.6024839 46.9870355,73.7632762 45.5981829,77.0165239 C45.5981829,77.0165239 45.5321635,72.9639137 45.1311567,71.4549502 C45.1311567,71.4549502 43.216594,74.2072317 42.6713226,74.9326016 C42.6713226,74.9326016 39.7566882,89.8512046 36.1757468,93.0183298 C36.1757468,93.0183298 35.8652111,94.3344273 35.8004143,94.9991476 C35.8004143,94.9991476 32.4432053,96.3989417 31.5042627,97.2795748 C31.5042627,97.2795748 28.8219187,101.714278 30.7474847,103.350606 C31.5751724,104.048077 32.1876858,103.638085 32.1876858,103.638085 C32.1876858,103.638085 32.2524826,105.048796 32.7867507,105.430889 C32.7867507,105.430889 33.9775452,105.680765 34.6304037,105.614051 C34.6304037,105.614051 34.9971782,106.247233 35.8004143,106.49711 C35.8004143,106.49711 37.8091158,106.311522 38.8800972,105.430889 C39.9510787,104.552682 40.9352568,102.095158 41.0550698,101.050771 C41.1699925,100.002744 40.4670081,97.231055 40.4670081,97.231055 C40.4670081,97.231055 41.6370186,95.5910883 41.8240736,95.0076385 C41.8240736,95.0076385 42.0221318,92.1692345 42.0050157,91.553034 C42.0050157,91.553034 44.6519048,84.8961275 46.1556801,82.9407825 C46.1556801,82.9407825 46.0908833,84.7166045 46.1556801,85.5935986 C46.1556801,85.5935986 53.3004467,76.9801341 52.89944,72.7480009 C52.89944,72.7480009 49.302605,79.2848211 47.2926809,80.9951415 C47.2926809,80.9951415 49.2854889,73.7936011 50.5056253,72.910542 C51.7294294,72.033548 53.7344632,70.244383 53.866502,65.9625172 C53.866502,65.9625172 56.1246101,62.9227563 56.7102267,61.6479005 L56.4094716,60.0673704 C56.4094716,60.0673704 54.4545637,62.5746273 52.4617558,64.0520529 C52.4617558,64.0520529 52.1096523,67.0081173 51.3907743,68.0537174 C51.3907743,68.0537174 51.4396776,63.3533689 51.1535935,61.0656638 C51.1535935,61.0656638 56.2896586,55.4822562 56.916843,52.4679682 L57.5953757,42.3164284 L52.0717522,34.209995 L49.7904151,29.6576317" id="Fill-180" fill="#F2F2F2" mask="url(#mask-6)"></path>
                        <path d="M17.7108703,20.104168 L17.5431719,19.4503917 C17.5431719,19.4503917 17.44397,19.181333 17.3872832,18.8769678 C17.3872832,18.8769678 19.5909822,19.0133234 20.9857134,19.9970315 C20.9857134,19.9970315 21.4356648,19.0461949 22.2387276,18.4739884 C22.2387276,18.4739884 21.8596347,19.3383854 21.7285465,20.1248648 C21.7285465,20.1248648 22.6827741,31.5616883 24.09522,34.0404378 C24.09522,34.0404378 26.3249004,36.2598682 28.4660076,37.1778334 C28.4660076,37.1778334 27.5023322,35.5026078 27.5672858,34.7684792 C27.5672858,34.7684792 29.9871031,38.3709447 32.4990365,39.3108241 C32.4990365,39.3108241 35.2294502,38.5937399 35.8612717,38.0300557 C35.8612717,38.0300557 33.6174196,39.7783289 32.5509994,40.2080925 C32.5509994,40.2080925 28.4766364,39.1087257 25.9021114,37.0901763 L23.6771549,36.465619 L22.2469944,33.3282235 L20.0551053,31.4508994 L18.7170608,30.2115247 C18.7170608,30.2115247 18.193889,29.601577 18.0781535,29.0135436 C18.0781535,29.0135436 20.4696274,29.8328945 21.8679015,29.7915008 C21.8679015,29.7915008 21.3813399,26.9962116 21.329377,26.6869767 L19.6122397,25.6411781 L17.7108703,20.104168" id="Fill-181" fill="#DC1FFF" mask="url(#mask-6)"></path>
                        <path d="M16.3438484,29.3410405 C16.3438484,29.3410405 19.5211321,37.3403092 21.5189883,39.9746896 C21.5189883,39.9746896 22.0135072,39.7556649 22.4190127,39.7276784 L24.6134401,38.3271372 L24.9942197,38.8102083 C24.9942197,38.8102083 24.3167288,40.2448201 22.5278068,40.7802138 C20.7413574,41.3107403 17.1968935,43.7224456 17.2883795,45.5610363 C17.3860469,47.4008438 18.7941894,48.1978503 18.7941894,48.1978503 C18.7941894,48.1978503 20.8217167,46.6147884 22.3510163,46.3470916 C19.5841833,48.8001682 12.7870215,55.0168193 17.4725877,61.0704186 C17.4725877,61.0704186 19.458081,61.7287095 21.3731053,61.7287095 C21.3731053,61.7287095 20.1021918,64.0734906 20.0861199,65.8390731 C20.0861199,65.8390731 21.0677399,67.4562054 21.6623988,67.8382818 C21.6623988,67.8382818 20.6300907,68.389494 19.8846035,68.6851774 C19.8846035,68.6851774 18.4294817,66.4718111 19.6299263,64.1757021 C19.6299263,64.1757021 17.2920884,62.9576815 16.4316255,61.7615632 C16.4316255,61.7615632 14.4337693,65.7733657 15.6539946,68.2373935 C15.6539946,68.2373935 16.4143174,67.4063165 17.0262845,67.0400585 C17.0262845,67.0400585 10.8386172,78.3721531 9.40822138,82.5895954 L8.69364162,68.9297549 L10.5703407,57.922547 L13.8477645,47.8486276 L16.5997619,39.525689 L15.5414916,32.8916742 L16.3438484,29.3410405" id="Fill-182" fill="#DC1FFF" mask="url(#mask-6)"></path>
                        <path d="M40.5117464,48.9017341 C40.5117464,48.9017341 38.5595566,54.6639047 44.5549133,54.3204986 C44.5549133,54.3204986 40.5837587,51.4583464 40.5117464,48.9017341" id="Fill-183" fill="#DC1FFF" mask="url(#mask-6)"></path>
                        <path d="M56.483904,56.5459274 C56.483904,56.5459274 54.9773766,58.4992096 53.2485549,59.7687861 C53.2485549,59.7687861 54.7683716,59.7039422 56.1734168,59.0031723 L57.5953757,56.8837985 L56.3099345,55.4219653 L56.483904,56.5459274" id="Fill-184" fill="#DC1FFF" mask="url(#mask-6)"></path>
                        <path d="M56.5086705,65.7152427 L55.535604,65.2023121 C55.535604,65.2023121 54.35696,67.2905879 54.3352601,67.9367624 C54.3352601,67.9367624 54.557969,70.118191 54.7201468,70.6358382 L56.396745,69.5238991 L56.5086705,65.7152427" id="Fill-185" fill="#DC1FFF" mask="url(#mask-6)"></path>
                        <path d="M54.315094,74.982659 C54.315094,74.982659 44.6555282,88.3416041 42.3815029,94.5433526 C42.3815029,94.5433526 45.3696456,90.3750251 46.3245702,89.048289 L54.3352601,83.2178286 L54.315094,74.982659" id="Fill-186" fill="#DC1FFF" mask="url(#mask-6)"></path>
                        <path d="M44.5502355,70.6358382 C44.5502355,70.6358382 44.6632063,67.5304767 43.7788059,65.8116208 C43.7788059,65.8116208 43.6120394,66.4169322 43.3538203,66.9822702 C43.3538203,66.9822702 41.552742,64.5792983 41.4935668,61.9421965 C40.9383957,62.8958474 41.4214806,68.0250046 44.5502355,70.6358382" id="Fill-187" fill="#DC1FFF" mask="url(#mask-6)"></path>
                        <path d="M24.9942197,58.6820809 C24.9942197,58.6820809 25.0823175,60.1334799 25.5885697,61.1899792 C25.5885697,61.1899792 27.7761254,65.4411588 35.8612717,63.6944437 C35.8612717,63.6944437 30.579125,63.8730069 28.3928101,62.3048551 C28.3928101,62.3048551 26.3318175,59.5451368 24.9942197,58.6820809" id="Fill-188" fill="#DC1FFF" mask="url(#mask-6)"></path>
                        <path d="M25.2118421,65.2023121 C25.2118421,65.2023121 24.7239115,67.2517868 25.9584086,67.3757225 C25.9584086,67.3757225 25.9431947,65.9489496 25.2118421,65.2023121" id="Fill-189" fill="#DC1FFF" mask="url(#mask-6)"></path>
                        <path d="M25.3253785,68.4624277 C25.3253785,68.4624277 24.8660451,70.4391439 25.02932,71.4213935 C25.02932,71.4213935 25.56734,72.4085298 27.1676301,72.8092486 C27.1676301,72.8092486 25.7542209,69.3310589 25.3253785,68.4624277" id="Fill-190" fill="#DC1FFF" mask="url(#mask-6)"></path>
                        <path d="M24.6913108,76.0693642 C24.6913108,76.0693642 22.7222709,78.4547979 25.0259955,79.8870161 C26.2410181,80.645038 28.2543353,80.3660189 28.2543353,80.3660189 C28.2543353,80.3660189 26.6863961,79.4140009 26.3295728,78.9074555 C26.3295728,78.9074555 26.1146974,76.8908539 24.6913108,76.0693642" id="Fill-191" fill="#DC1FFF" mask="url(#mask-6)"></path>
                        <path d="M19.6707936,69.5491329 C19.6707936,69.5491329 19.1039848,71.2656087 20.5424873,71.7225434 C20.5424873,71.7225434 22.1542199,71.2807318 22.8208092,70.8194762 C22.8208092,70.8194762 21.5693952,70.630437 21.0968236,69.9077673 C21.0968236,69.9077673 20.3748006,69.5491329 19.6707936,69.5491329" id="Fill-192" fill="#DC1FFF" mask="url(#mask-6)"></path>
                        <path d="M19.7244503,71.7225434 C19.7244503,71.7225434 20.2119063,73.7566292 20.2119063,74.3859396 C20.2119063,74.3859396 19.563554,75.4476744 19.4181515,76.0274614 C19.4181515,76.0274614 19.7077647,78.3598959 20.3775699,79.8383526 C20.3775699,79.8383526 17.693582,88.3141129 17.5160002,90.2745175 C17.5160002,90.2745175 18.4098683,93.4802561 18.5362017,94.4610624 C18.5362017,94.4610624 15.9690126,100.919647 15.7473333,110.088736 C15.7473333,110.088736 18.4873369,120.128713 19.8865383,123.261979 C19.8865383,123.261979 19.6970383,125.165612 19.760205,126.198358 C19.760205,126.198358 21.0986234,130.136078 22.8208092,131.491329 C22.8208092,131.491329 20.5551517,130.605947 19.6005006,129.506767 L16.3837674,126.685137 L14.3123771,116.962835 L11.9537572,105.019224 L15.0131697,94.2979973 L15.553066,88.8733658 C15.553066,88.8733658 18.3347834,83.1588407 18.4396639,82.6527351 C18.4396639,82.6527351 18.8377332,80.5159786 18.7018652,79.5846958 C18.7018652,79.5846958 18.4396639,77.6979725 18.7328526,75.7423995 L19.5957333,74.1455696 L19.7244503,71.7225434" id="Fill-193" fill="#DC1FFF" mask="url(#mask-6)"></path>
                        <path d="M19.6649824,130.404624 C19.6649824,130.404624 20.40449,130.95772 20.6101035,131.272391 C20.6101035,131.272391 20.5902431,132.405208 20.7234246,132.880846 C20.7234246,132.880846 22.2293099,134.83665 22.7118007,135.259036 C22.7118007,135.259036 22.0821093,137.587605 22.3870248,140.051724 C22.6872672,142.511002 26.5670539,164.92529 24.2714258,171.408732 C24.2714258,171.408732 22.9057316,173.271345 22.0552394,173.565441 C22.0552394,173.565441 22.9326015,173.982986 23.576312,173.99872 C23.576312,173.99872 18.8915952,176.974785 15.7431384,177.535142 C15.7431384,177.535142 15.4650929,179.253733 13.6204127,179.303354 C11.7722276,179.351765 9.93572521,178.808351 9.78034682,178.165696 L10.9497736,177.031668 L14.8225507,176.51246 L19.3180096,171.982402 L23.4302797,168.176088 L20.6766943,149.816221 L18.1637701,132.401578 L19.6649824,130.404624" id="Fill-194" fill="#DC1FFF" mask="url(#mask-6)"></path>
                        <path d="M31.944386,135.83815 L31.2160338,136.468617 C31.2160338,136.468617 30.7013664,136.888101 30.4277457,137.281522 C30.4277457,137.281522 32.6310437,141.931833 32.3404846,147.036379 C32.3404846,147.036379 33.0675338,145.949196 33.1769821,145.512337 C33.1769821,145.512337 34.1737432,147.924989 34.1958934,149.965318 C34.1958934,149.965318 36.0864821,145.910723 35.8389205,145.570668 C35.58745,145.234336 34.8161003,138.486606 34.5476914,138.193712 C34.2792826,137.894613 31.944386,135.83815 31.944386,135.83815" id="Fill-195" fill="#F2F2F2" mask="url(#mask-6)"></path>
                        <path d="M30.6056418,166.265896 C30.6056418,166.265896 29.0507945,169.274146 29.3892391,171.902977 C29.7264349,174.534164 30.6818231,178.235266 29.6889687,179.306358 L33.6878613,177.219554 L32.4764541,170.229763 L30.6056418,166.265896" id="Fill-196" fill="#F2F2F2" mask="url(#mask-6)"></path>
                        <path d="M26.369208,168.439306 C27.1777243,168.865076 29.0024903,170.077228 27.9204832,171.699422 C27.4855882,170.262589 25.3081238,170.672632 26.369208,168.439306" id="Fill-197" fill="#DC1FFF" mask="url(#mask-6)"></path>
                        <path d="M30.4277457,186.128482 L31.3514393,186.707364 C31.3514393,186.707364 34.8726495,187.365295 36.5250744,186.329144 C36.5250744,186.329144 35.2625743,185.983761 34.5873388,185.601893 C34.5873388,185.601893 38.4342789,182.735454 39.5006278,179.099199 C39.5006278,179.099199 41.2327019,170.212873 41.2564778,163.192103 C41.2564778,163.192103 41.8758399,168.284077 41.8318545,169.463731 C41.8318545,169.463731 43.7695901,151.891741 40.3684481,143.547813 C40.3684481,143.547813 40.8796298,144.053727 42.1861154,143.938194 C42.1861154,143.938194 37.3572308,141.380654 38.2464493,134.064362 C38.2464493,134.064362 35.6774637,125.908935 35.1995681,122.072017 C35.1995681,122.072017 35.0949542,127.57383 36.3206017,131.593168 C36.3206017,131.593168 31.1101139,116.421837 31.1101139,111.930636 C31.1101139,111.930636 30.2743911,118.83952 33.4900812,128.07123 L33.8800059,134.290564 L37.1480029,145.22122 L38.4259573,160.869278 L37.483243,174.789203 L34.6479673,180.978134 L30.4277457,186.128482" id="Fill-198" fill="#DC1FFF" mask="url(#mask-6)"></path>
                        <path d="M36.9479769,107.583815 C36.9479769,107.583815 35.9891991,111.431324 33.6878613,110.766791 C33.6878613,110.766791 36.0529368,108.671479 36.9479769,107.583815" id="Fill-199" fill="#DC1FFF" mask="url(#mask-6)"></path>
                        <path d="M33.6878613,108.668199 C33.6878613,108.668199 33.2116249,109.898834 32.4045181,109.743701 C31.6006657,109.588568 30.4854697,108.931534 30.4344831,108.355325 C30.3824117,107.777813 30.6395143,105.797585 30.9519428,105.410405 C30.9519428,105.410405 31.0691034,107.702202 31.6158532,108.340985 C31.6158532,108.340985 32.9610312,108.777704 33.6878613,108.668199" id="Fill-200" fill="#DC1FFF" mask="url(#mask-6)"></path>
                        <path d="M28.0990318,103.236994 C28.0990318,103.236994 26.4081185,106.967792 27.7349856,107.583815 C27.7349856,107.583815 28.4478642,104.827922 28.0990318,103.236994" id="Fill-201" fill="#DC1FFF" mask="url(#mask-6)"></path>
                        <path d="M14.6182514,91.283237 C14.6182514,91.283237 12.6563474,92.395014 12.2795257,93.1659714 C12.2795257,93.1659714 12.060726,96.1463799 9.78034682,97.2276006 C9.78034682,97.2276006 9.95295548,97.7200262 10.1705396,97.8034682 L12.9906247,97.5931003 L15.2138728,94.0685557 L14.6182514,91.283237" id="Fill-202" fill="#DC1FFF" mask="url(#mask-6)"></path>
                        <path d="M31.5144509,34.7745665 C31.5144509,34.7745665 31.6557525,37.7924365 33.6878613,38.0346821 C33.6878613,38.0346821 32.5299065,35.8391721 31.5144509,34.7745665" id="Fill-203" fill="#DC1FFF" mask="url(#mask-6)"></path>
                        <path d="M2.1734104,94.8975245 C2.1734104,94.8975245 3.86310444,93.8372908 4.65665928,92.9916985 C4.65665928,92.9916985 5.78508718,90.5575245 6.20721591,90.135318 C6.20721591,90.135318 8.04548038,88.9465354 9.31304569,88.368655 C9.31304569,88.368655 10.3624719,81.50603 13.0060825,78.2427746 C13.0060825,78.2427746 17.320521,79.7499811 13.886893,89.0149376 C12.1971989,93.5813724 8.47586302,92.7876713 8.26597779,92.1331332 C8.26597779,92.1331332 3.33721223,97.5534158 2.1734104,94.8975245" id="Fill-204" fill="#F2F2F2" mask="url(#mask-6)"></path>
                        <path d="M7.16888987,94.5433526 C7.16888987,94.5433526 6.15133344,94.8220334 5.52706569,94.6977392 C5.52706569,94.6977392 3.9976097,96.4666429 4.42086323,97.2451176 C4.6730674,97.7148191 5.50958619,97.2451176 5.50958619,97.2451176 C5.50958619,97.2451176 4.83787409,98.6084295 5.34852511,99.3162527 C5.53955104,99.58185 6.05020206,99.66166 6.73439952,99.3777457 C6.73439952,99.3777457 6.71692002,100.718815 7.05527314,100.934695 C7.38863212,101.151883 8.38496345,101.028897 8.38496345,101.028897 L10.867052,98.4841353 L10.3276847,98.4056336 C10.3276847,98.4056336 8.4149283,98.1491949 7.91676264,98.2590972 C7.91676264,98.2590972 7.83311076,96.7584074 7.60462876,96.1918872 C7.60462876,96.1918872 6.88672085,96.184037 6.48094681,96.3214149 C6.48094681,96.3214149 7.28750074,95.1883745 7.16888987,94.5433526" id="Fill-205" fill="#F2F2F2" mask="url(#mask-6)"></path>
                        <path d="M5.29290567,102.141058 C5.29290567,102.141058 3.49797112,100.063005 3.20145916,99.0468586 C3.20145916,99.0468586 2.7731641,99.0186975 2.48275321,99.0186975 C2.48275321,99.0186975 1.25399788,96.3645147 1.17590419,94.7053571 C1.17590419,94.7053571 2.28141793,91.6827334 3.51017326,90.4682863 C3.51017326,90.4682863 7.50881399,87.4761704 8.69364162,86.9364162 L-1.58177907,89.0039096 C-1.58177907,89.0039096 -2.09304866,96.4560382 -2.17114235,96.7094881 C-2.24923604,96.9641113 -0.284691764,102.280691 -0.284691764,102.280691 L4.10197697,103.236994 L5.29290567,102.141058" id="Fill-206" fill="#DC1FFF" mask="url(#mask-6)"></path>
                    </g>
                    <path d="M29.6522079,112.728886 C29.3948977,113.125119 29.0107443,113.610747 28.50458,113.969532 L12.9451616,45.8849964 L14.3054027,45.5745329 L29.6522079,112.728886" id="Fill-208" fill="#DC1FFF"></path>
                    <path d="M11.2454643,24.483548 C15.015724,24.5089166 18.7038377,26.5420301 20.7139986,29.786797 C21.3433819,30.7991256 21.8060571,31.9141367 22.087528,33.0823011 L22.1527615,33.3480676 C22.2167871,33.6259143 22.046455,33.900137 21.7722323,33.9653706 L21.3035169,34.0789253 C21.0292942,34.1441589 20.7550716,33.9726187 20.6862139,33.6996041 C20.5182978,33.0291478 20.3310532,32.3719798 20.0519985,31.7425965 C18.4465274,28.1281726 14.4890232,25.6794971 10.3950116,26.0225774 C7.22514255,26.2847198 4.24251803,28.2006544 2.69140831,31.0189869 C1.17533144,33.7696698 1.11009786,37.2608747 2.53557252,40.0755832 C4.41526623,43.7926895 8.81128512,46.073449 13.1118697,45.1976277 C13.206096,45.1831314 13.2966982,45.1613868 13.3897165,45.1420584 C13.8101107,45.0393759 14.2317129,45.3003102 14.3331874,45.7255365 L14.4974794,46.4237775 C13.659107,46.6206863 12.8219426,46.8115549 11.972698,46.8731644 C7.93667186,47.1558433 3.82333183,45.0804489 1.66579137,41.6001162 C-0.192157811,38.6054114 -0.527989978,34.7324692 0.820170805,31.4490454 C1.87719651,28.8626545 3.93809462,26.7014899 6.47012419,25.5248693 C7.5356061,25.0307853 8.67960992,24.7082415 9.84777433,24.564486 C10.3104496,24.5089166 10.7839971,24.483548 11.2454643,24.483548" id="Fill-209" fill="#DC1FFF"></path>
                </g>
            </g>
        </g>
    </g>
</svg>