<?xml version="1.0" encoding="UTF-8"?>
<svg width="218px" height="347px" viewBox="0 0 218 347" version="1.1" xmlns="http://www.w3.org/2000/svg" xmlns:xlink="http://www.w3.org/1999/xlink">
    <title>God KHONSU</title>
    <defs>
        <filter x="-61.9%" y="-26.5%" width="223.7%" height="153.1%" filterUnits="objectBoundingBox" id="filter-1">
            <feGaussianBlur stdDeviation="20" in="SourceGraphic"></feGaussianBlur>
        </filter>
        <linearGradient x1="55.994987%" y1="-149.13378%" x2="55.994987%" y2="100%" id="linearGradient-2">
            <stop stop-color="#7C71D2" offset="0%"></stop>
            <stop stop-color="#170D69" offset="100%"></stop>
        </linearGradient>
        <path d="M53.1350068,66.1199099 C53.1350068,66.1199099 54.6234634,67.3607078 57.7416857,68.4058369 C60.8634407,69.4486227 61.9585867,73.0889997 61.9432782,74.1470172 C61.9432782,74.1470172 65.5819893,78.284182 63.8226901,84.0886324 C63.8226901,84.0886324 67.103418,92.6113559 65.5819893,95.1784836 C65.5819893,95.1784836 70.7833442,98.3314461 75.3629388,113.844349 C75.3629388,113.844349 80.2487032,116.002565 82.4790329,117.651103 C82.4790329,117.651103 83.6848711,121.011451 83.5647583,123.470786 C83.5647583,123.470786 82.8405489,125.543469 81.8772914,125.931291 C81.8772914,125.931291 79.2253893,128.122313 76.568777,127.670049 C76.568777,127.670049 75.6055195,126.410504 75.4253503,124.913111 C75.4253503,124.913111 74.2195121,124.132779 74.3714195,122.572115 C74.3714195,122.572115 72.3483432,120.98216 72.2282304,118.281462 C69.4809447,114.100945 63.4635293,111.727143 60.4689526,106.43354 C60.4689526,106.43354 59.3985356,110.550787 58.4588297,112.948022 C58.4588297,112.948022 60.0273614,114.350511 60.3865222,115.931093 C60.3865222,115.931093 61.2532185,116.581369 61.4969768,117.155487 C61.4969768,117.155487 61.5205283,118.526341 61.3014991,119.389861 C61.3014991,119.389861 62.2211862,122.196009 62.2211862,123.828145 C62.2211862,123.828145 62.8947599,124.211281 63.3292856,124.909596 C63.3292856,124.909596 63.4246693,127.889151 63.003097,129.660715 C63.003097,129.660715 63.4552863,138.804423 59.450349,148.08756 C55.4442341,157.367182 57.1882247,158.725147 55.3994862,161.210258 C55.3994862,161.210258 52.4296386,178.833338 55.1604382,187.038539 C55.1604382,187.038539 60.1945773,193.975994 68.2574428,195.287092 C68.2574428,195.287092 68.298658,198.176429 61.5523229,198.176429 C54.8071653,198.176429 54.6564355,196.860644 52.6204059,196.860644 C50.5867315,196.860644 46.9303568,197.273072 44.7801023,195.660855 C44.7801023,195.660855 45.7598459,188.762065 45.7598459,187.189685 C45.7598459,185.612618 41.1237276,169.486931 41.2002701,164.426491 C41.275635,159.363707 44.8554672,158.876293 43.7249939,152.727371 C43.7249939,152.727371 42.0328166,156.352517 40.7021553,157.521843 C40.7021553,157.521843 38.6001814,164.01172 37.2860062,165.109574 C38.3175631,168.305888 32.627514,178.97511 32.4037744,195.406602 C32.4037744,195.406602 35.8564284,201.508657 37.6369239,202.590108 C37.6369239,202.590108 40.3806769,203.639924 40.8623057,204.38862 C40.8623057,204.38862 40.527874,207.091662 36.9397987,206.730788 C36.9397987,206.730788 35.5855858,209.040148 31.9975106,209.068421 C28.4106129,209.098731 27.0516897,204.571401 25.6939442,203.730142 C24.3409089,202.891227 23.5837273,202.137843 23.5837273,202.137843 C23.5837273,202.137843 23.9464208,198.061605 24.5516951,196.349796 C24.5516951,196.349796 23.4918763,194.847716 24.8225376,190.560578 C25.2405773,183.975795 20.8599931,175.331218 22.0622986,167.996568 C23.1209397,161.523094 27.2424571,158.583375 28.6579039,154.597356 C30.0709956,150.614851 28.0832467,141.993708 27.5533373,140.243234 C27.5533373,140.243234 25.6468411,138.923934 25.383064,136.161137 C25.1169317,133.404199 26.0330862,128.075446 27.1682698,125.24235 C28.3022759,122.409253 21.1991351,109.916913 20.9271149,102.871665 C20.8199555,100.019822 22.0540555,97.8768383 21.883307,95.333144 C21.883307,95.333144 20.6162348,90.1110133 20.5290941,87.3810235 C20.4384207,84.6545487 21.6725208,80.843108 23.0302664,79.7932922 C23.0302664,79.7932922 20.6762912,69.5318113 30.6880456,67.3443044 C30.6880456,67.3443044 32.5757006,65.5856286 33.0608621,64.3249123 C33.9569977,63.0056125 47.3283776,62.9821791 53.1350068,66.1199099" id="path-3"></path>
        <filter x="-11.1%" y="-3.4%" width="122.2%" height="109.6%" filterUnits="objectBoundingBox" id="filter-4">
            <feOffset dx="0" dy="2" in="SourceAlpha" result="shadowOffsetOuter1"></feOffset>
            <feGaussianBlur stdDeviation="2" in="shadowOffsetOuter1" result="shadowBlurOuter1"></feGaussianBlur>
            <feColorMatrix values="0 0 0 0 0   0 0 0 0 0   0 0 0 0 0  0 0 0 0.5 0" type="matrix" in="shadowBlurOuter1"></feColorMatrix>
        </filter>
        <path d="M12.5364718,0.843591885 C12.0513103,2.10429309 10.1636554,3.86294784 10.1636554,3.86294784 C0.151900913,6.05042846 2.50587612,16.3117864 2.50587612,16.3117864 C1.14813054,17.3615897 -0.085969518,21.1729847 0.00470386418,23.8994268 C0.0918445171,26.6328988 1.35891671,31.8514519 1.35891671,31.8514519 C1.52966529,34.3951158 0.295565233,36.5380735 0.402724684,39.3898827 C0.674744831,46.4350466 7.77788562,58.9272365 6.64387956,61.7602992 C5.50869592,64.593362 4.59254149,69.9220507 4.85867375,72.6789558 C5.12245086,75.4417193 7.02894704,76.7610032 7.02894704,76.7610032 C7.55885642,78.5114564 9.54660536,87.1324968 8.13351369,91.1149535 C6.71806687,95.1009252 2.5965495,98.0406085 1.53790833,104.514005 C0.33560283,111.848567 4.71618701,120.493041 4.29814739,127.077744 C2.97219637,131.364831 4.02730482,132.866894 4.02730482,132.866894 C3.42203055,134.578682 3.05933702,138.654871 3.05933702,138.654871 C3.05933702,138.654871 3.81651864,139.408246 5.16955392,140.247151 C6.5272995,141.088399 7.88622265,145.615676 11.4731203,145.585366 C15.0611956,145.557093 16.4154085,143.24776 16.4154085,143.24776 C20.0034837,143.60863 20.3379154,140.905621 20.3379154,140.905621 C19.8562867,140.156933 17.1125337,139.10713 17.1125337,139.10713 C15.3320382,138.025692 11.8793842,131.923711 11.8793842,131.923711 C12.1031237,115.492416 17.7896401,104.823322 16.7616159,101.627046 C18.0757912,100.529205 20.177765,94.0394054 20.177765,94.0394054 C21.5084263,92.8700933 23.2006036,89.2449915 23.2006036,89.2449915 C24.331077,95.393839 20.7512447,95.8812476 20.6758798,100.943971 C20.5993374,106.00435 25.2354556,122.129843 25.2354556,123.706892 C25.2354556,125.279253 24.2557121,132.17796 24.2557121,132.17796 C26.4059666,133.790158 30.0623413,133.377735 32.0960157,133.377735 C34.1320453,133.377735 34.2792423,134.693504 41.0279326,134.693504 C47.7742678,134.693504 47.7330526,131.804202 47.7330526,131.804202 C39.670187,130.49312 34.636048,123.555748 34.636048,123.555748 C31.9052483,115.350645 34.875096,97.7277765 34.875096,97.7277765 C36.6638345,95.2426955 34.9198439,93.8847469 38.9259588,84.6052361 C42.9308961,75.3222104 42.4810619,66.1786117 42.4810619,66.1786117 C42.9002791,64.4070688 42.8048954,61.4275491 42.8048954,61.4275491 C42.3703697,60.7292425 41.696796,60.3461112 41.696796,60.3461112 C41.696796,58.7139952 40.7771088,55.9078805 40.7771088,55.9078805 C40.996138,55.0443705 40.9725865,53.6735337 40.9725865,53.6735337 C40.7288282,53.0994225 39.862132,52.4491538 39.862132,52.4491538 C39.5029712,50.8685907 37.9344394,49.4661191 37.9344394,49.4661191 C38.8741454,47.0689122 39.9445623,42.9517151 39.9445623,42.9517151 C42.9391391,48.2452542 48.9565545,50.6190281 51.7038402,54.7994945 C51.823953,57.5001602 53.8470292,59.0900966 53.8470292,59.0900966 C53.6951219,60.6507416 54.9009601,61.431064 54.9009601,61.431064 C55.0811293,62.9284396 56.0443868,64.1879692 56.0443868,64.1879692 C58.7009991,64.6402282 61.3529011,62.4492326 61.3529011,62.4492326 C62.3161586,62.0614147 63.0403681,59.9887563 63.0403681,59.9887563 C63.1604809,57.5294516 61.9546427,54.1691439 61.9546427,54.1691439 C59.724313,52.5206248 54.8385485,50.3624355 54.8385485,50.3624355 C50.2589539,34.8497181 45.057599,31.6967934 45.057599,31.6967934 C46.5790277,29.1296964 43.2982999,20.6070751 43.2982999,20.6070751 C45.057599,14.7980076 41.418888,10.6655791 41.418888,10.6655791 C41.4341965,9.60757424 40.3390504,5.96724093 37.2172954,4.92446763 C34.0990731,3.87935101 32.6106166,2.63856795 32.6106166,2.63856795 C29.1014389,0.745172832 22.8379101,0 18.2276985,0 C15.2036823,0 12.8920999,0.321033578 12.5364718,0.843591885" id="path-5"></path>
        <linearGradient x1="50%" y1="-36.4663068%" x2="50%" y2="148.964055%" id="linearGradient-7">
            <stop stop-color="#EFFFF9" offset="0%"></stop>
            <stop stop-color="#F5BEFF" offset="100%"></stop>
        </linearGradient>
        <linearGradient x1="50%" y1="-36.4663068%" x2="50%" y2="148.964055%" id="linearGradient-8">
            <stop stop-color="#EFFFF9" offset="0%"></stop>
            <stop stop-color="#F5BEFF" offset="100%"></stop>
        </linearGradient>
        <linearGradient x1="88.5359616%" y1="-14.6833853%" x2="11.891064%" y2="100%" id="linearGradient-9">
            <stop stop-color="#7C71D2" offset="0%"></stop>
            <stop stop-color="#170D69" offset="100%"></stop>
        </linearGradient>
        <path d="M44.0243902,21.0684211 C54.4661532,21.0684211 62.9390244,29.5456887 62.9390244,39.982473 C62.9390244,50.4250789 54.4661532,58.8976893 44.0243902,58.8976893 C33.5861203,58.8976893 25.1097561,50.4250789 25.1097561,39.982473 C25.1097561,29.5456887 33.5861203,21.0684211 44.0243902,21.0684211" id="path-10"></path>
        <filter x="-18.5%" y="-13.2%" width="137.0%" height="137.0%" filterUnits="objectBoundingBox" id="filter-11">
            <feOffset dx="0" dy="2" in="SourceAlpha" result="shadowOffsetOuter1"></feOffset>
            <feGaussianBlur stdDeviation="2" in="shadowOffsetOuter1" result="shadowBlurOuter1"></feGaussianBlur>
            <feColorMatrix values="0 0 0 0 0   0 0 0 0 0   0 0 0 0 0  0 0 0 0.5 0" type="matrix" in="shadowBlurOuter1"></feColorMatrix>
        </filter>
        <path d="M0,18.914052 C0,29.3566579 8.47636421,37.8292683 18.9146341,37.8292683 C29.3563971,37.8292683 37.8292683,29.3566579 37.8292683,18.914052 C37.8292683,8.47726763 29.3563971,0 18.9146341,0 C8.47636421,0 0,8.47726763 0,18.914052" id="path-12"></path>
        <linearGradient x1="50%" y1="-36.4663068%" x2="50%" y2="148.964055%" id="linearGradient-14">
            <stop stop-color="#EFFFF9" offset="0%"></stop>
            <stop stop-color="#F5BEFF" offset="100%"></stop>
        </linearGradient>
        <linearGradient x1="50%" y1="-36.4663068%" x2="50%" y2="148.964055%" id="linearGradient-15">
            <stop stop-color="#EFFFF9" offset="0%"></stop>
            <stop stop-color="#F5BEFF" offset="100%"></stop>
        </linearGradient>
        <linearGradient x1="50%" y1="-36.4663068%" x2="50%" y2="148.964055%" id="linearGradient-16">
            <stop stop-color="#EFFFF9" offset="0%"></stop>
            <stop stop-color="#F5BEFF" offset="100%"></stop>
        </linearGradient>
        <linearGradient x1="50%" y1="-36.4663068%" x2="50%" y2="148.964055%" id="linearGradient-17">
            <stop stop-color="#EFFFF9" offset="0%"></stop>
            <stop stop-color="#F5BEFF" offset="100%"></stop>
        </linearGradient>
        <linearGradient x1="50%" y1="-36.4663068%" x2="50%" y2="148.964055%" id="linearGradient-18">
            <stop stop-color="#EFFFF9" offset="0%"></stop>
            <stop stop-color="#F5BEFF" offset="100%"></stop>
        </linearGradient>
        <linearGradient x1="50%" y1="-36.4663068%" x2="50%" y2="148.964055%" id="linearGradient-19">
            <stop stop-color="#EFFFF9" offset="0%"></stop>
            <stop stop-color="#F5BEFF" offset="100%"></stop>
        </linearGradient>
        <linearGradient x1="50%" y1="-36.4663068%" x2="50%" y2="148.964055%" id="linearGradient-20">
            <stop stop-color="#EFFFF9" offset="0%"></stop>
            <stop stop-color="#F5BEFF" offset="100%"></stop>
        </linearGradient>
        <linearGradient x1="88.5359616%" y1="21.2518288%" x2="11.891064%" y2="72.2222222%" id="linearGradient-21">
            <stop stop-color="#7C71D2" offset="0%"></stop>
            <stop stop-color="#170D69" offset="100%"></stop>
        </linearGradient>
        <linearGradient x1="88.5359616%" y1="13.6155958%" x2="11.891064%" y2="78.125%" id="linearGradient-22">
            <stop stop-color="#7C71D2" offset="0%"></stop>
            <stop stop-color="#170D69" offset="100%"></stop>
        </linearGradient>
        <linearGradient x1="83.8694975%" y1="-14.6833853%" x2="16.505818%" y2="100%" id="linearGradient-23">
            <stop stop-color="#7C71D2" offset="0%"></stop>
            <stop stop-color="#170D69" offset="100%"></stop>
        </linearGradient>
        <linearGradient x1="88.5359616%" y1="39.6506584%" x2="11.891064%" y2="58%" id="linearGradient-24">
            <stop stop-color="#7C71D2" offset="0%"></stop>
            <stop stop-color="#170D69" offset="100%"></stop>
        </linearGradient>
        <linearGradient x1="63.1129314%" y1="-14.6833853%" x2="37.0323759%" y2="100%" id="linearGradient-25">
            <stop stop-color="#7C71D2" offset="0%"></stop>
            <stop stop-color="#170D69" offset="100%"></stop>
        </linearGradient>
        <linearGradient x1="78.3121351%" y1="-14.6833853%" x2="22.001598%" y2="100%" id="linearGradient-26">
            <stop stop-color="#7C71D2" offset="0%"></stop>
            <stop stop-color="#170D69" offset="100%"></stop>
        </linearGradient>
        <linearGradient x1="68.7515584%" y1="-14.6833853%" x2="31.4562318%" y2="100%" id="linearGradient-27">
            <stop stop-color="#7C71D2" offset="0%"></stop>
            <stop stop-color="#170D69" offset="100%"></stop>
        </linearGradient>
        <linearGradient x1="88.0408956%" y1="-14.6833853%" x2="12.3806441%" y2="100%" id="linearGradient-28">
            <stop stop-color="#7C71D2" offset="0%"></stop>
            <stop stop-color="#170D69" offset="100%"></stop>
        </linearGradient>
        <linearGradient x1="86.8069364%" y1="-14.6833853%" x2="13.6009295%" y2="100%" id="linearGradient-29">
            <stop stop-color="#7C71D2" offset="0%"></stop>
            <stop stop-color="#170D69" offset="100%"></stop>
        </linearGradient>
        <linearGradient x1="71.6764784%" y1="-14.6833853%" x2="28.5637235%" y2="100%" id="linearGradient-30">
            <stop stop-color="#7C71D2" offset="0%"></stop>
            <stop stop-color="#170D69" offset="100%"></stop>
        </linearGradient>
        <linearGradient x1="50%" y1="-36.4663068%" x2="50%" y2="148.964055%" id="linearGradient-31">
            <stop stop-color="#EFFFF9" offset="0%"></stop>
            <stop stop-color="#F5BEFF" offset="100%"></stop>
        </linearGradient>
        <linearGradient x1="50%" y1="-36.4663068%" x2="50%" y2="148.964055%" id="linearGradient-32">
            <stop stop-color="#EFFFF9" offset="0%"></stop>
            <stop stop-color="#F5BEFF" offset="100%"></stop>
        </linearGradient>
        <linearGradient x1="50%" y1="-36.4663068%" x2="50%" y2="148.964055%" id="linearGradient-33">
            <stop stop-color="#EFFFF9" offset="0%"></stop>
            <stop stop-color="#F5BEFF" offset="100%"></stop>
        </linearGradient>
        <linearGradient x1="50%" y1="-36.4663068%" x2="50%" y2="148.964055%" id="linearGradient-34">
            <stop stop-color="#EFFFF9" offset="0%"></stop>
            <stop stop-color="#F5BEFF" offset="100%"></stop>
        </linearGradient>
    </defs>
    <g id="Platform" stroke="none" stroke-width="1" fill="none" fill-rule="evenodd">
        <g id="Calculator" transform="translate(-1087.000000, -254.000000)">
            <g id="Calculator-empty" transform="translate(810.000000, 240.000000)">
                <g id="God-KHONSU" transform="translate(337.500000, 74.300000)">
                    <ellipse id="Oval-Copy" fill-opacity="0.8" fill="#46BAD4" filter="url(#filter-1)" cx="48.5" cy="113" rx="48.5" ry="113"></ellipse>
                    <polyline id="Fill-289" fill="#DC1FFF" points="76.2284803 126.531836 77.8414634 126.96117 58.8190964 195.312323 57.2073171 194.882989 76.2284803 126.531836"></polyline>
                    <g id="Fill-290">
                        <use fill="black" fill-opacity="1" filter="url(#filter-4)" xlink:href="#path-3"></use>
                        <use fill="url(#linearGradient-2)" fill-rule="evenodd" xlink:href="#path-3"></use>
                    </g>
                    <g id="Group-328" transform="translate(20.524390, 63.483055)">
                        <mask id="mask-6" fill="white">
                            <use xlink:href="#path-5"></use>
                        </mask>
                        <g id="Clip-292"></g>
                        <path d="M38.0799822,1.92828299 L30.3463737,2.79846498 L28.6144465,3.46719388 C28.6144465,3.46719388 32.7640739,5.78926855 33.7297545,7.99810036 C34.6954351,10.2081242 33.2492468,16.4233692 36.3445563,18.4593567 C36.3445563,18.4593567 34.5543151,14.6818132 35.7217623,11.2511506 C35.7217623,11.2511506 37.8513912,19.30093 42.1153141,18.2531355 C42.1153141,18.2531355 41.4050491,19.8492638 38.959358,19.9100573 C38.959358,19.9100573 42.8559025,21.8280338 44.1341463,16.5115795 L43.4238813,7.59161809 L39.4993461,3.06071161 L38.0799822,1.92828299" id="Fill-291" fill="#F2F2F2" mask="url(#mask-6)"></path>
                        <path d="M36.0082442,6.29376108 C33.7695395,5.78592263 32.6226903,5.00859697 32.4943715,4.82070748 C32.5367625,5.73116626 34.946177,6.20357412 36.3107099,8.72988252 C36.3107099,8.72988252 38.0613449,8.1275625 40.2542214,9.64141496 C40.2542214,9.64141496 38.9171854,6.95083746 36.0082442,6.29376108 Z" id="Fill-293" fill="#F2F2F2" mask="url(#mask-6)"></path>
                        <path d="M29.8056813,8.74509961 C29.8056813,8.74509961 32.1065226,10.5055986 32.4812447,16.9123042 C32.8535801,23.317865 25.1980316,23.5193265 23.127513,22.914942 C23.127513,22.914942 27.9428112,22.4467728 28.9667334,20.6622358 C28.9667334,20.6622358 22.4293843,21.7313555 20.7550687,18.8971581 C19.0795597,16.0641053 19.7299531,12.0692148 19.7299531,12.0692148 C19.7299531,12.0692148 18.0305765,15.3063353 18.0795052,17.1137657 C18.0795052,17.1137657 17.8456022,12.2947144 18.9148729,10.6177761 C18.9148729,10.6177761 18.5186699,8.52074473 19.3588112,7.51801576 C19.3588112,7.51801576 24.5237705,7.91979415 26.1300633,8.94541647 C26.1300633,8.94541647 22.1954813,5.68654732 15.5196998,6.40310935 C15.5196998,6.40310935 20.2669752,4.43657012 28.3378208,7.51801576 C28.3378208,7.51801576 30.3069019,7.37493229 31.7234469,7.95871285 C31.7234469,7.95871285 30.1971107,8.42344797 29.8056813,8.74509961" id="Fill-294" fill="#F2F2F2" mask="url(#mask-6)"></path>
                        <path d="M16.0871401,8.19520271 C16.0871401,8.19520271 17.5795445,9.51520817 17.4519197,12.4870437 C17.3231453,15.4625256 14.7534043,16.5394361 13.7496532,16.8724762 C13.7496532,16.8724762 14.9408172,15.322746 15.1696219,14.1109178 C15.1696219,14.1109178 11.0407898,16.0046273 7.63861383,16.3255126 C7.63861383,16.3255126 11.1109259,13.9905858 11.7984897,13.3378759 C11.7984897,13.3378759 8.47104892,13.9456132 6.30487805,13.9006407 C6.30487805,13.9006407 14.1382762,11.3359892 16.1883201,10.3490238 C16.1883201,10.3490238 16.4481686,9.05818971 16.0871401,8.19520271" id="Fill-295" fill="#F2F2F2" mask="url(#mask-6)"></path>
                        <path d="M8.96929924,6.26691972 C8.96929924,6.26691972 11.3219887,7.89549477 8.91546528,9.64141496 C8.91546528,9.64141496 9.41161068,7.27257852 8.96929924,6.26691972" id="Fill-296" fill="#DC1FFF" mask="url(#mask-6)"></path>
                        <path d="M8.72983114,4.33863673 C8.72983114,4.33863673 10.6326263,4.19815264 11.6064683,4.19815264 C11.6064683,4.19815264 13.2499047,1.54919422 13.0828179,-0.660453791 L12.4194581,-1.44621224 L10.6700338,0.692003183 L8.72983114,4.33863673" id="Fill-297" fill="#DC1FFF" mask="url(#mask-6)"></path>
                        <path d="M6.30487805,5.17006117 C6.30487805,5.17006117 3.41740729,8.26201541 3.49029254,12.6074646 C3.49029254,12.6074646 4.04907948,9.96584004 5.12656646,9.24740173 C5.12656646,9.24740173 4.07458932,12.2499864 4.52283362,14.8567917 C4.52283362,14.8567917 3.39189745,15.2606956 2.49783835,15.9083347 L0.484990619,14.1023734 L1.49080711,8.43495129 L5.78374849,4.82070748 L6.30487805,5.17006117" id="Fill-298" fill="#DC1FFF" mask="url(#mask-6)"></path>
                        <path d="M1.75215501,33.2628816 C1.75215501,33.2628816 2.87138982,30.841463 2.90964371,29.0413896 C2.94666361,27.2413161 -0.459166693,24.9284045 1.94589246,17.8366177 L-1.93996248,21.5407028 L-1.18845862,30.0762034 L1.75215501,33.2628816" id="Fill-299" fill="#DC1FFF" mask="url(#mask-6)"></path>
                        <path d="M1.10897986,36.1553061 C1.10897986,36.1553061 1.10409624,39.1144722 1.69989731,40.68157 C2.29447747,42.2521685 8.0241791,57.809961 8.49911068,60.8333046 C8.49911068,60.8333046 3.65578523,72.6349632 7.97045933,76.2370712 C9.80303596,79.9616998 10.5306946,86.2744319 10.031345,90.868374 C10.031345,90.868374 2.93789378,100.26396 2.86830226,104.927914 C2.79748984,109.590701 5.6287658,123.239504 5.3406325,125.946628 C5.05616191,128.657252 5.12941614,132.204517 6.29415838,132.500901 C6.29415838,132.500901 5.84364487,133.387717 4.62640376,132.91047 L1.8891374,129.793777 L-0.939696752,105.132115 L0.547364101,70.0141875 L-3.39493433,49.5042258 L1.10897986,36.1553061" id="Fill-300" fill="#DC1FFF" mask="url(#mask-6)"></path>
                        <path d="M10.184803,78.0954612 C10.184803,78.0954612 8.90063766,74.9900906 8.85235096,73.2747537 C8.85235096,73.2747537 8.13196552,77.7501733 10.184803,78.0954612" id="Fill-301" fill="#DC1FFF" mask="url(#mask-6)"></path>
                        <path d="M14.064728,78.0954612 C14.064728,78.0954612 12.6762891,75.1859856 12.7587317,73.2747537 C12.7587317,73.2747537 11.9591689,77.7188265 14.064728,78.0954612" id="Fill-302" fill="#DC1FFF" mask="url(#mask-6)"></path>
                        <path d="M6.62038193,71.8285414 C6.62038193,71.8285414 6.24063428,74.7791265 6.93029094,75.8702283 L7.54865398,76.6492489 C7.54865398,76.6492489 6.63784159,72.8156162 6.62038193,71.8285414" id="Fill-303" fill="#DC1FFF" mask="url(#mask-6)"></path>
                        <path d="M15.3556392,77.6029265 C15.3556392,77.6029265 15.9795218,71.4803657 15.796386,69.0585476 C15.796386,69.0585476 15.2481995,66.3576914 15.8708612,65.5752221 C15.8708612,65.5752221 16.9855477,68.3318859 17.9268657,69.0422704 C18.8730673,69.7549802 20.1684478,70.2467848 20.8545966,70.1316816 C20.8545966,70.1316816 19.3760803,69.1445844 19.1160275,68.6492917 C18.8608583,68.1586498 16.879329,62.9801679 16.2554464,62.0639928 C16.2554464,62.0639928 13.7245097,60.3118661 13.1751023,59.9014476 C10.5574813,56.1786144 14.5339699,40.0048691 8.96786264,36.1553061 C8.96786264,36.1553061 9.16931202,37.3063382 9.11315037,37.920222 C9.11315037,37.920222 5.78129982,38.6201426 8.08881083,52.6952889 C8.08881083,52.6952889 7.63463406,42.5208625 8.77862232,40.5234149 C10.5403887,42.5987607 9.65401142,57.9086506 11.2546183,60.4955662 C11.2546183,60.4955662 13.4681196,62.8069317 12.8979568,67.1122569 C12.8979568,67.1122569 12.3827348,63.9870303 11.708795,63.303387 C11.708795,63.303387 12.2545397,67.5133742 10.961601,70.9374041 C9.66622047,74.3660846 10.12406,76.8320838 10.3340557,77.6133904 C10.3340557,77.6133904 12.3326776,70.4862925 12.9809784,68.6179 C12.9809784,68.6179 14.5791434,70.9769345 14.5791434,72.5895421 C14.5791434,74.2009871 14.7183266,76.9018433 15.3556392,77.6029265" id="Fill-304" fill="#F2F2F2" mask="url(#mask-6)"></path>
                        <path d="M16.0028696,18.3186884 C16.0028696,18.3186884 10.6989447,20.0519484 10.0941937,21.2857745 C9.48944272,22.5196006 5.63386109,29.9567972 6.4068599,31.7620796 C6.4068599,31.7620796 8.62584891,25.852702 10.7189462,23.4015796 C10.7189462,23.4015796 8.44348236,31.5058688 10.0941937,31.9450873 C10.0941937,31.9450873 9.70828256,34.101036 9.19530313,34.7090938 C9.19530313,34.7090938 16.1334676,24.986072 16.0028696,18.3186884" id="Fill-305" fill="#F2F2F2" mask="url(#mask-6)"></path>
                        <path d="M14.064728,21.2111129 C14.064728,21.2111129 13.6117479,24.412668 12.1247655,26.0318204 C12.1247655,26.0318204 12.4835257,22.5773403 14.064728,21.2111129" id="Fill-306" fill="url(#linearGradient-7)" mask="url(#mask-6)"></path>
                        <path d="M40.2542214,22.1813376 C40.2542214,22.1813376 35.2446387,22.3807537 33.9493433,21.6931837 C33.9493433,21.6931837 36.2819822,23.7195419 38.1839629,23.6177566 C38.1839629,23.6177566 39.6918196,22.6487191 40.2542214,22.1813376" id="Fill-307" fill="#DC1FFF" mask="url(#mask-6)"></path>
                        <path d="M27.6444653,23.7018955 C27.6444653,23.7018955 19.8691185,26.1927941 16.9746717,22.6573251 C16.9746717,22.6573251 17.7006026,28.4000273 27.6444653,23.7018955" id="Fill-308" fill="#DC1FFF" mask="url(#mask-6)"></path>
                        <path d="M32.6205727,26.8881285 C32.6205727,26.8881285 36.2794043,34.1682067 35.6259587,37.8907329 C35.6259587,37.8907329 34.0224683,33.0687711 32.7341146,31.8503184 C32.7341146,31.8503184 35.0848966,44.6004715 33.4790889,46.9431059 C33.4790889,46.9431059 38.2223621,46.8040562 38.3127322,38.6519713 C38.3127322,38.6519713 37.6117844,41.4777446 36.2562325,43.0626758 C36.2562325,43.0626758 37.8631987,37.0646832 37.5689165,34.3520351 C37.2746343,31.6429222 37.2282906,27.9651747 38.2003488,26.290686 C37.5573306,28.2432742 41.301898,35.893366 39.9625663,43.0827084 C39.9625663,43.0827084 39.331134,49.4460011 33.4350624,50.1353578 C33.4350624,50.1353578 35.7151703,49.3104865 36.3037347,47.2671625 C36.3037347,47.2671625 34.4268167,49.2197507 30.6776149,47.2188486 C30.6776149,47.2188486 33.8857545,44.0466294 30.2269229,39.5004103 C30.2269229,39.5004103 29.0984549,33.9855566 29.999839,30.9759549 C29.999839,30.9759549 27.8321145,35.5469201 27.946815,38.1452646 C27.946815,38.1452646 27.5621627,32.7223252 28.9605825,30.2194301 C28.9605825,30.2194301 26.4302189,31.2080972 24.9842968,32.3546683 C24.9842968,32.3546683 23.2255551,31.7819719 22.7945591,30.7933048 C22.7945591,30.7933048 26.9087171,27.6210855 28.7381329,27.1155573 C28.7381329,27.1155573 25.1221692,27.2793532 23.8790006,27.8720821 C23.8790006,27.8720821 29.9558125,24.4971802 32.6205727,26.8881285" id="Fill-309" fill="#F2F2F2" mask="url(#mask-6)"></path>
                        <path d="M43.6876626,20.2469714 C43.6876626,20.2469714 39.4607812,23.204468 39.7872089,28.1626588 C39.7872089,28.1626588 40.4114722,26.324374 41.3657371,25.4334766 C41.3657371,25.4334766 41.4348349,31.6968261 44.3154998,31.9710388 C44.3154998,31.9710388 41.898267,33.9893861 42.4784505,37.9131003 C42.4784505,37.9131003 42.9454566,36.1936803 43.8973388,35.5734651 C43.8973388,35.5734651 43.9890721,43.3738183 45.9869527,43.0548842 C47.9848332,42.7324193 47.9848332,41.0094687 48.1218375,40.3009876 C48.1218375,40.3009876 49.1463916,43.2137628 48.9116972,46.8644411 C48.9116972,46.8644411 52.3284661,50.1185112 53.3959085,51.4719219 C53.3959085,51.4719219 53.6294115,54.9860823 57.274918,57.1633082 C57.274918,57.1633082 58.8796557,58.7462103 61.2480435,58.7226727 C61.2480435,58.7226727 59.6921509,56.6572503 58.323299,55.7863599 C58.323299,55.7863599 56.9496816,54.4800244 56.9294288,53.9280682 C56.9294288,53.9280682 60.0864851,54.9142927 61.0145405,55.7863599 C61.0145405,55.7863599 62.3393128,58.1742472 62.4560643,59.6665296 C62.4560643,59.6665296 61.3647951,61.7743197 61.5017994,63.151268 L65.4737336,59.574733 L63.3388487,53.0112795 L56.0216262,48.8804346 L51.8400159,36.0548086 L47.2199916,30.0209505 L44.8944921,20.5211842 L43.6876626,20.2469714" id="Fill-310" fill="#F2F2F2" mask="url(#mask-6)"></path>
                        <path d="M21.4336391,35.1911646 C21.4336391,35.1911646 22.1012347,41.4880482 24.5490852,44.9984332 C24.5490852,44.9984332 22.0857645,43.2258396 21.5145597,41.9775996 C21.5145597,41.9775996 21.7275715,48.2315605 31.0393996,51.6793015 C31.0393996,51.6793015 20.35073,55.2256488 16.9746717,40.7734424 C16.9746717,40.7734424 18.8989178,45.72812 22.2499859,46.9786802 C22.2499859,46.9786802 18.1658717,43.5320992 21.4336391,35.1911646" id="Fill-311" fill="#F2F2F2" mask="url(#mask-6)"></path>
                        <path d="M38.0771192,49.1712163 C38.0771192,49.1712163 36.0242538,53.9127921 31.0393996,55.438136 C31.0393996,55.438136 36.8962779,55.4598268 40.2542214,50.8826591 L39.73361,49.4920405 L38.0771192,49.1712163" id="Fill-312" fill="#F2F2F2" mask="url(#mask-6)"></path>
                        <path d="M41.7091932,52.8241732 C41.7091932,52.8241732 38.32652,57.5224256 29.5844278,58.3305605 C29.5844278,58.3305605 37.7267382,56.7441807 40.2562005,52.0636408 L41.7091932,52.8241732" id="Fill-313" fill="#F2F2F2" mask="url(#mask-6)"></path>
                        <path d="M41.0347544,55.9202068 C41.0347544,55.9202068 34.9321453,62.5977419 28.1294559,64.9213015 C28.1294559,64.9213015 34.1226775,64.0077847 38.3912223,60.6809473 C38.3912223,60.6809473 37.245084,64.0350538 35.5678084,65.9791176 C35.5678084,65.9791176 39.9007703,63.2771985 40.922936,61.6989959 C40.922936,61.6989959 36.5389266,69.3525397 29.2841021,73.2747537 C29.2841021,73.2747537 37.947595,70.8046224 43.1641651,60.8468347 L41.0347544,55.9202068" id="Fill-314" fill="#F2F2F2" mask="url(#mask-6)"></path>
                        <path d="M32.4943715,59.294702 C32.4943715,59.294702 28.8639742,60.5178707 26.6744841,60.9917401 C26.6744841,60.9917401 29.8651463,62.1465935 32.4943715,59.294702" id="Fill-315" fill="#F2F2F2" mask="url(#mask-6)"></path>
                        <path d="M43.3222847,65.5616217 C43.3222847,65.5616217 40.8473036,68.9559292 39.998807,72.1168341 C37.9146125,79.8859747 32.1149587,83.8807954 31.0393996,87.2715843 C31.0393996,87.2715843 33.3231701,84.4555054 34.9926769,83.2462687 C36.6609886,82.0405506 39.3283752,77.8041171 39.3283752,77.8041171 C39.3283752,77.8041171 37.2226694,83.1031777 35.86866,84.7416875 C34.5122605,86.3801974 32.6168863,91.2898626 32.4710883,92.3724286 C32.4710883,92.3724286 34.6365473,87.9143212 36.3909037,86.7871859 C36.3909037,86.7871859 35.0775265,92.0663075 35.3488065,93.5382688 C35.3488065,93.5382688 33.5143806,95.6482754 31.738513,96.361385 C31.738513,96.361385 34.5564779,96.8739324 36.8916362,94.704109 L45.1041276,71.4342194 L43.3222847,65.5616217" id="Fill-316" fill="#F2F2F2" mask="url(#mask-6)"></path>
                        <path d="M35.2557343,97.8603618 C35.2557343,97.8603618 29.4362652,115.978009 34.693693,126.848597 C34.693693,126.848597 33.5379956,126.848597 33.0544059,126.501663 C33.0544059,126.501663 40.1419806,135.111926 48.0140713,131.818976 L38.1502469,126.319435 L36.5039343,115.251434 L35.2557343,97.8603618" id="Fill-317" fill="#F2F2F2" mask="url(#mask-6)"></path>
                        <path d="M24.1600781,86.7727346 L23.3045547,88.9491781 C23.3045547,88.9491781 24.2633811,93.9893629 23.4020378,95.9320788 C23.4020378,95.9320788 25.7430875,92.1762386 24.1600781,86.7727346" id="Fill-318" fill="#DC1FFF" mask="url(#mask-6)"></path>
                        <path d="M22.2348535,95.9320788 C22.2348535,95.9320788 20.5552986,99.1967161 22.6732458,107.851774 C24.7911929,116.505672 26.0312167,122.318234 26.1894934,123.658881 C26.1894934,123.658881 24.8720392,131.23655 25.4368251,133.051526 L21.0483476,132.868289 L22.2348535,122.687028 L21.1246393,113.639982 L20.0929941,105.509121 L19.8846154,98.7212272 L22.2348535,95.9320788" id="Fill-319" fill="#DC1FFF" mask="url(#mask-6)"></path>
                        <path d="M28.3258741,120.999758 C28.3258741,120.999758 26.3633526,127.59227 29.0994371,127.254098 C28.0624286,126.288417 28.1117629,123.607462 28.3258741,120.999758" id="Fill-320" fill="url(#linearGradient-8)" mask="url(#mask-6)"></path>
                        <path d="M26.1894934,79.5416734 C26.1894934,79.5416734 23.0083635,89.3240419 18.8462157,93.6195125 C18.3569031,96.5570374 16.9320345,99.2494755 16.1962711,100.27673 C16.1962711,100.27673 14.9819624,101.478711 13.5582901,101.681582 C13.5582901,101.681582 14.9341078,102.16941 15.711744,102.093187 C15.9701584,104.563992 11.2445235,116.848827 11.2038472,121.504305 C11.2038472,121.504305 10.050553,116.459502 10.050553,114.453073 C10.050553,114.453073 8.49767347,128.530912 10.9250945,133.329455 C10.9250945,133.329455 8.70344795,132.342072 8.21413538,130.85396 C8.21413538,130.85396 8.76924793,134.305112 10.6224146,136.263462 C11.835527,137.54753 11.6297525,139.725168 11.6297525,139.725168 C11.6297525,139.725168 7.09433936,138.7929 6.31670324,134.851574 C6.31670324,134.851574 5.74364524,141.688209 12.5760758,142.180728 C16.7298491,142.477412 17.1473799,140.486228 17.1473799,140.486228 C17.1473799,140.486228 19.8056991,141.585015 21.5117131,140.577696 L15.8768421,133.73637 L15.059726,121.293226 L17.5481616,108.909887 L19.3486883,100.859544 L22.1398038,93.7180163 L23.0861271,90.1601518 L23.3014725,89.1188256 C23.3014725,89.1188256 25.8246026,82.1461616 26.1894934,79.5416734" id="Fill-321" fill="#F2F2F2" mask="url(#mask-6)"></path>
                        <path d="M11.3536258,95.4500081 C11.3536258,95.4500081 9.1687667,101.949451 12.6097561,102.681069 C12.6097561,102.681069 10.6202465,99.350824 11.3536258,95.4500081" id="Fill-322" fill="#DC1FFF" mask="url(#mask-6)"></path>
                        <path d="M9.21482176,84.2523973 C9.21482176,84.2523973 16.3131781,84.4260856 25.7045028,77.6133904 C25.7045028,77.6133904 19.4151503,84.5734922 9.51493609,85.3265224 L9.21482176,84.2523973" id="Fill-323" fill="#DC1FFF" mask="url(#mask-6)"></path>
                        <path d="M2.90994371,37.6015183 C2.90994371,37.6015183 3.71106182,39.9373656 3.59128681,41.5152153 C3.47249356,43.093065 3.96730181,46.2870016 4.84990619,47.2429333 C4.84990619,47.2429333 4.22157826,44.5157163 4.23826822,42.8805107 C4.25593995,41.2408067 4.27164815,38.8251109 2.90994371,37.6015183" id="Fill-324" fill="#DC1FFF" mask="url(#mask-6)"></path>
                        <path d="M40.3266523,44.7354896 L39.7692308,43.186429 L40.0574296,42.4222258 C45.0884554,49.1887519 47.2208893,47.5203563 52.4997898,54.5129305 C52.4997898,54.5129305 53.1046514,57.9667619 57.0789484,58.6185148 C57.0789484,58.6185148 58.0692611,59.6271254 60.1388368,59.479104 C60.1388368,59.479104 58.8793013,60.1813448 56.7907496,59.4286161 C56.7907496,59.4286161 54.756754,59.8554684 52.8887988,58.01266 L49.8597465,54.5129305 L46.4748932,51.796911 L40.3266523,44.7354896" id="Fill-325" fill="#DC1FFF" mask="url(#mask-6)"></path>
                        <path d="M55.2889306,63.5980581 C55.2889306,63.5980581 57.6649457,63.4533055 58.5597454,62.9875799 C59.4557593,62.5243716 61.5938086,62.7031096 61.5938086,62.7031096 L59.8369901,64.223641 L55.8704897,64.5974802 L55.2889306,63.5980581" id="Fill-326" fill="#DC1FFF" mask="url(#mask-6)"></path>
                        <path d="M54.8332168,58.7774965 C54.8332168,58.7774965 54.8787586,60.8002772 55.950026,61.1321488 C55.950026,61.1321488 55.8020152,62.3100592 56.3454117,62.9749709 L56.7439024,64.2346807 L54.9801927,65.079551 L54.0983378,62.2434512 L53.3489681,58.5963694 L53.8633835,57.8484897 L54.8332168,58.7774965" id="Fill-327" fill="#DC1FFF" mask="url(#mask-6)"></path>
                    </g>
                    <g id="Fill-329">
                        <use fill="black" fill-opacity="1" filter="url(#filter-11)" xlink:href="#path-10"></use>
                        <use fill="url(#linearGradient-9)" fill-rule="evenodd" xlink:href="#path-10"></use>
                    </g>
                    <g id="Group-370" transform="translate(25.109756, 21.068421)">
                        <mask id="mask-13" fill="white">
                            <use xlink:href="#path-12"></use>
                        </mask>
                        <g id="Clip-331"></g>
                        <path d="M39.1839082,27.2890803 L34.6745003,31.2559277 C34.6745003,31.2559277 34.7435923,30.0409935 33.6853324,29.2073975 C32.6224663,28.3738014 30.4760065,30.615326 31.1346841,31.6849332 C31.1346841,31.6849332 31.6908751,30.1746944 32.3069459,30.9059801 C32.9253198,31.6372659 30.9953485,33.634641 30.4368544,33.1940093 C29.8772087,32.7498898 29.9232701,32.2778676 30.0752726,32.0034901 C30.0752726,32.0034901 27.9449343,33.3753775 28.89495,34.4717248 C28.89495,34.4717248 26.4502429,36.2888944 23.1902496,35.8436123 C23.1902496,35.8436123 26.1105403,35.3401993 27.22868,34.0903866 C27.22868,34.0903866 23.4827392,34.668207 21.1301548,33.6183643 C21.1301548,33.6183643 24.8887625,33.7718297 26.7461872,32.522017 C26.7461872,32.522017 21.1739131,33.5288429 17.7780388,31.4524099 C17.7780388,31.4524099 27.3035298,33.040544 31.3799609,28.8028069 C29.9819983,30.2537523 15.7686116,33.7206746 13.2651762,26.0904227 C13.2651762,26.0904227 15.0178112,27.690183 16.7658402,28.0564072 C16.7658402,28.0564072 14.7299277,26.6008113 15.6442459,25.5474808 C15.6442459,25.5474808 14.9130216,25.6137499 14.3902251,25.3114697 C14.3902251,25.3114697 16.7531733,25.134752 15.1226009,21.9143043 C15.1226009,21.9143043 16.2706805,22.2328613 16.5125027,22.8071938 C16.5125027,22.8071938 16.6679598,21.0260654 15.7409747,20.0041255 C14.8105351,18.9775351 11.9720033,19.7960171 11.4549644,20.3424469 C11.4549644,20.3424469 12.0894597,19.2333108 12.9772926,18.8833632 C12.9772926,18.8833632 12.84026,17.6963318 12.907049,17.22896 C12.907049,17.22896 12.1712187,17.9800102 12.1504911,18.6833932 C12.1504911,18.6833932 11.7036958,16.2686388 13.5876058,15.0071999 C15.4772734,13.7411106 16.0495859,11.3031038 15.2515727,9.71962018 C14.4489533,8.13032347 11.7186657,9.04646524 10.7064672,9.95911917 C10.7064672,9.95911917 12.8794122,7.53738907 14.3004054,6.97468269 C14.3004054,6.97468269 8.12472745,8.040802 7.53629346,16.0407659 C7.53629346,16.0407659 6.76246247,10.5927452 10.7456193,5.10403279 C10.7456193,5.10403279 9.42941571,5.96088113 9.02062106,6.68054073 C9.02062106,6.68054073 8.934256,4.69130395 7.18277246,5.61907189 L7.82417702,4.4831956 L10.5394947,2.26492337 L14.3545275,-0.416070208 L22.4855106,-0.478851497 L34.9036556,1.47899464 L42.6177833,16.2930537 L40.2145314,18.132313 L39.1839082,27.2890803 Z" id="Fill-330" fill="#F2F2F2" mask="url(#mask-13)"></path>
                        <path d="M10.0045187,23.1297272 C9.0010156,21.7996003 10.0262784,20.8656042 10.4243517,20.5906144 C10.4243517,20.5906144 9.79716221,23.961965 13.8866934,23.5852169 C13.8866934,23.5852169 11.1475395,24.6379311 10.0045187,23.1297272 Z" id="Fill-332" fill="url(#linearGradient-14)" mask="url(#mask-13)"></path>
                        <path d="M9.33553531,20.5906144 C9.33553531,20.5906144 7.81954124,25.1028803 12.4501389,28.2522383 C12.4501389,28.2522383 9.33553531,24.6663239 9.33553531,20.5906144 Z" id="Fill-333" fill="url(#linearGradient-15)" mask="url(#mask-13)"></path>
                        <path d="M9.09817845,26.8156839 C9.09817845,26.8156839 7.4402764,24.6723053 7.18277246,23.9425749 C7.18277246,23.9425749 7.52023196,26.1775788 9.09817845,26.8156839 Z" id="Fill-334" fill="url(#linearGradient-16)" mask="url(#mask-13)"></path>
                        <path d="M6.80469211,19.6329114 C6.80469211,19.6329114 5.90015294,19.8166585 6.35102231,20.6112737 C6.67167165,21.1880693 7.52580306,21.1345271 7.66162396,20.9154908 C7.26956364,20.9897198 6.30761563,20.3849361 6.80469211,19.6329114 Z" id="Fill-335" fill="url(#linearGradient-17)" mask="url(#mask-13)"></path>
                        <path d="M5.84421101,17.6547458 C5.84421101,17.6547458 5.37158458,17.1691903 5.54684423,16.3431715 C5.08571023,16.3331156 4.90470437,17.6877865 5.84421101,17.6547458 Z" id="Fill-336" fill="url(#linearGradient-18)" mask="url(#mask-13)"></path>
                        <path d="M4.2289841,16.2809509 C4.2289841,16.2809509 3.16593377,14.6702532 3.55380349,12.9289904 C2.62147962,13.3978376 2.72347499,16.2192293 4.2289841,16.2809509 Z" id="Fill-337" fill="#DC1FFF" mask="url(#mask-13)"></path>
                        <path d="M1.79100401,17.7175054 C1.79100401,17.7175054 2.31103674,19.0372006 1.99068509,19.6329114 C1.99068509,19.6329114 3.30225934,18.3490893 1.79100401,17.7175054 Z" id="Fill-338" fill="url(#linearGradient-19)" mask="url(#mask-13)"></path>
                        <path d="M6.68491051,11.4924359 C6.68491051,11.4924359 6.59871724,10.0841613 6.39903616,9.57702995 C6.39903616,9.57702995 5.90342486,10.8137188 6.68491051,11.4924359 Z" id="Fill-339" fill="url(#linearGradient-20)" mask="url(#mask-13)"></path>
                        <path d="M6.70392096,7.30877154 C6.70392096,7.30877154 5.44513927,7.96819782 4.88582231,7.48410395 C4.88582231,7.48410395 4.49723079,6.56994946 5.27313975,5.88405791 L5.68721267,5.74621797 C5.68721267,5.74621797 5.05782183,7.23819749 6.70392096,7.30877154 Z" id="Fill-340" fill="url(#linearGradient-17)" mask="url(#mask-13)"></path>
                        <path d="M13.7692023,4.09487239 C14.1823035,4.60815443 13.4300895,5.35596983 12.692673,5.74621797 C12.692673,5.74621797 13.264849,4.82923096 12.9023065,4.44571124 C12.5385308,4.06603632 11.9712874,3.9747221 11.9712874,3.9747221 C11.9712874,3.9747221 13.3524018,3.58159035 13.7692023,4.09487239 Z" id="Fill-341" fill="url(#linearGradient-9)" mask="url(#mask-13)"></path>
                        <path d="M18.2809777,5.00443822 C18.7035741,5.87535537 20.0383737,5.82406579 21.0694659,5.62393587 C21.0694659,5.62393587 17.995644,5.04567101 19.1877767,3.83081198 C19.1877767,3.83081198 17.8529771,4.13452674 18.2809777,5.00443822 Z" id="Fill-342" fill="url(#linearGradient-21)" mask="url(#mask-13)"></path>
                        <path d="M21.2588225,4.26834318 C21.7279094,4.80051314 21.5323763,5.03286904 21.3301006,5.26736647 C21.3301006,5.26736647 21.0498043,4.05526104 19.6329114,3.83789585 C19.6329114,3.83789585 20.7887724,3.74045628 21.2588225,4.26834318 Z" id="Fill-343" fill="url(#linearGradient-22)" mask="url(#mask-13)"></path>
                        <path d="M17.8772647,10.3768779 C18.5325293,11.6695702 20.2426371,11.5416475 21.0694659,11.4193355 C21.0694659,11.4193355 17.619365,10.7595238 18.7793604,8.14047546 C18.7793604,8.14047546 17.2253207,9.08194143 17.8772647,10.3768779 Z" id="Fill-344" fill="url(#linearGradient-9)" mask="url(#mask-13)"></path>
                        <path d="M22.5750802,8.01871407 C23.4013554,9.2014879 22.8049371,10.0739877 22.2980421,10.5347329 C22.2980421,10.5347329 22.9585784,7.83324954 19.6329114,7.2570264 C19.6329114,7.2570264 21.7524343,6.83127448 22.5750802,8.01871407 Z" id="Fill-345" fill="url(#linearGradient-9)" mask="url(#mask-13)"></path>
                        <path d="M31.9997837,13.2531528 C32.651125,15.7707474 29.2673554,16.7598024 29.2673554,16.7598024 C29.2673554,16.7598024 30.2117431,16.0656656 30.5288284,15.4218807 C30.5288284,15.4218807 29.8088043,15.6616516 29.0887803,15.5357719 C29.0887803,15.5357719 32.1783589,13.3178909 29.073899,11.8696746 C29.073899,11.8696746 30.0915483,12.9246666 29.491719,14.0228174 C29.491719,14.0228174 29.0281105,10.9585451 25.5161331,11.1479642 C25.5161331,11.1479642 26.3872592,10.3627144 27.3900272,10.3303453 C27.3900272,10.3303453 26.8371311,9.60863489 24.9002779,9.41801701 C24.9002779,9.41801701 30.494487,7.45549208 31.9997837,13.2531528 Z" id="Fill-346" fill="url(#linearGradient-23)" mask="url(#mask-13)"></path>
                        <path d="M28.5401002,12.79936 C29.0489141,13.7143778 28.3800551,13.8866934 28.3800551,13.8866934 C28.3800551,13.8866934 28.0174096,12.4710878 26.8156839,11.9846778 C26.8156839,11.9846778 27.9794799,11.8003655 28.5401002,12.79936 Z" id="Fill-347" fill="#212638" mask="url(#mask-13)"></path>
                        <path d="M17.2386539,25.3791294 C17.2386539,25.3791294 17.7376003,29.6320932 24.4214264,27.7891855 C24.4214264,27.7891855 19.4479473,28.0967694 17.2386539,25.3791294 Z" id="Fill-348" fill="url(#linearGradient-24)" mask="url(#mask-13)"></path>
                        <path d="M19.6329114,22.0271689 C19.6329114,22.0271689 16.5709553,19.1686765 16.3085019,16.2809509 C16.3085019,16.2809509 15.7527908,21.1666978 19.6329114,22.0271689 Z" id="Fill-349" fill="url(#linearGradient-25)" mask="url(#mask-13)"></path>
                        <path d="M22.609105,23.9447611 C23.7841213,23.9996116 23.989695,25.0977183 23.9345147,25.5880817 C23.8793344,26.0806391 23.3924492,27.0416196 22.3689083,26.7673672 C22.3689083,26.7673672 23.4519574,26.6258529 23.3296951,25.3906199 C23.2095968,24.155387 21.4643839,24.4713258 21.0694659,24.8081078 C21.0694659,24.8081078 21.4351708,23.8921046 22.609105,23.9447611 Z" id="Fill-350" fill="url(#linearGradient-9)" mask="url(#mask-13)"></path>
                        <path d="M32.3075685,22.0434933 C33.505604,22.194324 34.253497,24.37323 32.4025204,25.3791294 C32.4025204,25.3791294 33.1527579,23.775333 32.529123,23.1806913 C31.9113493,22.5827943 30.9641745,22.6489861 30.6464958,22.8768598 C30.6464958,22.8768598 31.114222,21.8894073 32.3075685,22.0434933 Z" id="Fill-351" fill="url(#linearGradient-26)" mask="url(#mask-13)"></path>
                        <path d="M35.1184695,17.5430378 C35.6834705,18.1155343 35.4951369,19.1223064 34.5291332,19.1540599 C34.9396583,19.0279799 35.3120935,18.3835711 34.6508095,17.7989335 C34.1524658,17.3609222 33.6086259,17.5878662 33.5377362,17.7867924 C33.3663314,17.477663 34.4497791,16.8706111 35.1184695,17.5430378 Z" id="Fill-352" fill="url(#linearGradient-9)" mask="url(#mask-13)"></path>
                        <path d="M34.145767,8.07692884 C34.8738188,8.7117645 35.4201585,10.2400294 34.3780215,10.5347329 C34.5898184,10.1724689 34.4430047,9.33378696 33.8653768,8.76301729 C33.3647659,8.26563229 32.4453748,7.96743425 32.083154,8.29358835 C32.0699167,7.65176368 33.3274608,7.36754368 34.145767,8.07692884 Z" id="Fill-353" fill="url(#linearGradient-9)" mask="url(#mask-13)"></path>
                        <path d="M17.2152686,1.7182749 C17.4273618,2.22311457 16.1379847,2.77171412 15.721273,2.87310898 C15.721273,2.87310898 16.9433782,2.08970028 16.8237839,1.80472735 C16.7004521,1.51975443 15.721273,1.54110072 15.3232479,1.54110072 C15.3232479,1.54110072 17.0041098,1.21343522 17.2152686,1.7182749 Z" id="Fill-354" fill="url(#linearGradient-22)" mask="url(#mask-13)"></path>
                        <path d="M24.4716421,4.30966348 C24.4716421,4.30966348 25.6438706,5.03412515 25.6438706,6.22506947 C25.6438706,6.22506947 26.4540873,4.32144334 24.4716421,4.30966348 Z" id="Fill-355" fill="url(#linearGradient-27)" mask="url(#mask-13)"></path>
                        <path d="M30.5692409,18.6818524 C30.8350035,19.3561361 30.3063515,19.5212901 30.0290965,19.6329114 C30.0290965,19.6329114 30.4428241,18.6351537 29.2145701,18.2308112 C29.2145701,18.2308112 30.2962956,18.0109856 30.5692409,18.6818524 Z" id="Fill-356" fill="url(#linearGradient-28)" mask="url(#mask-13)"></path>
                        <path d="M25.7519308,14.1600343 C24.673592,12.5171639 24.9668347,11.7348447 25.1046939,11.4924359 C25.1046939,11.4924359 23.6501633,12.5281825 24.9855275,14.7495284 C26.3208917,16.973078 28.7310898,16.1202398 28.7310898,16.1202398 C28.7310898,16.1202398 26.8255963,15.8073121 25.7519308,14.1600343 Z" id="Fill-357" fill="#212638" mask="url(#mask-13)"></path>
                        <path d="M22.0279264,14.1790074 C23.5984271,16.4981963 22.9855488,17.9051785 21.973371,18.6752084 C21.973371,18.6752084 22.3854388,16.7472902 21.2583463,15.4745229 C21.2583463,15.4745229 21.4034406,16.2593392 21.0586965,16.8860548 C21.0586965,16.8860548 20.4620688,14.5975761 18.523609,14.7636386 C18.523609,14.7636386 19.04827,14.3166346 19.5044464,14.3325584 C19.5044464,14.3325584 18.934516,13.281587 17.2386539,13.4783598 C17.2386539,13.4783598 20.4620688,11.8598185 22.0279264,14.1790074 Z" id="Fill-358" fill="url(#linearGradient-9)" mask="url(#mask-13)"></path>
                        <path d="M26.8774235,19.3984109 C27.5419646,19.9897425 27.3071191,20.7057455 26.9010106,21.0694659 C26.9010106,21.0694659 26.4743916,19.4407306 25.3791294,19.4681812 C25.3791294,19.4681812 26.2108313,18.8105107 26.8774235,19.3984109 Z" id="Fill-359" fill="url(#linearGradient-9)" mask="url(#mask-13)"></path>
                        <path d="M16.5870416,6.18205381 C16.8053979,6.69777687 16.5238332,6.98365122 16.4362034,7.10575835 C16.4362034,7.10575835 16.372995,6.08005844 15.4148132,5.85739249 C15.4148132,5.85739249 16.372995,5.6677673 16.5870416,6.18205381 Z" id="Fill-360" fill="url(#linearGradient-29)" mask="url(#mask-13)"></path>
                        <path d="M19.9017862,16.4014035 C20.3919222,17.0639051 19.889409,17.4504702 19.7470715,17.7175054 C19.7470715,17.7175054 19.4661097,16.1178376 18.6752084,15.8037534 C18.6752084,15.8037534 19.416601,15.7401736 19.9017862,16.4014035 Z" id="Fill-361" fill="url(#linearGradient-30)" mask="url(#mask-13)"></path>
                        <path d="M26.3368324,16.7598024 C26.3368324,16.7598024 24.5252873,15.459353 24.4244812,14.8443964 C24.4244812,14.8443964 24.2604242,16.5680631 26.3368324,16.7598024 Z" id="Fill-362" fill="#212638" mask="url(#mask-13)"></path>
                        <path d="M9.51422296,13.4875992 C8.61817586,12.1915164 9.35829582,10.5265981 9.96918848,10.0558814 C9.96918848,10.0558814 8.87449446,13.6926511 12.4501389,13.9970049 C12.4501389,13.9970049 10.6377528,15.1009321 9.51422296,13.4875992 Z" id="Fill-363" fill="url(#linearGradient-31)" mask="url(#mask-13)"></path>
                        <path d="M8.86436294,17.7175054 C8.86436294,17.7175054 8.27681215,16.817527 7.91767353,16.2809509 C7.91767353,16.2809509 7.66483994,17.4695522 8.86436294,17.7175054 Z" id="Fill-364" fill="url(#linearGradient-32)" mask="url(#mask-13)"></path>
                        <path d="M11.9712874,32.0830503 C11.9712874,32.0830503 9.04301859,30.4135418 7.66162396,30.1722199 C7.66162396,30.1722199 11.6235405,29.9802593 11.9712874,32.0830503 Z" id="Fill-365" fill="#DC1FFF" mask="url(#mask-13)"></path>
                        <path d="M18.1963569,33.8320282 C18.1963569,33.8320282 19.700188,34.4641121 21.0694659,34.6724125 C21.0694659,34.6724125 19.8347414,33.6179815 18.1963569,33.8320282 Z" id="Fill-366" fill="url(#linearGradient-33)" mask="url(#mask-13)"></path>
                        <path d="M16.7598024,36.9561832 C16.7598024,36.9561832 15.4526816,36.9360714 14.8443964,36.3671958 C14.8443964,36.3671958 15.7626834,36.0324786 16.7598024,36.9561832 Z" id="Fill-367" fill="url(#linearGradient-34)" mask="url(#mask-13)"></path>
                        <path d="M4.63804966,23.7340469 C5.07873672,24.6807141 4.41112872,25.3791294 4.41112872,25.3791294 C4.41112872,25.3791294 3.98140403,23.2187864 2.87310898,22.5060131 C2.87310898,22.5060131 4.05923682,22.4916842 4.63804966,23.7340469 Z" id="Fill-368" fill="#DC1FFF" mask="url(#mask-13)"></path>
                        <path d="M7.62934458,32.873161 C0.226801636,25.7143141 0.73368374,19.0734885 2.5949273,11.0135844 L-1.91540599,18.3201078 L-1.64246947,36.9377247 L13.4194978,40.2235258 L26.3564594,38.2495069 L27.2945354,36.5131548 C27.2945354,36.5131548 15.5674394,40.5511829 7.62934458,32.873161 Z" id="Fill-369" fill="#DC1FFF" mask="url(#mask-13)"></path>
                    </g>
                    <path d="M92.8005269,33.6781772 C88.8832491,36.1906767 86.7165713,41.0682206 87.6834793,45.638182 C88.4068873,49.061909 90.8064268,52.107782 94.012117,53.6583663 C98.2083561,55.6881803 103.63628,55.0108076 107.185944,51.9130949 C111.014568,48.5746155 112.274622,42.7662602 109.807706,38.0603635 C113.457843,41.0451807 113.070135,49.475475 108.068927,53.4717432 C105.388062,55.6179086 101.8975,56.7906388 98.4364896,56.5809758 C93.1799615,56.2607214 88.2875013,52.7275549 86.4695251,47.8384911 C84.413959,42.3227424 87.8761517,33.709281 92.8005269,33.6781772" id="Fill-371" fill="#DC1FFF"></path>
                    <path d="M99.8717455,40.2571803 C97.670284,40.2571803 95.8838812,42.0435831 95.8838812,44.2450446 C95.8838812,46.4417894 97.670284,48.2317296 99.8717455,48.2317296 C102.06849,48.2317296 103.858431,46.4417894 103.858431,44.2450446 C103.858431,42.0435831 102.06849,40.2571803 99.8717455,40.2571803 M99.6219512,49.7269576 C96.4603166,49.7269576 93.8902439,47.1567641 93.8902439,43.9975922 C93.8902439,40.8372494 96.4603166,38.263543 99.6219512,38.263543 C102.782414,38.263543 105.353659,40.8372494 105.353659,43.9975922 C105.353659,47.1567641 102.782414,49.7269576 99.6219512,49.7269576" id="Fill-372" fill="#DC1FFF"></path>
                    <path d="M107.645755,34.8245186 C108.276683,34.8245186 108.792683,35.3368763 108.792683,35.9690974 C108.792683,36.6048439 108.276683,37.1172015 107.645755,37.1172015 C107.011309,37.1172015 106.5,36.6048439 106.5,35.9690974 C106.5,35.3368763 107.011309,34.8245186 107.645755,34.8245186" id="Fill-373" fill="#DC1FFF"></path>
                    <path d="M97.3292683,55.8869953 L95.7820909,55.458665 L78.9878049,118.580595 L79.456822,119.033773 C79.9142584,119.220724 80.149346,119.437255 80.3612722,119.653787 L97.3292683,55.8869953" id="Fill-374" fill="#DC1FFF"></path>
                    <path d="M13.6449603,42.8489089 C14.278901,42.8489089 14.7926829,43.3639318 14.7926829,43.9952503 C14.7926829,44.6279533 14.278901,45.1415918 13.6449603,45.1415918 C13.013782,45.1415918 12.5,44.6279533 12.5,43.9952503 C12.5,43.3639318 13.013782,42.8489089 13.6449603,42.8489089" id="Fill-375" fill="url(#linearGradient-9)"></path>
                </g>
            </g>
        </g>
    </g>
</svg>