<?xml version="1.0" encoding="UTF-8"?>
<svg width="30px" height="30px" viewBox="0 0 28 28" version="1.1" xmlns="http://www.w3.org/2000/svg" xmlns:xlink="http://www.w3.org/1999/xlink">
    <title>mediumWhite</title>
    <g id="Platform" stroke="none" stroke-width="1" fill="none" fill-rule="evenodd">
        <g id="Homepage-Solanium" transform="translate(-210.000000, -3225.000000)" fill-rule="nonzero">
            <g id="mediumWhite" transform="translate(210.000000, 3225.000000)">
                <path d="M0,14 C0,6.26801312 6.26801312,0 14,0 C21.7319869,0 28,6.26801312 28,14 C28,21.7319869 21.7319869,28 14,28 C6.26801312,28 0,21.7319869 0,14 Z" id="Combined-Shape" fill="#170D69"></path>
                <path d="M15.7222439,14.0000945 C15.7222439,17.0928447 13.2473361,19.6 10.1945491,19.6 C7.14176225,19.6 4.66666667,17.0922778 4.66666667,14.0000945 C4.66666667,10.9079111 7.14157444,8.4 10.1945491,8.4 C13.2475239,8.4 15.7222439,10.9073442 15.7222439,14.0000945" id="Combined-Shape-path" fill="#FFFFFF"></path>
                <path d="M21.7863125,14.0000945 C21.7863125,16.9112517 20.5488586,19.27215 19.0223713,19.27215 C17.4958839,19.27215 16.2584301,16.9112517 16.2584301,14.0000945 C16.2584301,11.0889373 17.4956961,8.728039 19.0221835,8.728039 C20.5486708,8.728039 21.7861247,11.0881814 21.7861247,14.0000945" id="Combined-Shape-path" fill="#FFFFFF"></path>
                <path d="M24.2666667,14.0000945 C24.2666667,16.6077779 23.8315201,18.7230248 23.2945827,18.7230248 C22.7576453,18.7230248 22.3226865,16.6083448 22.3226865,14.0000945 C22.3226865,11.3918442 22.7578331,9.27716421 23.2945827,9.27716421 C23.8313323,9.27716421 24.2666667,11.3916552 24.2666667,14.0000945" id="Combined-Shape-path" fill="#FFFFFF"></path>
            </g>
        </g>
    </g>
</svg>
