<?xml version="1.0" encoding="UTF-8"?>
<svg width="218px" height="347px" viewBox="0 0 218 347" version="1.1" xmlns="http://www.w3.org/2000/svg" xmlns:xlink="http://www.w3.org/1999/xlink">
    <title>God RA</title>
    <defs>
        <filter x="-61.9%" y="-26.5%" width="223.7%" height="153.1%" filterUnits="objectBoundingBox" id="filter-1">
            <feGaussianBlur stdDeviation="20" in="SourceGraphic"></feGaussianBlur>
        </filter>
        <linearGradient x1="55.994987%" y1="-149.13378%" x2="55.994987%" y2="100%" id="linearGradient-2">
            <stop stop-color="#7C71D2" offset="0%"></stop>
            <stop stop-color="#170D69" offset="100%"></stop>
        </linearGradient>
        <path d="M57.3099676,28.4313174 C62.1164235,31.7024061 58.7362442,36.3076754 58.7362442,36.3076754 C58.5724152,35.3199727 57.7496559,34.6691235 57.7496559,34.6691235 C57.443681,35.1972617 55.989698,35.8481109 55.989698,35.8481109 C55.619878,36.5639247 55.4560489,38.3384212 55.4560489,38.3384212 C69.8597565,44.6965321 67.1023686,57.6738155 67.1023686,57.6738155 C72.7002635,59.8705819 70.0729752,70.6523019 70.0729752,70.6523019 C72.0063992,72.9056116 72.315988,78.7476148 72.315988,78.7476148 C76.8176736,73.8488016 82.8263458,72.0670869 82.8263458,72.0670869 C83.9309874,71.3560853 88.6145715,67.0142835 88.6145715,67.0142835 C90.1589015,64.4722422 92.9536327,61.759368 95.6700633,61.636657 C98.38288,61.5139461 99.3526036,63.3774681 99.3526036,63.3774681 C102.977322,61.4297327 104.163878,58.6386603 106.811645,59.9680288 C105.402233,61.0351328 103.430261,64.3050184 103.430261,64.3050184 C104.72162,64.0728301 108.864327,61.1602498 110.193029,60.6970762 C111.515708,60.2339025 114.103243,61.0303206 114.103243,61.0303206 C112.84441,65.4972394 106.974269,68.5445611 106.974269,68.5445611 C103.09658,69.7692644 93.1523959,69.9437064 93.1523959,69.9437064 C88.6964861,73.1979524 87.0473537,82.2099882 77.9668864,87.6405488 C88.8747706,88.018306 98.2527805,93.5306739 98.2527805,93.5306739 C102.285867,92.7246314 108.794459,101.215747 108.794459,101.215747 C108.590877,102.013368 107.886171,103.058817 107.886171,103.058817 C96.1097516,105.019786 95.2460351,99.6987032 95.2460351,99.6987032 C86.6715105,93.9373042 75.4937901,96.9353009 68.5611702,95.272688 C66.2386521,102.594441 60.9358905,106.073657 60.9358905,106.073657 C72.4545199,125.40063 62.6741651,145.848844 62.6741651,145.848844 L63.958296,149.863416 C63.958296,149.863416 78.8378306,152.881865 78.2969538,167.616802 C77.7596908,182.351739 66.2964741,185.785239 66.2964741,185.785239 L67.1276658,197.042164 C67.1276658,197.042164 72.9929875,200.516567 77.0381201,202.969583 C81.082048,205.41899 84.2646687,204.592496 84.2646687,204.592496 L84.3658572,206.512561 C84.3658572,206.512561 82.9733101,208.762261 79.1269408,208.698677 C75.281776,208.62752 65.8314887,206.114352 63.2812964,207.171831 C63.2776825,207.171831 63.2776825,207.17544 63.2776825,207.17544 C61.847792,207.766137 60.2179337,207.578462 58.9591,206.683394 C57.7002663,205.784717 56.9955603,204.300155 57.0979535,202.757847 C57.4774106,194.995778 57.1304784,186.774145 57.1304784,186.774145 C45.7250838,184.307896 43.2327135,174.374325 43.2327135,174.374325 C48.2993686,180.334227 56.1487086,180.387161 56.1487086,180.387161 C54.397183,170.904733 49.5015849,170.618408 50.3677106,159.805409 C44.3469922,161.448773 34.9304343,160.655964 34.9304343,160.655964 C36.4157376,172.787504 33.377672,182.974918 33.190955,185.679371 C33.0066473,188.381418 34.5027922,188.994973 34.5835022,192.098838 C34.6690306,195.202703 33.3041898,197.571505 33.8462713,200.484085 C35.2966405,208.261793 33.7643568,208.152316 33.7643568,208.152316 L22.7420331,208.070509 C23.0311432,204.141352 26.9702687,195.187063 26.9702687,195.187063 C24.9163822,178.197613 18.2572122,174.699148 22.3264373,156.779742 C22.3264373,156.779742 8.77560458,152.557042 8.65152814,137.118321 C8.5033592,118.815143 23.6418884,111.895208 23.6418884,111.895208 C23.6418884,110.438316 24.3345481,107.814468 24.3345481,107.814468 C20.4857695,106.622247 19.9316417,102.705121 19.9316417,102.705121 C1.36474825,92.5297376 0.328770285,88.2962102 0.328770285,88.2962102 C-1.26133543,80.5341417 3.4330903,73.4590139 3.4330903,73.4590139 C6.45549578,64.1630587 12.9809523,62.1780288 12.9809523,62.1780288 C14.5987644,52.3238591 23.7768064,53.0889979 23.7768064,53.0889979 L25.1043038,52.3286713 C25.1043038,52.3286713 19.4220851,18.28601 46.5888003,20.8364727 C59.3433755,22.0323028 57.3099676,28.4313174 57.3099676,28.4313174 Z M64.1151558,163.05738 C64.1151558,163.05738 65.3482668,174.828345 65.6213798,177.184448 C65.6213798,177.184448 69.7907485,174.331821 69.5375622,168.890346 C69.2996139,163.793811 64.1151558,163.05738 64.1151558,163.05738 Z M39.121112,147.047815 C39.121112,147.047815 40.6595674,142.056781 41.2699464,138.553872 C41.8740716,135.046063 43.1686255,129.138883 44.5169628,127.19636 C44.5169628,127.19636 48.3455903,143.217886 51.0747851,147.772893 C51.0747851,147.772893 44.8234031,148.1783 39.121112,147.047815 Z M23.7019321,129.369756 C23.7019321,129.369756 25.0610266,138.654356 24.9914616,142.410126 C24.9914616,142.410126 18.617244,134.748834 23.7019321,129.369756 L23.7019321,129.369756 Z" id="path-3"></path>
        <filter x="-6.1%" y="-2.7%" width="112.4%" height="107.4%" filterUnits="objectBoundingBox" id="filter-4">
            <feOffset dx="0" dy="2" in="SourceAlpha" result="shadowOffsetOuter1"></feOffset>
            <feGaussianBlur stdDeviation="2" in="shadowOffsetOuter1" result="shadowBlurOuter1"></feGaussianBlur>
            <feColorMatrix values="0 0 0 0 0   0 0 0 0 0   0 0 0 0 0  0 0 0 0.5 0" type="matrix" in="shadowBlurOuter1"></feColorMatrix>
        </filter>
        <path d="M57.3099676,28.4313174 C62.1164235,31.7024061 58.7362442,36.3076754 58.7362442,36.3076754 C58.5724152,35.3199727 57.7496559,34.6691235 57.7496559,34.6691235 C57.443681,35.1972617 55.989698,35.8481109 55.989698,35.8481109 C55.619878,36.5639247 55.4560489,38.3384212 55.4560489,38.3384212 C69.8597565,44.6965321 67.1023686,57.6738155 67.1023686,57.6738155 C72.7002635,59.8705819 70.0729752,70.6523019 70.0729752,70.6523019 C72.0063992,72.9056116 72.315988,78.7476148 72.315988,78.7476148 C76.8176736,73.8488016 82.8263458,72.0670869 82.8263458,72.0670869 C83.9309874,71.3560853 88.6145715,67.0142835 88.6145715,67.0142835 C90.1589015,64.4722422 92.9536327,61.759368 95.6700633,61.636657 C98.38288,61.5139461 99.3526036,63.3774681 99.3526036,63.3774681 C102.977322,61.4297327 104.163878,58.6386603 106.811645,59.9680288 C105.402233,61.0351328 103.430261,64.3050184 103.430261,64.3050184 C104.72162,64.0728301 108.864327,61.1602498 110.193029,60.6970762 C111.515708,60.2339025 114.103243,61.0303206 114.103243,61.0303206 C112.84441,65.4972394 106.974269,68.5445611 106.974269,68.5445611 C103.09658,69.7692644 93.1523959,69.9437064 93.1523959,69.9437064 C88.6964861,73.1979524 87.0473537,82.2099882 77.9668864,87.6405488 C88.8747706,88.018306 98.2527805,93.5306739 98.2527805,93.5306739 C102.285867,92.7246314 108.794459,101.215747 108.794459,101.215747 C108.590877,102.013368 107.886171,103.058817 107.886171,103.058817 C96.1097516,105.019786 95.2460351,99.6987032 95.2460351,99.6987032 C86.6715105,93.9373042 75.4937901,96.9353009 68.5611702,95.272688 C66.2386521,102.594441 60.9358905,106.073657 60.9358905,106.073657 C72.4545199,125.40063 62.6741651,145.848844 62.6741651,145.848844 L63.958296,149.863416 C63.958296,149.863416 78.8378306,152.881865 78.2969538,167.616802 C77.7596908,182.351739 66.2964741,185.785239 66.2964741,185.785239 L67.1276658,197.042164 C67.1276658,197.042164 72.9929875,200.516567 77.0381201,202.969583 C81.082048,205.41899 84.2646687,204.592496 84.2646687,204.592496 L84.3658572,206.512561 C84.3658572,206.512561 82.9733101,208.762261 79.1269408,208.698677 C75.281776,208.62752 65.8314887,206.114352 63.2812964,207.171831 C63.2776825,207.171831 63.2776825,207.17544 63.2776825,207.17544 C61.847792,207.766137 60.2179337,207.578462 58.9591,206.683394 C57.7002663,205.784717 56.9955603,204.300155 57.0979535,202.757847 C57.4774106,194.995778 57.1304784,186.774145 57.1304784,186.774145 C45.7250838,184.307896 43.2327135,174.374325 43.2327135,174.374325 C48.2993686,180.334227 56.1487086,180.387161 56.1487086,180.387161 C54.397183,170.904733 49.5015849,170.618408 50.3677106,159.805409 C44.3469922,161.448773 34.9304343,160.655964 34.9304343,160.655964 C36.4157376,172.787504 33.377672,182.974918 33.190955,185.679371 C33.0066473,188.381418 34.5027922,188.994973 34.5835022,192.098838 C34.6690306,195.202703 33.3041898,197.571505 33.8462713,200.484085 C35.2966405,208.261793 33.7643568,208.152316 33.7643568,208.152316 L22.7420331,208.070509 C23.0311432,204.141352 26.9702687,195.187063 26.9702687,195.187063 C24.9163822,178.197613 18.2572122,174.699148 22.3264373,156.779742 C22.3264373,156.779742 8.77560458,152.557042 8.65152814,137.118321 C8.5033592,118.815143 23.6418884,111.895208 23.6418884,111.895208 C23.6418884,110.438316 24.3345481,107.814468 24.3345481,107.814468 C20.4857695,106.622247 19.9316417,102.705121 19.9316417,102.705121 C1.36474825,92.5297376 0.328770285,88.2962102 0.328770285,88.2962102 C-1.26133543,80.5341417 3.4330903,73.4590139 3.4330903,73.4590139 C6.45549578,64.1630587 12.9809523,62.1780288 12.9809523,62.1780288 C14.5987644,52.3238591 23.7768064,53.0889979 23.7768064,53.0889979 L25.1043038,52.3286713 C25.1043038,52.3286713 19.4220851,18.28601 46.5888003,20.8364727 M64.1859702,162.547156 C64.1859702,162.547156 65.4532363,174.41162 65.733914,176.786437 C65.733914,176.786437 70.0187671,173.911151 69.7585679,168.426454 M39.5983583,147.157761 C39.5983583,147.157761 41.0800477,142.255338 41.667905,138.81462 C42.2497391,135.369089 43.4965265,129.566786 44.7951129,127.658752 C44.7951129,127.658752 48.4824716,143.395828 51.1109646,147.869965 M23.4876963,128.871424 C23.4876963,128.871424 24.7585762,138.19505 24.6935265,141.966607 C24.6935265,141.966607 18.7330393,134.273112 23.4876963,128.871424" id="path-5"></path>
        <linearGradient x1="78.9447889%" y1="-14.6833853%" x2="21.3759547%" y2="100%" id="linearGradient-7">
            <stop stop-color="#7C71D2" offset="0%"></stop>
            <stop stop-color="#170D69" offset="100%"></stop>
        </linearGradient>
        <linearGradient x1="88.5359616%" y1="41.5953579%" x2="11.891064%" y2="56.496755%" id="linearGradient-8">
            <stop stop-color="#7C71D2" offset="0%"></stop>
            <stop stop-color="#170D69" offset="100%"></stop>
        </linearGradient>
        <linearGradient x1="54.084937%" y1="-14.6833853%" x2="45.9603291%" y2="100%" id="linearGradient-9">
            <stop stop-color="#7C71D2" offset="0%"></stop>
            <stop stop-color="#170D69" offset="100%"></stop>
        </linearGradient>
    </defs>
    <g id="Platform" stroke="none" stroke-width="1" fill="none" fill-rule="evenodd">
        <g id="Calculator" transform="translate(-1087.000000, -254.000000)">
            <g id="Calculator-empty" transform="translate(810.000000, 240.000000)">
                <g id="God-RA" transform="translate(333.000000, 74.300000)">
                    <ellipse id="Oval-Copy" fill-opacity="0.8" fill="#46BAD4" filter="url(#filter-1)" cx="53" cy="113" rx="48.5" ry="113"></ellipse>
                    <g id="Fill-381">
                        <use fill="black" fill-opacity="1" filter="url(#filter-4)" xlink:href="#path-3"></use>
                        <use fill="url(#linearGradient-2)" fill-rule="evenodd" xlink:href="#path-3"></use>
                    </g>
                    <mask id="mask-6" fill="white">
                        <use xlink:href="#path-5"></use>
                    </mask>
                    <g id="Clip-383"></g>
                    <path d="M66.3371289,147.971757 L66.235123,149.019448 L72.5450879,154.736068 C81.850426,165.809793 74.760416,175.184432 71.3030161,178.662102 C70.8613905,179.207898 70.3405604,179.7003 69.7369255,180.122699 C69.7369255,180.122699 70.3981638,179.612498 71.3030161,178.662102 C74.2779881,175.063408 74.0787766,169.372892 74.0787766,169.372892 C71.8190459,181.458713 58.6662853,182.617936 58.6662853,182.617936 C66.7943553,179.792848 68.8728755,175.415802 68.8728755,175.415802 C57.0065893,187.102955 46.7279949,177.674923 46.7279949,177.674923 C46.7279949,177.674923 56.1581402,184.324141 65.248666,177.241846 C73.8315623,170.557032 67.273183,159.948419 67.273183,159.948419 C71.3114166,161.770903 72.1994679,167.005798 72.1994679,167.005798 C72.0986621,158.669358 65.1226587,155.010152 64.0149946,154.491646 L63.9741922,154.287566 L63.6453732,150.182231 L64.5010227,147.843614 L66.3371289,147.971757" id="Fill-382" fill="#F2F2F2" mask="url(#mask-6)"></path>
                    <path d="M43.4679022,130.456453 C43.4679022,130.456453 39.5408783,142.703102 36.9477169,147.334257 L41.17773,148.930312 L42.2713316,142.46818 L43.4679022,130.456453" id="Fill-384" fill="#F2F2F2" mask="url(#mask-6)"></path>
                    <path d="M24.4739517,110.895897 L24.0916733,128.173555 L23.6072136,132.060088 L25.0269329,141.399657 L27.1775491,144.718317 L38.1253759,147.51764 L43.8078593,145.104179 L51.5027137,146.782317 L52.1614827,148.496857 C52.1614827,148.496857 51.677023,151.332582 51.3644684,153.746042 L51.0507116,158.98916 L46.5475208,159.797287 L34.3158159,159.271883 L22.3930591,156.018747 L15.8799017,151.296179 L11.5474138,145.767911 L9.780278,136.885795 L11.1663375,127.160363 L13.869935,120.969576 L17.2647591,116.250648 L18.1663589,111.490465 L24.4739517,110.895897" id="Fill-385" fill="url(#linearGradient-7)" mask="url(#mask-6)"></path>
                    <path d="M14.8546615,80.5992605 C14.8546615,80.5992605 16.3218944,77.3332505 18.0324615,76.2457848 L19.7659165,74.4706747 C19.7659165,74.4706747 22.6341279,76.310816 23.3870184,77.0442231 C24.1447273,77.7776302 25.4312665,80.0657641 25.4312665,80.0657641 L26.6093895,82.8681259 L27.0129388,84.71188 C27.0129388,84.71188 27.0322128,86.4677217 31.1435969,86.2437254 L33.4119052,85.3766431 L35.3874898,81.4916327 L38.0352549,77.4223673 L39.745822,75.980843 C39.745822,75.980843 44.2354583,72.6702746 49.9911551,72.8701853 L56.5455182,76.0013158 L66.6161808,86.4833774 L69.5928085,87.4371679 L71.7021063,87.7057225 L84.5711121,89.7662473 L102.303188,96.5463491 L107.248172,101.212938 L107.583058,102.211287 L107.518008,103.522749 C107.518008,103.522749 105.342456,104.772792 104.7028,104.931758 L95.2729981,103.522749 L78.421503,99.8785946 L69.825301,99.4992461 L60.6569024,106.549107 L59.4787794,101.966818 L59.5486476,98.1805584 L60.1714386,95.752728 L62.04463,92.9058078 L54.5831846,86.4833774 L51.4222493,82.1431487 C51.4222493,82.1431487 47.8083752,83.2173674 45.4123766,88.2512618 L40.5167818,94.5351999 L29.6847964,98.7706561 L21.0729343,98.2853309 L17.2867988,96.2368489 L15.0992004,93.4272614 L14.1607977,89.4326615 L14.1270682,86.0642876 L14.1909133,83.4329337 C14.1909133,83.4329337 14.4499076,81.2676365 14.8546615,80.5992605" id="Fill-386" fill="url(#linearGradient-8)" mask="url(#mask-6)"></path>
                    <path d="M67.5505754,77.8855076 L68.4533002,83.2481499 C68.4533002,83.2481499 68.5269182,85.8802395 68.244515,86.9885509 L59.3077808,83.975817 L58.3652299,76.1551969 L57.9850717,74.1126858 L56.0348,70.0973083 L55.9322176,63.4174205 L56.5573666,55.3530439 C56.2254825,53.1003979 55.3082755,50.8669643 53.2481802,48.9421287 C53.9988418,47.9550952 54.2305572,47.1145556 54.1690078,45.5679628 L54.4103781,42.0797237 L55.2346575,40.260556 L59.2715753,42.5792444 L63.552277,48.14962 L65.9840824,60.8189525 L65.3927252,70.8237747 L67.5505754,77.8855076" id="Fill-387" fill="url(#linearGradient-9)" mask="url(#mask-6)"></path>
                    <path d="M59.0133078,37.0004633 L59.0581929,36.2880819 C59.0581929,36.2880819 58.9635702,32.3242569 55.6736099,31.9103055 C52.3836495,31.4915407 55.0901029,28.5974912 56.2559037,28.2966544 C55.7997735,26.5590214 54.6521694,27.5072588 52.5389279,25.5698701 C49.5765079,22.8647461 43.2270785,22.9574038 43.2270785,22.9574038 C43.2270785,22.9574038 48.9056568,24.1294638 51.0043409,26.5385645 C51.0043409,26.5385645 50.291031,27.6047299 48.8559192,28.4230059 C48.8559192,28.4230059 49.6917535,27.258166 49.8361139,26.5469879 C49.8361139,26.5469879 44.9703208,23.6697852 39.7854792,23.6697852 C39.7854792,23.6697852 34.5885065,25.7287119 33.0078212,26.9416857 C33.0078212,26.9416857 34.0256224,24.8177782 35.0883087,23.9297082 C35.0883087,23.9297082 31.8153319,25.9080106 30.4275316,27.6167634 C30.4275316,27.6167634 31.9220858,24.1908345 34.5885065,22.4820817 L38.4595475,20.4556453 L43.8578969,19.6133024 L48.4992642,19.8287016 L57.5066224,22.1643981 L61.9417607,29.810465 L60.8414679,35.4505524 L59.0133078,37.0004633" id="Fill-388" fill="#F2F2F2" mask="url(#mask-6)"></path>
                    <path d="M52.1614827,30.480278 C52.1614827,30.480278 52.0460059,30.8457447 52.0836878,31.1659324 C52.0836878,31.1659324 50.4183906,31.381547 49.9880876,31.5669756 C49.9880876,31.5669756 50.9362129,30.8597597 52.1614827,30.480278" id="Fill-389" fill="#F2F2F2" mask="url(#mask-6)"></path>
                    <path d="M51.0747851,28.7810766 C51.0747851,28.7810766 48.5159578,31.6103929 45.7779883,31.5664694 C43.0400188,31.5236172 37.2106374,29.6756162 35.8610193,27.2201853 C35.8610193,27.2201853 38.6934015,29.6252649 43.0024958,29.8534528 C43.0024958,29.8534528 39.7706751,28.9910524 38.1777627,27.447302 C38.1777627,27.447302 44.0434568,31.2632901 51.0747851,28.7810766" id="Fill-390" fill="#F2F2F2" mask="url(#mask-6)"></path>
                    <path d="M43.7480388,26.1334878 C43.7480388,26.1334878 43.4916469,28.660814 45.6412973,29.3924085 C45.6412973,29.3924085 43.3122989,29.4903575 40.2078096,27.8953607 C40.2078096,27.8953607 41.0022456,26.4273348 43.7480388,26.1334878" id="Fill-391" fill="#F2F2F2" mask="url(#mask-6)"></path>
                    <path d="M45.6412973,26.3221331 C45.6412973,26.3221331 47.203733,26.0906665 47.8146924,27.0491338 C47.8146924,27.0491338 46.4372965,27.1784508 45.6412973,26.3221331" id="Fill-392" fill="#F2F2F2" mask="url(#mask-6)"></path>
                    <path d="M44.5603951,27.2201853 C44.5603951,27.2201853 44.3329374,29.9156434 46.7279949,29.3029903 C46.7279949,29.3029903 44.9685728,28.54796 44.5603951,27.2201853" id="Fill-393" fill="#DC1FFF" mask="url(#mask-6)"></path>
                    <path d="M57.5949704,34.8270682 C57.5949704,34.8270682 56.5460278,32.5921573 53.5256349,32.6549729 C50.5040713,32.7188904 48.90139,34.1305871 48.90139,34.1305871 C48.90139,34.1305871 51.5893055,33.068233 53.4893434,33.0913756 C56.3399855,33.1211303 57.5949704,34.8270682 57.5949704,34.8270682" id="Fill-394" fill="#DC1FFF" mask="url(#mask-6)"></path>
                    <path d="M57.4654472,34.8270682 C57.4654472,34.8270682 55.3819947,35.2856799 53.2481802,35.0095159 C53.2481802,35.0095159 53.4408695,36.1590359 55.8582437,35.8659233 C58.2723334,35.5698197 57.4654472,34.8270682 57.4654472,34.8270682" id="Fill-395" fill="#DC1FFF" mask="url(#mask-6)"></path>
                    <path d="M44.5545998,32.9490759 C44.5545998,32.9490759 35.0792496,33.9323288 32.9071094,27.2201853 C32.9071094,27.2201853 31.9810322,27.7553892 31.5142291,28.1666123 C31.5142291,28.1666123 31.9609547,32.4384227 36.5850661,33.184762 C36.5850661,33.184762 33.3048959,33.7371513 31.9383674,31.8283394 C31.9383674,31.8283394 35.3214351,37.75118 44.5545998,32.9490759" id="Fill-396" fill="#F2F2F2" mask="url(#mask-6)"></path>
                    <path d="M52.1614827,35.9137658 C52.1614827,35.9137658 46.3345115,37.6985325 48.1736139,44.6073462 C48.1736139,44.6073462 49.6640295,37.7228979 52.1614827,35.9137658" id="Fill-397" fill="#F2F2F2" mask="url(#mask-6)"></path>
                    <path d="M53.2481802,37.0004633 C53.2481802,37.0004633 51.6114595,38.3020359 52.3553482,42.4339511 C52.3553482,42.4339511 52.5787631,38.1544216 53.2481802,37.0004633" id="Fill-398" fill="#F2F2F2" mask="url(#mask-6)"></path>
                    <path d="M55.3559117,35.9137658 C55.3559117,35.9137658 52.4977737,37.2277407 53.4380163,45.8319239 C53.4380163,45.8319239 53.6150911,43.3728964 53.9817109,42.7394374 C53.9817109,42.7394374 56.0779282,45.8488162 56.2724612,49.5614893 C56.2724612,49.5614893 56.7488175,46.7911619 55.6140419,43.5599176 C55.6140419,43.5599176 58.4559689,45.4735671 57.9883416,60.0189925 C57.9883416,60.0189925 59.2365947,54.0138011 58.3125632,45.9465499 C58.3125632,45.9465499 59.8613448,49.2429499 59.8102175,53.8135074 C59.7590903,58.3828584 58.7839315,66.7964006 61.3066249,71.9943842 C61.3066249,71.9943842 59.08446,63.5567103 61.4587596,57.342779 C61.4587596,57.342779 60.5596682,66.5068194 62.7319529,71.0520386 C62.7319529,71.0520386 62.4825517,64.4990559 63.7308048,62.4912925 C63.7308048,62.4912925 63.5587179,78.7717923 68.1177723,83.7284582 C68.1177723,83.7284582 69.0230988,78.1310938 66.7759937,70.6116337 C65.9030894,67.6977223 66.2073589,61.0349401 66.8607901,57.7952498 C67.2012228,56.102406 67.3620866,55.5268632 67.3620866,55.5268632 L68.461946,46.9757699 L60.9362641,39.5407711 L55.3559117,35.9137658" id="Fill-399" fill="#F2F2F2" mask="url(#mask-6)"></path>
                    <path d="M70.8942415,58.4160747 L71.7220387,67.6990913 L70.8722969,70.6880876 C68.7778116,68.6411438 66.577261,61.8501636 67.6610779,57.6477169 L70.8942415,58.4160747" id="Fill-400" fill="#F2F2F2" mask="url(#mask-6)"></path>
                    <path d="M72.7699827,77.679107 C72.7699827,77.679107 70.6125684,77.7312185 69.8191194,78.2949704 C69.8191194,78.2949704 69.575811,74.7952078 68.6589099,72.291486 C67.6748893,69.6207703 67.3752484,66.3412973 67.3752484,66.3412973 C67.3752484,66.3412973 68.8542758,69.2488835 70.2398152,70.1975502 L73.8954338,73.9578704 L72.7699827,77.679107" id="Fill-401" fill="#F2F2F2" mask="url(#mask-6)"></path>
                    <path d="M69.5486436,83.7284582 C69.5486436,83.7284582 70.3908612,81.3384486 72.552069,78.9025237 L73.7028578,75.2957599 L78.2600295,71.2660925 L91.8008558,60.4349264 L97.943236,59.821112 L99.9761751,62.816478 L99.6857553,63.4822491 C99.6857553,63.4822491 97.840379,62.298119 96.085759,62.4201569 C94.3287188,62.5421948 91.6616963,64.0791474 90.2955129,66.4619073 C88.9281193,68.8434588 82.2460422,79.919909 75.110184,83.474716 C75.110184,83.474716 79.1639613,80.4394763 81.2561945,76.4146421 C81.2561945,76.4146421 76.2767038,79.919909 72.5024556,80.9542104 C72.5024556,80.9542104 70.5384913,82.2374209 69.5486436,83.7284582" id="Fill-402" fill="#F2F2F2" mask="url(#mask-6)"></path>
                    <path d="M107.583058,59.4137246 L107.024519,59.6127766 C107.024519,59.6127766 104.744791,59.7967839 103.493336,61.1426993 C102.239544,62.4886148 100.454088,67.0401929 96.3912417,66.2497714 C96.3912417,66.2497714 98.2292796,65.6665028 98.8181996,64.3090145 C98.8181996,64.3090145 96.8072248,65.576235 94.5426873,65.0091683 C94.5426873,65.0091683 94.8745391,62.7825636 97.363427,62.6460047 C98.8065146,62.5673097 99.1383664,63.1899258 99.1383664,63.1899258 L99.7787,62.8959769 L102.066607,60.1254511 L103.279502,57.8317242 L107.115661,57.6477169 L107.583058,59.4137246" id="Fill-403" fill="#F2F2F2" mask="url(#mask-6)"></path>
                    <path d="M103.236268,63.8773198 C103.236268,63.8773198 104.490951,65.2671698 105.987013,65.2545139 C105.987013,65.2545139 110.511958,60.6477593 114.103243,60.7259959 L112.678247,59.0887802 L109.955683,58.7344144 L107.606828,60.4533184 L105.610853,62.0525663 L103.236268,63.8773198" id="Fill-404" fill="#F2F2F2" mask="url(#mask-6)"></path>
                    <path d="M78.242224,86.9885509 C78.242224,86.9885509 81.9471429,83.248848 83.96243,80.3794056 C85.9777171,77.5063371 89.2767469,71.3468264 92.3692922,70.6880876 L89.7723093,79.5127711 L84.8957392,85.0715603 L78.242224,86.9885509" id="Fill-405" fill="#DC1FFF" mask="url(#mask-6)"></path>
                    <path d="M91.2825947,69.887579 C91.2825947,69.887579 92.4611517,70.1598439 93.4856649,70.1822218 L95.9833743,71.7747851 L108.588066,70.791399 L115.189941,61.8327643 L114.686242,60.9078096 C114.686242,60.9078096 110.234867,66.9734741 107.25302,67.9742652 C104.272395,68.978786 93.2374833,68.092371 91.2825947,69.887579" id="Fill-406" fill="#DC1FFF" mask="url(#mask-6)"></path>
                    <path d="M99.9761751,67.4279949 C99.9761751,67.4279949 102.352333,66.487896 103.677072,64.4463463 C105.006464,62.4070376 106.49636,61.2181879 106.49636,61.2181879 L106.37889,60.9078096 C106.37889,60.9078096 105.001812,61.1229454 104.078332,62.5101235 C103.157179,63.9006631 101.029919,66.9394572 99.9761751,67.4279949" id="Fill-407" fill="#DC1FFF" mask="url(#mask-6)"></path>
                    <path d="M110.843151,63.0812047 C110.843151,63.0812047 108.180833,66.5688551 106.49636,67.4279949 C106.49636,67.4279949 108.309753,64.0492495 110.843151,63.0812047" id="Fill-408" fill="#DC1FFF" mask="url(#mask-6)"></path>
                    <path d="M31.5523884,45.1929762 C31.5523884,45.1929762 30.8917822,40.9287417 35.0678011,39.3383967 C39.2475243,37.7491982 41.9615662,38.6137405 44.5545998,37.0004633 C44.5545998,37.0004633 39.5895578,40.6099847 37.1224715,45.3064903 C37.1224715,45.3064903 37.197793,41.9251439 38.4165188,40.2694422 C38.4165188,40.2694422 34.6800808,43.2196641 33.9947791,45.6940438 C33.9947791,45.6940438 34.045405,42.4250649 35.6567901,40.4976172 C35.6567901,40.4976172 32.7958097,42.1303867 31.5523884,45.1929762" id="Fill-409" fill="#F2F2F2" mask="url(#mask-6)"></path>
                    <path d="M30.4275316,38.0871609 C30.4275316,38.0871609 27.7784111,41.7395516 27.9460056,44.6073462 C27.9460056,44.6073462 25.0504226,40.7522966 30.4275316,38.0871609" id="Fill-410" fill="#DC1FFF" mask="url(#mask-6)"></path>
                    <path d="M29.340834,33.7403707 C29.340834,33.7403707 27.795249,35.6916958 28.3905854,38.0871609 C28.3905854,38.0871609 29.1545312,35.6430769 29.340834,33.7403707" id="Fill-411" fill="#DC1FFF" mask="url(#mask-6)"></path>
                    <path d="M29.340834,27.2201853 C26.1907131,33.8552206 24.4311645,49.0908725 25.0453239,52.2142291 L23.1547706,49.6374 L22.8206487,36.68374 L26.7928537,28.1202777 L29.340834,27.2201853" id="Fill-412" fill="#DC1FFF" mask="url(#mask-6)"></path>
                    <path d="M44.3819779,40.260556 C44.3819779,40.260556 39.8939133,47.4312925 40.103195,53.3889712 C40.103195,53.3889712 38.7858089,50.6681512 39.0265434,48.0965177 C39.0265434,48.0965177 36.3639477,48.4279074 34.2977443,49.6678677 C34.2977443,49.6678677 35.7627164,49.9417839 36.9010637,50.6974993 C36.9010637,50.6974993 28.2201065,51.2110923 24.2098816,55.6304377 C24.2098816,55.6304377 26.1575323,55.2966023 27.4749184,55.5069309 C27.4749184,55.5069309 23.1017773,56.4741977 20.6472536,61.6186875 C20.6472536,61.6186875 23.4005784,58.5628092 25.6784828,58.1409292 C25.6784828,58.1409292 21.5194623,63.4676223 21.2775182,66.3412973 C21.2775182,66.3412973 30.8863314,63.132564 31.3048948,55.6597859 C31.3048948,55.6597859 41.1834758,56.0816659 41.3588853,53.6628874 C41.3588853,53.6628874 42.7657907,56.5989274 45.6412973,56.5365625 C45.6412973,56.5365625 43.1879833,46.1570927 44.3819779,40.260556" id="Fill-413" fill="#F2F2F2" mask="url(#mask-6)"></path>
                    <path d="M44.8460431,57.1975402 C44.8460431,57.1975402 31.7807847,53.501099 31.5185191,63.9237728 C31.3646074,69.9475143 35.403251,71.5711289 35.403251,71.5711289 C35.403251,71.5711289 33.0797996,68.3191209 34.0697598,62.9990651 C34.0697598,62.9990651 35.5953328,73.6033352 47.8146924,71.4982514 C47.8146924,71.4982514 43.8560829,64.5139608 44.8460431,57.1975402" id="Fill-414" fill="#F2F2F2" mask="url(#mask-6)"></path>
                    <path d="M53.2481802,48.9541364 C53.2481802,48.9541364 56.8818595,50.7164533 56.8818595,55.6687416 C56.8818595,60.6245902 54.5040905,68.0761642 57.5949704,73.9481802 C57.5949704,73.9481802 54.7414279,70.8294135 54.878776,66.0942995 C55.0139264,61.3591856 57.9377911,53.0994379 53.2481802,48.9541364" id="Fill-415" fill="#DC1FFF" mask="url(#mask-6)"></path>
                    <path d="M46.8127559,61.9945071 C46.8127559,61.9945071 45.62263,70.3959221 52.1614827,71.7747851 C52.1614827,71.7747851 49.3521886,67.8451525 49.4268047,64.0374082 C49.4268047,64.0374082 49.0450192,67.0211358 49.3894966,68.27938 C49.3894966,68.27938 47.3885431,67.3728347 46.8127559,61.9945071" id="Fill-416" fill="#DC1FFF" mask="url(#mask-6)"></path>
                    <path d="M40.2078096,74.8083798 C40.2078096,74.8083798 36.8812406,74.5086056 33.9322885,72.9211372 C30.9833364,71.3276004 29.6144751,66.3952826 25.7273811,66.3418816 C23.3212533,66.3091127 23.0498412,67.6671992 20.6472536,67.3018873 C22.3677706,68.2788843 23.3212533,66.9863355 25.6754587,67.0069677 C27.4313774,67.0276 28.8757621,68.7218705 30.2092218,70.8433498 C31.933279,73.5935053 35.1890448,75.756249 40.2078096,74.8083798" id="Fill-417" fill="#DC1FFF" mask="url(#mask-6)"></path>
                    <path d="M18.3941644,66.3412973 C18.3941644,66.3412973 17.968179,63.7855591 18.1616112,63.0812047 C18.1616112,63.0812047 16.4533226,65.7874087 18.3941644,66.3412973" id="Fill-418" fill="#DC1FFF" mask="url(#mask-6)"></path>
                    <path d="M15.0990068,67.4279949 C15.0990068,67.4279949 12.9478609,59.7611968 16.3004633,55.4743218 L12.8284178,55.9230985 L11.9536731,60.9371798 L13.1410776,62.0849673 C13.1410776,62.0849673 12.6515952,66.0135259 15.0990068,67.4279949" id="Fill-419" fill="#DC1FFF" mask="url(#mask-6)"></path>
                    <path d="M20.2624348,53.3220602 C20.2624348,53.3220602 17.7515242,55.8510347 17.3871609,60.9078096 C17.3871609,60.9078096 20.768708,55.7958528 23.9073462,53.3009267 L20.2624348,53.3220602" id="Fill-420" fill="#F2F2F2" mask="url(#mask-6)"></path>
                    <path d="M10.8669756,73.6801965 C10.8669756,73.6801965 12.7292194,69.556053 17.333478,68.8467003 C21.938974,68.1373476 23.7220261,68.1774107 24.9940438,67.4279949 C24.9940438,67.4279949 20.8599862,77.0466759 14.3155294,77.20575 C12.0424783,77.2623097 11.9645239,76.3491065 11.9645239,76.3491065 C11.9645239,76.3491065 15.1779772,77.1303371 17.136736,75.0989019 C17.136736,75.0989019 12.8467696,76.2736936 12.434725,74.5568716 C12.0239177,72.8388712 16.5885805,70.0226703 16.5885805,70.0226703 C16.5885805,70.0226703 12.9061635,70.7709078 10.8669756,73.6801965" id="Fill-421" fill="#F2F2F2" mask="url(#mask-6)"></path>
                    <path d="M10.6673855,65.2545998 C10.6673855,65.2545998 11.6953696,67.3690088 13.0403707,67.8243241 C13.0403707,67.8243241 10.0996731,70.5874014 8.69365615,72.8614827 C8.69365615,72.8614827 8.64988393,66.639257 10.6673855,65.2545998" id="Fill-422" fill="#F2F2F2" mask="url(#mask-6)"></path>
                    <path d="M8.53512971,73.9481802 C8.53512971,73.9481802 8.23943818,75.358887 8.69358045,76.1215753 C8.69358045,76.1215753 7.4496798,76.0815742 6.52018533,76.0135723 C6.52018533,76.0135723 7.32990602,74.4535279 8.53512971,73.9481802" id="Fill-423" fill="#F2F2F2" mask="url(#mask-6)"></path>
                    <path d="M8.76059769,78.2949704 C8.76059769,78.2949704 12.9969497,80.8797675 14.1270682,82.6214946 C14.1270682,82.6214946 12.7141015,82.1837467 11.7865634,81.8548567 C11.7865634,81.8548567 12.2286729,84.6388407 13.1179883,86.2172808 C13.1179883,86.2172808 10.2117871,83.4842516 9.93021306,81.6857795 C9.93021306,81.6857795 10.1722903,85.4460107 11.7457925,86.9885509 C11.7457925,86.9885509 4.96635522,82.5126366 8.76059769,78.2949704" id="Fill-424" fill="#F2F2F2" mask="url(#mask-6)"></path>
                    <path d="M22.8206487,76.1215753 C22.8206487,76.1215753 28.8586748,78.9541809 28.2045885,84.8151558 C28.2045885,84.8151558 26.5488081,78.9303073 22.8206487,76.1215753" id="Fill-425" fill="#DC1FFF" mask="url(#mask-6)"></path>
                    <path d="M28.2541364,73.9481802 C28.2541364,73.9481802 28.4310315,77.8787527 31.5142291,78.2949704 C31.5142291,78.2949704 28.3704835,75.2494201 28.2541364,73.9481802" id="Fill-426" fill="#DC1FFF" mask="url(#mask-6)"></path>
                    <path d="M27.1674389,77.2082729 C27.1674389,77.2082729 27.1331227,80.8701829 30.4275316,81.5550631 C30.4275316,81.5550631 27.6995762,78.9751382 27.1674389,77.2082729" id="Fill-427" fill="#DC1FFF" mask="url(#mask-6)"></path>
                    <path d="M31.5142291,85.9018533 C31.5142291,85.9018533 34.2097674,85.4032524 34.9083062,82.5555469 C35.6068451,79.7040545 37.8374734,76.2340446 40.2078096,75.0348778 C40.2078096,75.0348778 37.7588144,77.224935 36.4920524,80.182459 C35.2299863,83.1399829 35.1020187,85.7491174 31.5142291,85.9018533" id="Fill-428" fill="#DC1FFF" mask="url(#mask-6)"></path>
                    <path d="M23.3936258,82.6417607 C23.3936258,82.6417607 21.3433678,87.3593434 27.4576386,89.9351938 C27.4576386,89.9351938 23.7221538,90.1509981 21.7339511,86.6416686 C21.7339511,86.6416686 22.3970909,92.4796772 30.8901476,92.6377664 C30.8901476,92.6377664 26.6314516,93.4984743 23.3145357,92.1070384 C23.3145357,92.1070384 25.145775,94.6690873 29.9228152,94.5938067 C34.7047225,94.5122528 40.365138,91.7883506 43.4679022,85.5137146 C43.4679022,85.5137146 40.8883492,89.0857779 36.3789985,91.09326 C40.6291771,88.008011 39.978205,86.5789348 42.4470319,83.4861578 C42.4470319,83.4861578 40.4722137,85.0507391 39.7239,86.4221002 C38.9743695,87.7959707 35.7195089,90.3504916 32.9671745,90.0744628 C32.9671745,90.0744628 35.4311344,89.5788657 36.6454711,86.9227161 C36.6454711,86.9227161 34.1900287,88.8649549 30.1442674,88.4069981 C26.099723,87.9490412 23.5858755,86.21006 23.3936258,82.6417607" id="Fill-429" fill="#F2F2F2" mask="url(#mask-6)"></path>
                    <path d="M47.8146924,78.2987582 C47.8146924,78.2987582 42.4135108,80.0827703 38.0344144,84.8151558 C38.0344144,84.8151558 41.8802488,78.1130868 47.8146924,78.2987582 Z" id="Fill-430" fill="#DC1FFF" mask="url(#mask-6)"></path>
                    <path d="M36.9477169,82.300517 C36.9477169,82.300517 39.8411261,72.7022446 49.894456,72.8634918 C59.9477859,73.023579 64.6269522,85.1020433 69.5486436,86.937246 C63.8076758,86.3769407 60.196344,83.8155453 57.6745653,81.0615812 C59.506173,84.2470847 60.6283041,85.6623485 63.3672694,86.9778478 C63.3672694,86.9778478 59.3806873,87.3537047 56.6260363,83.6508179 C54.9573187,81.4026366 54.4022861,78.127809 50.4410424,77.5744641 C50.4410424,77.5744641 53.0798606,77.149885 56.7249769,79.570914 C56.7249769,79.570914 53.7290074,75.5849744 49.0691466,75.6557376 C44.4104924,75.7265008 40.7617562,77.6962696 36.9477169,82.300517" id="Fill-431" fill="#F2F2F2" mask="url(#mask-6)"></path>
                    <path d="M71.5517358,86.9885509 C71.5517358,86.9885509 76.0753346,87.409326 77.6369523,87.4337188 L86.3082949,87.3019979 L98.1744064,92.0158992 L108.693502,94.7954544 L110.843151,104.375712 L107.67263,103.023133 C107.67263,103.023133 107.608371,102.363309 106.751179,102.285252 C105.893987,102.210854 102.170596,101.514441 100.419838,99.666689 C100.419838,99.666689 102.535539,100.527754 104.043809,100.503361 C104.043809,100.503361 101.178823,96.7005292 98.5417746,96.3626894 C95.9059386,96.0285086 94.7092642,96.3834233 94.7092642,96.3834233 C94.7092642,96.3834233 89.756463,94.2466173 85.2886362,93.9953718 C85.2886362,93.9953718 88.9489806,93.4501936 95.2791092,95.3235577 C95.2791092,95.3235577 89.8801315,91.8292946 81.8683541,91.5829277 C73.8565767,91.3353411 68.6249152,91.3353411 66.2885509,89.2570778 C66.2885509,89.2570778 71.5771969,91.0133567 77.3993148,89.3680648 C75.5915727,87.9984112 73.4104002,88.3203957 71.5517358,86.9885509" id="Fill-432" fill="#F2F2F2" mask="url(#mask-6)"></path>
                    <path d="M98.8894776,98.7650783 C98.8894776,98.7650783 97.3087259,98.0525382 96.7160825,97.8555264 C96.7160825,97.8555264 96.9941264,99.4672037 98.8894776,98.7650783" id="Fill-433" fill="#F2F2F2" mask="url(#mask-6)"></path>
                    <path d="M105.409663,103.668249 C105.409663,103.668249 97.72266,103.819578 96.2377117,99.9600741 C96.2377117,99.9600741 94.9443696,98.0194264 93.5851628,97.3438922 C93.5851628,97.3438922 94.5192432,98.4165147 94.6377996,98.8668708 C94.6377996,98.8668708 88.7327348,94.9202013 76.6172327,95.1090603 C74.6209352,95.1381156 72.7611571,94.9976819 71.0402935,94.7240785 C62.3210121,93.3439548 56.777604,88.1939142 55.1621239,85.2956545 C52.6305265,80.7557739 51.1288125,79.3478056 48.90139,81.3707764 C48.90139,81.3707764 50.1647937,80.6165509 51.2820975,81.4639952 C54.0927216,83.6056082 55.1669141,92.2071687 68.6955122,95.4734614 L75.1993465,99.3293333 L84.6622997,98.8257092 L96.094007,102.048419 L102.18469,105.462409 L105.409663,103.668249" id="Fill-434" fill="#DC1FFF" mask="url(#mask-6)"></path>
                    <path d="M62.2197292,92.4220387 C62.2197292,92.4220387 58.083205,97.5214525 60.5569643,103.289014 C60.5569643,103.289014 59.7946749,95.8121794 63.0284582,92.9308685 L62.2197292,92.4220387" id="Fill-435" fill="#DC1FFF" mask="url(#mask-6)"></path>
                    <path d="M66.8444677,94.5954338 C66.8444677,94.5954338 64.7213448,103.041764 60.8550631,106.549107 L66.3908489,106.114746 L69.5486436,95.1059331 L66.8444677,94.5954338" id="Fill-436" fill="#DC1FFF" mask="url(#mask-6)"></path>
                    <path d="M15.345153,79.381668 C15.345153,79.381668 9.0070974,97.9540661 25.2461268,98.8926765 C41.4875434,99.8325203 45.6412973,87.0903603 45.6412973,87.0903603 C45.6412973,87.0903603 39.6434199,98.0971395 25.4394912,97.5877491 C11.2367561,97.0746585 15.345153,79.381668 15.345153,79.381668" id="Fill-437" fill="#DC1FFF" mask="url(#mask-6)"></path>
                    <path d="M3.57081239,81.5550631 C3.57081239,81.5550631 1.84691366,88.6634173 6.52018533,88.0360345 C6.52018533,88.0360345 3.34543783,86.4991252 3.57081239,81.5550631" id="Fill-438" fill="#DC1FFF" mask="url(#mask-6)"></path>
                    <path d="M4.06955719,76.1215753 C4.06955719,76.1215753 2.78322057,74.8046032 3.45366746,72.7758213 L3.90103618,64.623491 L11.5341892,61.9945071 L11.9536731,62.9382131 C11.9536731,62.9382131 5.77416537,65.9987472 4.06955719,76.1215753" id="Fill-439" fill="#DC1FFF" mask="url(#mask-6)"></path>
                    <path d="M2.9500312,73.9481802 C2.9500312,73.9481802 -0.389831682,83.330708 1.2667111,87.2431042 C2.92325388,91.1591117 21.0283779,102.194476 21.0283779,102.194476 C21.0283779,102.194476 22.2065803,106.982045 25.9967891,107.402177 C29.7833465,107.816289 32.339364,108.508482 32.339364,108.508482 C32.339364,108.508482 36.1831275,112.20058 38.0344144,111.314573 C38.0344144,111.314573 37.5986743,112.171688 35.9896004,111.944168 C34.3805266,111.716647 32.009516,109.029733 32.009516,109.029733 C32.009516,109.029733 27.0216304,108.489221 24.6506199,107.992046 L19.8635642,107.4094 L2.3889245,100.823332 L-4.34679022,86.3149634 L2.9500312,73.9481802" id="Fill-440" fill="#DC1FFF" mask="url(#mask-6)"></path>
                    <path d="M33.6876242,105.462409 C33.6876242,105.462409 37.1137323,108.789603 40.2078096,108.72147 C40.2078096,108.72147 36.0973803,106.046592 33.6876242,105.462409" id="Fill-441" fill="#DC1FFF" mask="url(#mask-6)"></path>
                    <path d="M24.9940438,107.916357 C23.4903005,111.746982 23.5628353,125.474884 24.1745091,139.150034 L23.0875701,128.867894 C23.0875701,128.867894 22.1208007,113.997399 23.8670483,107.635804 L24.9940438,107.916357" id="Fill-442" fill="#DC1FFF" mask="url(#mask-6)"></path>
                    <path d="M61.316542,105.462409 L64.2346211,107.845786 L70.6353411,120.922084 L70.0425512,128.734737 L66.2717485,131.543151 C66.2717485,131.543151 56.8612081,127.41578 55.4215753,119.340067 C55.4215753,119.340067 58.8101226,125.574357 63.7700337,126.756911 C63.7700337,126.756911 63.7700337,117.93586 61.2295054,113.068024 C61.2295054,113.068024 64.1087709,116.886054 64.5333684,119.035599 C64.6015863,115.736382 62.7561747,108.924821 61.316542,105.462409" id="Fill-443" fill="#F2F2F2" mask="url(#mask-6)"></path>
                    <path d="M57.5949704,105.462409 C57.5949704,105.462409 57.6827165,112.140787 51.5238976,117.045547 C51.5238976,117.045547 53.6705842,113.862854 54.3802131,111.937036 C54.3802131,111.937036 49.593185,119.042555 40.2078096,123.936268 C40.2078096,123.936268 49.4804514,117.777088 57.5949704,105.462409" id="Fill-444" fill="#F2F2F2" mask="url(#mask-6)"></path>
                    <path d="M47.8146924,113.069292 C47.8146924,113.069292 43.6979418,118.343179 38.0344144,120.676175 C38.0344144,120.676175 44.196361,115.222827 47.8146924,113.069292" id="Fill-445" fill="#F2F2F2" mask="url(#mask-6)"></path>
                    <path d="M52.1614827,118.50278 C52.1614827,118.50278 44.1268425,130.977195 31.5142291,133.716546 C31.5142291,133.716546 46.3754002,126.249116 52.1614827,118.50278" id="Fill-446" fill="#DC1FFF" mask="url(#mask-6)"></path>
                    <path d="M49.2649832,121.762873 C49.2649832,121.762873 54.6124643,127.050121 58.681668,128.283058 C58.681668,128.283058 54.299546,127.972843 48.90139,122.053841 L49.2649832,121.762873" id="Fill-447" fill="#DC1FFF" mask="url(#mask-6)"></path>
                    <path d="M63.8013991,166.317472 C62.4112507,160.414126 61.9898548,152.801788 61.9898548,152.801788 C62.4730859,152.486846 62.8521132,151.543238 62.8521132,151.543238 C62.6196584,148.976088 61.370357,144.802486 61.370357,144.802486 C58.4927269,140.719216 57.5949704,135.344437 57.5949704,135.344437 C58.4927269,138.720916 61.0291179,141.84593 61.0291179,141.84593 C58.6782327,136.158649 58.8374013,132.413516 58.8374013,132.413516 C58.9690875,134.47041 61.1058395,137.174279 61.1058395,137.174279 C60.525275,134.836622 60.2619026,131.543151 60.2619026,131.543151 C62.4811016,132.104677 66.5198606,132.331728 66.5198606,132.331728 L67.3752484,137.552698 L66.524441,146.919194 L64.7724418,146.787358 L63.9559872,149.193374 L64.2697439,153.417025 L64.3086773,153.626987 L64.1735558,153.548862 C64.1735558,154.304481 63.6697128,155.191936 63.6697128,155.191936 C63.6548266,156.376023 63.9330853,159.476622 64.0991244,161.184393 L63.8013991,166.317472" id="Fill-448" fill="#F2F2F2" mask="url(#mask-6)"></path>
                    <path d="M43.4679022,174.408914 C43.4679022,174.408914 47.6512589,185.529338 59.8172669,185.779248 C71.983275,186.031574 78.5670179,175.61742 78.9851105,167.40417 L80.4156191,173.808887 L74.3909536,184.946213 L66.7182254,185.87704 C66.7182254,185.87704 62.3124532,187.444113 57.3634038,186.816318 L52.2843081,186.902036 C52.2843081,186.902036 48.6964903,184.538146 48.3792747,184.407758 C48.0632745,184.280991 43.7717486,178.720176 43.7316409,178.250537 C43.6854562,177.780898 43.4679022,174.408914 43.4679022,174.408914" id="Fill-449" fill="#DC1FFF" mask="url(#mask-6)"></path>
                    <path d="M57.2279681,186.338783 C57.2279681,186.338783 58.5062363,196.87224 56.2915624,205.438584 L54.3348778,196.78009 L56.3308447,185.878028 L57.2279681,186.338783" id="Fill-450" fill="#DC1FFF" mask="url(#mask-6)"></path>
                    <path d="M60.6777153,194.571609 C60.6777153,194.571609 57.9505982,201.803002 61.9417607,202.178492 C61.9417607,202.178492 60.2264876,199.750091 60.6777153,194.571609" id="Fill-451" fill="#DC1FFF" mask="url(#mask-6)"></path>
                    <path d="M67.176776,188.051424 C67.176776,188.051424 66.1345586,193.791159 64.4855709,197.039264 C62.8389626,200.28737 67.1208579,203.424978 68.7377225,203.733397 C68.7377225,203.733397 67.6955052,202.442654 67.1482221,201.125199 C67.1482221,201.125199 69.2885749,202.583507 72.0333185,202.861569 C72.0333185,202.861569 78.6149925,209.247283 84.7624093,205.157706 L74.1177532,196.365358 L67.176776,188.051424" id="Fill-452" fill="#F2F2F2" mask="url(#mask-6)"></path>
                    <path d="M33.4711757,208.698677 C33.4711757,208.698677 33.4001143,206.619679 33.1513995,205.751725 C33.1513995,205.751725 27.2177747,205.194356 24.9940438,205.821546 C24.9940438,205.821546 30.8566072,203.45965 32.6221148,203.428351 C32.6221148,203.428351 31.2082385,202.837275 29.7625071,203.078039 C29.7625071,203.078039 32.479992,197.594637 31.7718287,192.668604 C31.0673409,187.74257 30.8186261,175.840397 31.6309311,172.40349 C31.6309311,172.40349 29.1241799,178.057834 28.9134461,180.90487 C28.9134461,180.90487 28.5605897,168.584971 35.4461918,164.144077 L36.3295582,184.790802 C36.3295582,184.790802 37.0708019,197.456198 36.9299043,198.114687 C36.7890068,198.774381 34.953663,208.666174 34.953663,208.666174 L33.4711757,208.698677" id="Fill-453" fill="#F2F2F2" mask="url(#mask-6)"></path>
                    <path d="M55.4215753,155.450497 C55.4215753,155.450497 54.0909092,150.362568 52.4872556,147.784168 C50.8895108,145.210602 46.01828,131.139354 45.6412973,128.283058 L47.0405058,139.00746 L51.5335721,148.107979 C51.5335721,148.107979 54.9098716,154.227751 55.4215753,155.450497" id="Fill-454" fill="#DC1FFF" mask="url(#mask-6)"></path>
                    <path d="M48.90139,147.272079 C48.90139,147.272079 45.15192,150.270803 44.0585741,151.144361 C44.0585741,151.144361 32.7814235,150.234099 29.5037808,147.909507 C29.5037808,147.909507 33.4041397,151.152925 39.3091657,152.174522 C39.3091657,152.174522 21.1510012,153.444484 17.3871609,133.271914 C17.3871609,133.271914 19.9235318,139.655979 23.7532364,141.45448 C23.7532364,141.45448 20.6636061,135.24537 22.73773,131.543151 L24.4992982,139.373358 L25.2681132,141.790934 C25.2681132,141.790934 28.049978,145.67178 40.3414375,147.098346 L47.2823279,146.180744 L48.90139,147.272079" id="Fill-455" fill="#F2F2F2" mask="url(#mask-6)"></path>
                    <path d="M50.4409893,153.277102 C50.4409893,153.277102 49.9669018,157.533959 49.7914894,159.689776 L48.90139,168.93508 L53.9836085,178.848676 L55.518467,180.444541 C55.518467,180.444541 55.366759,176.381233 54.9045236,174.896141 C54.9045236,174.896141 56.9620636,176.761026 57.5949704,177.61678 C57.5949704,177.61678 55.9724058,175.117687 54.689999,173.191937 C49.5342969,165.445115 50.8463342,162.868116 50.4409893,153.277102" id="Fill-456" fill="#DC1FFF" mask="url(#mask-6)"></path>
                    <path d="M18.4738584,144.583521 C18.4738584,144.583521 22.9111801,152.860736 30.4275316,153.277102 C30.4275316,153.277102 19.909566,146.725003 18.4738584,144.583521" id="Fill-457" fill="#F2F2F2" mask="url(#mask-6)"></path>
                    <path d="M23.2435764,208.698677 C23.2435764,208.698677 25.6041222,198.989621 28.2541364,195.30119 C28.2541364,195.30119 27.4259352,188.364775 26.1026511,184.72087 C24.7782183,181.079373 20.4706529,166.7673 23.946571,156.492644 L22.5015264,155.450497 L21.0518871,158.922315 L20.2638898,169.371464 C20.2638898,169.371464 19.6033964,178.218883 19.5608951,176.049148 C19.5172451,173.880615 23.7019013,193.348067 23.7019013,193.348067 L20.3063911,206.79369 L23.2435764,208.698677" id="Fill-458" fill="#DC1FFF" mask="url(#mask-6)"></path>
                    <path d="M51.0747851,159.048294 C51.0747851,159.048294 43.7008518,159.874238 36.5370533,159.395119 C29.372054,158.911233 11.0627012,153.997283 10.9582341,137.026696 C10.8549678,120.054916 23.4870765,111.982595 23.4870765,111.982595 L7.42676727,116.516348 L4.34679022,133.351066 L6.25961807,148.280034 L13.9181341,157.080569 L22.9311196,156.936357 C22.9311196,156.936357 27.1290142,159.877814 35.2798463,160.632248 L38.2361439,161.970682 L50.7301639,160.982648 L51.0747851,159.048294" id="Fill-459" fill="#DC1FFF" mask="url(#mask-6)"></path>
                    <path d="M29.3921837,138.063336 C29.3921837,138.063336 28.9917108,142.388341 30.4275316,143.496824 C30.4275316,143.496824 29.7580585,139.952242 29.3921837,138.063336" id="Fill-460" fill="#DC1FFF" mask="url(#mask-6)"></path>
                </g>
            </g>
        </g>
    </g>
</svg>