<?xml version="1.0" encoding="UTF-8"?>
<svg width="78px" height="78px" viewBox="0 0 78 78" version="1.1" xmlns="http://www.w3.org/2000/svg" xmlns:xlink="http://www.w3.org/1999/xlink">
    <title>Group 17</title>
    <defs>
        <linearGradient x1="88.5359616%" y1="-14.6833853%" x2="11.891064%" y2="100%" id="linearGradient-1">
            <stop stop-color="#7C71D2" offset="0%"></stop>
            <stop stop-color="#170D69" offset="100%"></stop>
        </linearGradient>
        <circle id="path-2" cx="35" cy="35" r="35"></circle>
        <filter x="-10.0%" y="-7.1%" width="120.0%" height="120.0%" filterUnits="objectBoundingBox" id="filter-3">
            <feOffset dx="0" dy="2" in="SourceAlpha" result="shadowOffsetOuter1"></feOffset>
            <feGaussianBlur stdDeviation="2" in="shadowOffsetOuter1" result="shadowBlurOuter1"></feGaussianBlur>
            <feColorMatrix values="0 0 0 0 0   0 0 0 0 0   0 0 0 0 0  0 0 0 0.2 0" type="matrix" in="shadowBlurOuter1"></feColorMatrix>
        </filter>
        <linearGradient x1="50%" y1="-36.4663068%" x2="50%" y2="148.964055%" id="linearGradient-4">
            <stop stop-color="#EFFFF9" offset="0%"></stop>
            <stop stop-color="#F5BEFF" offset="100%"></stop>
        </linearGradient>
        <linearGradient x1="50%" y1="-36.4663068%" x2="50%" y2="148.964055%" id="linearGradient-5">
            <stop stop-color="#EFFFF9" offset="0%"></stop>
            <stop stop-color="#F5BEFF" offset="100%"></stop>
        </linearGradient>
    </defs>
    <g id="Platform" stroke="none" stroke-width="1" fill="none" fill-rule="evenodd">
        <g id="Calculator-Copy" transform="translate(-76.000000, -5458.000000)">
            <g id="Group-10" transform="translate(20.000000, 5168.000000)">
                <g id="Group-5" transform="translate(30.000000, 262.000000)">
                    <g id="Group-17" transform="translate(30.000000, 30.000000)">
                        <g id="Oval-Copy-21">
                            <use fill="black" fill-opacity="1" filter="url(#filter-3)" xlink:href="#path-2"></use>
                            <use fill="url(#linearGradient-1)" fill-rule="evenodd" xlink:href="#path-2"></use>
                        </g>
                        <g id="lock-copy" transform="translate(22.583000, 14.964000)" fill-rule="nonzero">
                            <path d="M23.0201669,16.1077665 L22.3700467,16.1077665 C22.3700467,16.1077665 22.3411245,8.36668291 22.3354658,8.32204216 C21.7916031,3.65551172 17.5457018,0 12.8351593,0 C7.63545482,0 3.14371493,4.05664974 3.14371493,9.04321036 L3.14371493,16.1077665 L3.03179868,16.1077665 C0.471557239,16.1077665 0,17.4733963 0,18.8622896 L0,37.7245791 C0,39.1134724 0.38541945,40 1.77431271,40 L23.1515742,40 C24.5404675,40 25.1503482,39.1134724 25.1503482,37.7245791 L25.1503482,18.8622896 C25.1497194,17.4733963 24.4090602,16.1077665 23.0201669,16.1077665 Z M5.65868687,9.04321036 C5.65868687,5.44302803 8.8916833,2.51497194 12.7043808,2.51497194 C16.1379462,2.51497194 19.2709725,5.16009368 19.6997752,8.54838963 L19.4910326,15.0483346 L19.4910326,16.1077665 L5.65868687,16.1077665 L5.65868687,9.04321036 Z M2.51497194,37.4850281 L2.51497194,35.5987991 L4.92557255,35.5987991 C5.27263868,35.5987991 5.55431553,35.317751 5.55431553,34.9700561 C5.55431553,34.6223612 5.27263868,34.3413131 4.92557255,34.3413131 L2.51497194,34.3413131 L2.51497194,31.8263412 L4.92557255,31.8263412 C5.27263868,31.8263412 5.55431553,31.5452931 5.55431553,31.1975982 C5.55431553,30.8499033 5.27263868,30.5688552 4.92557255,30.5688552 L2.51497194,30.5688552 L2.51497194,28.6826263 L4.92557255,28.6826263 C5.27263868,28.6826263 5.55431553,28.4015781 5.55431553,28.0538833 C5.55431553,27.7061884 5.27263868,27.4251403 4.92557255,27.4251403 L2.51497194,27.4251403 L2.51497194,24.9101683 L4.92557255,24.9101683 C5.27263868,24.9101683 5.55431553,24.6291202 5.55431553,24.2814254 C5.55431553,23.9337305 5.27263868,23.6526824 4.92557255,23.6526824 L2.51497194,23.6526824 L2.51497194,21.1377104 L4.92557255,21.1377104 C5.27263868,21.1377104 5.55431553,20.8566623 5.55431553,20.5089674 C5.55431553,20.1612726 5.27263868,19.8802245 4.92557255,19.8802245 L2.51497194,19.8802245 L2.51497194,18.6227385 L22.6347475,18.6227385 L22.6347475,19.8802245 L21.2728902,19.8802245 C20.925824,19.8802245 20.6441472,20.1612726 20.6441472,20.5089674 C20.6441472,20.8566623 20.925824,21.1377104 21.2728902,21.1377104 L22.6347475,21.1377104 L22.6347475,23.6526824 L21.2728902,23.6526824 C20.925824,23.6526824 20.6441472,23.9337305 20.6441472,24.2814254 C20.6441472,24.6291202 20.925824,24.9101683 21.2728902,24.9101683 L22.6347475,24.9101683 L22.6347475,27.4251403 L21.2728902,27.4251403 C20.925824,27.4251403 20.6441472,27.7061884 20.6441472,28.0538833 C20.6441472,28.4015781 20.925824,28.6826263 21.2728902,28.6826263 L22.6347475,28.6826263 L22.6347475,30.5688552 L21.2728902,30.5688552 C20.925824,30.5688552 20.6441472,30.8499033 20.6441472,31.1975982 C20.6441472,31.5452931 20.925824,31.8263412 21.2728902,31.8263412 L22.6347475,31.8263412 L22.6347475,34.3413131 L21.2728902,34.3413131 C20.925824,34.3413131 20.6441472,34.6223612 20.6441472,34.9700561 C20.6441472,35.317751 20.925824,35.5987991 21.2728902,35.5987991 L22.6347475,35.5987991 L22.6347475,37.4850281 L2.51497194,37.4850281 Z" id="Shape" fill="url(#linearGradient-4)"></path>
                            <path d="M13.0910577,23.8922335 C11.0105472,23.8922335 9.31859979,25.5841808 9.31859979,27.6646914 C9.31859979,28.8769078 9.91276191,30.004244 10.86405,30.704035 L10.663481,32.5594555 C10.6251277,32.9140666 10.7395589,33.1498452 10.9778525,33.4151747 C11.2167749,33.6805043 11.5569248,33.7125701 11.9134221,33.7125701 L14.2686933,33.7125701 C14.6258193,33.7125701 14.9659693,33.6805043 15.2042629,33.4151747 C15.4431852,33.1498452 15.5576164,32.8537072 15.5186344,32.4990962 L15.3186941,30.674484 C16.270611,29.9746931 16.8635156,28.8611893 16.8635156,27.6489728 C16.8635156,25.569091 15.1715682,23.8922335 13.0910577,23.8922335 Z M13.9794715,29.8961002 L14.2686933,32.4550842 L11.9134221,32.4550842 L12.2032726,29.8961002 C11.253242,29.5364592 10.5760858,28.6801113 10.5760858,27.604332 C10.5760858,26.2154388 11.7021644,25.1497194 13.0910577,25.1497194 C14.479951,25.1497194 15.6060296,26.2757981 15.6060296,27.6646914 C15.6060296,28.7404706 14.9295022,29.5358305 13.9794715,29.8961002 Z" id="Shape" fill="url(#linearGradient-5)"></path>
                        </g>
                    </g>
                </g>
            </g>
        </g>
    </g>
</svg>