<?xml version="1.0" encoding="UTF-8"?>
<svg width="78px" height="78px" viewBox="0 0 78 78" version="1.1" xmlns="http://www.w3.org/2000/svg" xmlns:xlink="http://www.w3.org/1999/xlink">
    <title>Group 18</title>
    <defs>
        <linearGradient x1="88.5359616%" y1="-14.6833853%" x2="11.891064%" y2="100%" id="linearGradient-1">
            <stop stop-color="#7C71D2" offset="0%"></stop>
            <stop stop-color="#170D69" offset="100%"></stop>
        </linearGradient>
        <circle id="path-2" cx="35" cy="35" r="35"></circle>
        <filter x="-10.0%" y="-7.1%" width="120.0%" height="120.0%" filterUnits="objectBoundingBox" id="filter-3">
            <feOffset dx="0" dy="2" in="SourceAlpha" result="shadowOffsetOuter1"></feOffset>
            <feGaussianBlur stdDeviation="2" in="shadowOffsetOuter1" result="shadowBlurOuter1"></feGaussianBlur>
            <feColorMatrix values="0 0 0 0 0   0 0 0 0 0   0 0 0 0 0  0 0 0 0.2 0" type="matrix" in="shadowBlurOuter1"></feColorMatrix>
        </filter>
        <linearGradient x1="50%" y1="-36.4663068%" x2="50%" y2="148.964055%" id="linearGradient-4">
            <stop stop-color="#EFFFF9" offset="0%"></stop>
            <stop stop-color="#F5BEFF" offset="100%"></stop>
        </linearGradient>
    </defs>
    <g id="Platform" stroke="none" stroke-width="1" fill="none" fill-rule="evenodd">
        <g id="Calculator-Copy" transform="translate(-99.000000, -5813.000000)">
            <g id="Group-10" transform="translate(20.000000, 5168.000000)">
                <g id="Group-6-Copy" transform="translate(53.000000, 617.000000)">
                    <g id="Group-18" transform="translate(30.000000, 30.000000)">
                        <g id="Oval-Copy-21">
                            <use fill="black" fill-opacity="1" filter="url(#filter-3)" xlink:href="#path-2"></use>
                            <use fill="url(#linearGradient-1)" fill-rule="evenodd" xlink:href="#path-2"></use>
                        </g>
                        <path d="M39.5784777,22.3875155 L26.144553,36.2780744 L15,47.3875155 L30.6242686,47.3875155 M40.1451617,47.3875155 L55.7885447,47.3875155 L43.143261,34.8685098 L35.7885447,42.2314072 L39.5784777,47.3875155 L40.1451617,47.3875155 Z M30.4726501,47.3875155 L55.7885447,22.3875155 L39.3829508,22.3875155 L15.0408869,47.3875155 L30.4726501,47.3875155 Z M15,22.3875155 L27.5706822,34.7390511 L35.3942724,26.7203255 C32.0860731,23.8317855 30.4319735,22.3875155 30.4319735,22.3875155 L15,22.3875155 Z" id="Shape" stroke="url(#linearGradient-4)" stroke-width="3" fill-rule="nonzero" transform="translate(35.394272, 34.887516) scale(-1, 1) translate(-35.394272, -34.887516) "></path>
                    </g>
                </g>
            </g>
        </g>
    </g>
</svg>